<?xml version="1.0" encoding="utf-8"?>
<!-- Generator: Adobe Illustrator 16.0.0, SVG Export Plug-In . SVG Version: 6.00 Build 0)  -->
<!DOCTYPE svg PUBLIC "-//W3C//DTD SVG 1.1//EN" "http://www.w3.org/Graphics/SVG/1.1/DTD/svg11.dtd">
<svg version="1.1" id="Layer_1" xmlns="http://www.w3.org/2000/svg" xmlns:xlink="http://www.w3.org/1999/xlink" x="0px" y="0px"
	 width="750px" height="378px" viewBox="0 0 750 378" enable-background="new 0 0 750 378" xml:space="preserve">
<g id="BACKGROUND_2">
	<g>
		<g>
			<g>
				<defs>
					<polyline id="SVGID_2_" points="0,427 0,-73 750,-73 750,427 					"/>
				</defs>
				<use xlink:href="#SVGID_2_"  display="none" overflow="visible" fill="#FFFFFF"/>
				<clipPath id="SVGID_3_">
					<use xlink:href="#SVGID_2_"  display="none" overflow="visible"/>
				</clipPath>
				<g opacity="0.7" clip-path="url(#SVGID_3_)">
					<g>
						<path stroke="#020202" stroke-miterlimit="10" d="M412.63,126.166v-2.999l-2.774-0.466c-0.104-0.565-0.251-1.117-0.438-1.647
							l2.168-1.789l-1.5-2.598l-2.638,0.984c-0.369-0.434-0.771-0.835-1.204-1.205l0.983-2.637l-2.597-1.5l-1.789,2.167
							c-0.531-0.188-1.082-0.335-1.647-0.439l-0.466-2.772h-2.999l-0.466,2.772c-0.566,0.104-1.117,0.251-1.647,0.439l-1.789-2.167
							l-2.598,1.5l0.983,2.637c-0.433,0.369-0.835,0.771-1.204,1.205l-2.637-0.984l-1.499,2.598l2.167,1.789
							c-0.188,0.53-0.335,1.082-0.439,1.647l-2.772,0.466v2.999l2.772,0.466c0.104,0.566,0.251,1.117,0.439,1.648l-2.167,1.789
							l1.499,2.597l2.637-0.983c0.369,0.432,0.771,0.835,1.204,1.205l-0.983,2.636l2.598,1.5l1.789-2.167
							c0.53,0.188,1.081,0.335,1.647,0.438l0.466,2.774h2.999l0.466-2.774c0.565-0.104,1.116-0.25,1.647-0.438l1.789,2.167
							l2.597-1.5l-0.983-2.636c0.434-0.37,0.835-0.772,1.204-1.205l2.638,0.983l1.5-2.597l-2.168-1.789
							c0.188-0.531,0.336-1.082,0.438-1.648L412.63,126.166z M405.846,124.667c0,3.655-2.963,6.618-6.618,6.618
							c-3.653,0-6.618-2.963-6.618-6.618c0-3.653,2.964-6.618,6.618-6.618C402.883,118.049,405.846,121.012,405.846,124.667z"/>
						<g>
							
								<circle opacity="0.93" stroke="#020202" stroke-miterlimit="10" enable-background="new    " cx="657.252" cy="200.375" r="3.305"/>
							<path opacity="0.93" stroke="#020202" stroke-miterlimit="10" enable-background="new    " d="M651.293,145.67
								c0,0.28,0.028,0.561,0.08,0.83h-13.53v-1h13.46C651.293,145.56,651.293,145.61,651.293,145.67z"/>
							<path opacity="0.93" stroke="#020202" stroke-miterlimit="10" enable-background="new    " d="M810.5,145.5v1H660.322
								c0.052-0.27,0.08-0.55,0.08-0.83c0-0.06,0-0.109-0.01-0.17H810.5z"/>
							
								<circle opacity="0.93" stroke="#020202" stroke-miterlimit="10" enable-background="new    " cx="655.846" cy="145.667" r="4.557"/>
							
								<circle opacity="0.93" stroke="#020202" stroke-miterlimit="10" enable-background="new    " cx="676.346" cy="186.417" r="2.859"/>
							<path opacity="0.93" stroke="#020202" stroke-miterlimit="10" enable-background="new    " d="M676.346,192.198
								c-3.193,0-5.791-2.599-5.791-5.792s2.598-5.792,5.791-5.792c3.192,0,5.792,2.599,5.792,5.792
								S679.538,192.198,676.346,192.198z M676.346,181.614c-2.643,0-4.791,2.149-4.791,4.792s2.148,4.792,4.791,4.792
								s4.792-2.149,4.792-4.792S678.988,181.614,676.346,181.614z"/>
							<path opacity="0.93" stroke="#020202" stroke-miterlimit="10" enable-background="new    " d="M653.942,200.38
								c0,0.21,0.021,0.42,0.062,0.62h-12.432v-1h12.4C653.951,200.12,653.942,200.25,653.942,200.38z"/>
							<path opacity="0.93" stroke="#020202" stroke-miterlimit="10" enable-background="new    " d="M802,211v1H686.593
								c-2.261,0-4.41-0.97-5.91-2.66l-5.44-6.13c-1.238-1.41-3.028-2.21-4.909-2.21h-9.841c0.04-0.2,0.062-0.41,0.062-0.62
								c0-0.13-0.01-0.26-0.03-0.38h9.811c2.171,0,4.229,0.931,5.659,2.54l5.44,6.141c1.3,1.471,3.189,2.319,5.16,2.319H802z"/>
							<path opacity="0.93" stroke="#020202" stroke-miterlimit="10" enable-background="new    " d="M661.911,171.25h-19.148v-1
								h19.148c2.417,0,4.742-0.729,6.728-2.107l8.89-6.18c1.143-0.793,2.479-1.212,3.869-1.212H795v1H681.397
								c-1.185,0-2.325,0.357-3.299,1.034l-8.891,6.179C667.058,170.459,664.533,171.25,661.911,171.25z"/>
							<path opacity="0.93" stroke="#020202" stroke-miterlimit="10" enable-background="new    " d="M670.581,185.83
								c-0.02,0.189-0.028,0.38-0.028,0.58c0,0.14,0.01,0.28,0.02,0.42h-27.64v-1H670.581z"/>
							<path opacity="0.93" stroke="#020202" stroke-miterlimit="10" enable-background="new    " d="M673.482,186.42
								c0,0.141,0.01,0.28,0.03,0.41h-1.94l0.021-1h1.95C673.503,186.02,673.482,186.22,673.482,186.42z"/>
							<path opacity="0.93" stroke="#020202" stroke-miterlimit="10" enable-background="new    " d="M681.103,185.83
								c0.021,0.189,0.03,0.38,0.03,0.58c0,0.14-0.01,0.28-0.021,0.42h-1.938c0.02-0.13,0.028-0.271,0.028-0.41
								c0-0.199-0.02-0.399-0.06-0.59H681.103z"/>
							<path opacity="0.93" stroke="#020202" stroke-miterlimit="10" enable-background="new    " d="M789.829,185.83v1H682.112
								c0.011-0.14,0.021-0.28,0.021-0.42c0-0.2-0.011-0.391-0.03-0.58H789.829z"/>
						</g>
						<g>
							<path stroke="#020202" stroke-miterlimit="10" d="M488.598,29.901h-12.83l-6.414,11.111l6.414,11.11h12.83l6.415-11.11
								L488.598,29.901z M487.245,49.782h-10.127l-5.063-8.77l5.063-8.771h10.127l5.063,8.771L487.245,49.782z"/>
							<g>
								<path opacity="0.48" stroke="#020202" stroke-miterlimit="10" enable-background="new    " d="M650.78,90.418v-7.126
									l-6.594-1.109c-0.243-1.347-0.594-2.654-1.042-3.917l5.148-4.251l-3.56-6.176l-6.268,2.343
									c-0.883-1.034-1.84-1.985-2.867-2.867l2.343-6.268l-6.176-3.566l-4.251,5.156c-1.263-0.449-2.57-0.799-3.917-1.05
									L622.488,55h-7.126l-1.109,6.586c-1.348,0.251-2.654,0.602-3.917,1.05l-4.251-5.156l-6.177,3.566l2.343,6.268
									c-1.034,0.882-1.984,1.833-2.867,2.867l-6.268-2.343l-3.565,6.176l5.155,4.251c-0.448,1.263-0.799,2.57-1.05,3.917
									l-6.594,1.109v7.126l6.594,1.11c0.251,1.346,0.602,2.654,1.05,3.917l-5.155,4.251l3.565,6.175l6.268-2.342
									c0.883,1.027,1.833,1.985,2.867,2.867l-2.343,6.267l6.177,3.561l4.251-5.149c1.263,0.449,2.569,0.799,3.917,1.042
									l1.109,6.594h7.126l1.11-6.594c1.347-0.243,2.654-0.593,3.917-1.042l4.251,5.149l6.176-3.561l-2.343-6.267
									c1.026-0.882,1.984-1.84,2.867-2.867l6.268,2.342l3.56-6.175l-5.148-4.251c0.448-1.263,0.799-2.571,1.042-3.917
									L650.78,90.418z M630.271,96.407l-6.627-6.627c0.319-0.502,0.547-1.057,0.685-1.658h9.371c0.495,0,0.864,0.441,0.797,0.932
									c-0.369,2.701-1.434,5.183-3.004,7.261C631.195,96.708,630.62,96.756,630.271,96.407z M620.191,88.95
									c-0.205,0.129-0.44,0.229-0.685,0.281c-0.19,0.053-0.381,0.076-0.585,0.076c-0.198,0-0.396-0.023-0.578-0.076
									c-0.244-0.053-0.479-0.145-0.686-0.273c-0.343-0.206-0.624-0.495-0.829-0.837c-0.13-0.205-0.229-0.44-0.28-0.684
									c-0.055-0.19-0.076-0.38-0.076-0.586c0-0.198,0.021-0.396,0.076-0.578c0.053-0.244,0.145-0.479,0.272-0.686
									c0.205-0.342,0.494-0.631,0.837-0.837c0.205-0.129,0.44-0.221,0.686-0.272c0.182-0.054,0.38-0.076,0.578-0.076
									c0.204,0,0.395,0.022,0.585,0.076c0.242,0.053,0.479,0.151,0.685,0.28c0.342,0.205,0.631,0.487,0.837,0.829
									c0.129,0.205,0.22,0.441,0.273,0.686c0.054,0.182,0.076,0.38,0.076,0.578c0,0.206-0.022,0.396-0.076,0.586
									c-0.055,0.243-0.152,0.479-0.281,0.684C620.815,88.463,620.532,88.745,620.191,88.95z M606.357,96.313
									c-1.57-2.078-2.634-4.56-3.004-7.261c-0.067-0.49,0.302-0.932,0.797-0.932h9.371c0.137,0.602,0.365,1.156,0.685,1.658
									l-6.628,6.627C607.229,96.756,606.655,96.708,606.357,96.313z M607.577,77.303l6.628,6.627
									c-0.318,0.502-0.556,1.064-0.685,1.657h-9.371c-0.495,0-0.864-0.44-0.797-0.931c0.37-2.702,1.434-5.183,3.004-7.261
									C606.655,77.002,607.229,76.954,607.577,77.303z M624.328,85.589c-0.13-0.593-0.364-1.155-0.685-1.657l6.628-6.628
									c0.35-0.35,0.923-0.302,1.221,0.092c1.575,2.079,2.636,4.561,3.004,7.264c0.067,0.49-0.302,0.931-0.797,0.931
									L624.328,85.589L624.328,85.589z M628.477,75.508l-6.627,6.628c-0.502-0.319-1.059-0.548-1.658-0.686v-9.37
									c0-0.494,0.441-0.863,0.931-0.796c2.702,0.37,5.185,1.435,7.263,3.004C628.777,74.585,628.825,75.159,628.477,75.508z
									 M617.658,72.08v9.372c-0.594,0.129-1.155,0.365-1.658,0.686l-6.628-6.627c-0.349-0.35-0.301-0.924,0.095-1.222
									c2.078-1.569,4.559-2.634,7.261-3.004C617.218,71.216,617.658,71.585,617.658,72.08z M609.371,98.203l6.63-6.628
									c0.502,0.319,1.063,0.555,1.657,0.686v9.371c0,0.494-0.44,0.863-0.931,0.797c-2.703-0.369-5.186-1.429-7.264-3.004
									C609.071,99.125,609.023,98.552,609.371,98.203z M620.191,101.63v-9.371c0.601-0.137,1.156-0.364,1.658-0.685l6.627,6.627
									c0.35,0.349,0.301,0.923-0.093,1.221c-2.078,1.57-4.561,2.635-7.263,3.004C620.633,102.494,620.191,102.125,620.191,101.63z
									"/>
								<g opacity="0.29">
									<path stroke="#020202" stroke-miterlimit="10" d="M471.943,265.774v-13.468l-8.91-1.497
										c-0.157-0.67-0.334-1.334-0.528-1.989l6.965-5.749l-6.733-11.664l-8.473,3.162c-0.469-0.497-0.953-0.981-1.45-1.45
										l3.161-8.473l-11.663-6.733l-5.749,6.965c-0.655-0.194-1.319-0.372-1.989-0.529l-1.497-8.909h-13.468l-1.497,8.909
										c-0.67,0.157-1.333,0.335-1.989,0.529l-5.749-6.965l-11.662,6.733l3.16,8.473c-0.497,0.469-0.98,0.953-1.449,1.45
										l-8.474-3.162l-6.732,11.664l6.966,5.749c-0.196,0.655-0.373,1.319-0.53,1.989l-8.909,1.497v13.468l8.909,1.497
										c0.157,0.669,0.334,1.333,0.53,1.988l-6.966,5.749l6.732,11.663l8.474-3.161c0.469,0.496,0.952,0.98,1.449,1.45
										l-3.16,8.473l11.662,6.733l5.749-6.966c0.656,0.196,1.319,0.373,1.989,0.53l1.497,8.91h13.468l1.497-8.91
										c0.67-0.157,1.334-0.334,1.989-0.53l5.749,6.966l11.663-6.733l-3.161-8.473c0.497-0.47,0.981-0.954,1.45-1.449l8.473,3.16
										l6.733-11.663l-6.965-5.748c0.194-0.656,0.372-1.32,0.528-1.989L471.943,265.774z M466.211,275.598l-4.597,7.96
										l-8.081-3.017c-1.132,1.325-2.365,2.561-3.69,3.691l3.016,8.081l-7.96,4.595l-5.482-6.643
										c-1.629,0.578-3.315,1.027-5.051,1.347l-1.429,8.501h-9.19l-1.428-8.501c-1.734-0.318-3.423-0.77-5.052-1.347l-5.482,6.643
										l-7.96-4.595l3.017-8.081c-1.325-1.132-2.561-2.366-3.691-3.691l-8.081,3.017l-4.595-7.96l6.643-5.482
										c-0.578-1.629-1.027-3.317-1.348-5.052l-8.501-1.428v-9.19l8.501-1.429c0.319-1.734,0.77-3.422,1.348-5.052l-6.643-5.482
										l4.595-7.959l8.081,3.016c1.132-1.325,2.366-2.56,3.691-3.691l-3.017-8.08l7.96-4.597l5.482,6.644
										c1.629-0.577,3.315-1.027,5.052-1.347l1.428-8.502h9.19l1.429,8.502c1.734,0.318,3.422,0.77,5.051,1.347l5.482-6.644
										l7.96,4.597l-3.016,8.08c1.325,1.133,2.56,2.366,3.69,3.691l8.081-3.016l4.597,7.959l-6.644,5.482
										c0.577,1.63,1.027,3.316,1.347,5.052l8.501,1.429v9.19l-8.501,1.428c-0.318,1.733-0.77,3.423-1.347,5.052L466.211,275.598z
										"/>
									<path stroke="#020202" stroke-miterlimit="10" d="M428.342,238.757c-11.201,0-20.284,9.082-20.284,20.283
										s9.083,20.284,20.284,20.284s20.283-9.083,20.283-20.284S439.543,238.757,428.342,238.757z M428.342,276.796
										c-9.791,0-17.756-7.965-17.756-17.756c0-9.79,7.965-17.756,17.756-17.756c9.79,0,17.756,7.966,17.756,17.756
										C446.098,268.831,438.132,276.796,428.342,276.796z"/>
								</g>
								<g opacity="0.5">
									<path stroke="#020202" stroke-miterlimit="10" d="M623.572,344.729v-5.68l-3.758-0.632
										c-0.065-0.282-0.141-0.563-0.224-0.84l2.938-2.425l-2.84-4.918l-3.573,1.333c-0.196-0.21-0.4-0.414-0.61-0.61l1.334-3.573
										l-4.92-2.84l-2.425,2.938c-0.275-0.083-0.557-0.157-0.839-0.224l-0.632-3.758h-5.68l-0.631,3.758
										c-0.283,0.065-0.563,0.141-0.841,0.224l-2.424-2.938l-4.919,2.84l1.333,3.573c-0.209,0.196-0.414,0.4-0.611,0.61
										l-3.572-1.333l-2.84,4.918l2.938,2.425c-0.083,0.276-0.157,0.558-0.224,0.84l-3.759,0.632v5.68l3.759,0.632
										c0.065,0.282,0.141,0.563,0.224,0.839l-2.938,2.424l2.84,4.92l3.572-1.333c0.197,0.21,0.402,0.413,0.611,0.61l-1.333,3.573
										l4.919,2.84l2.424-2.938c0.277,0.083,0.558,0.156,0.841,0.224l0.631,3.758h5.68l0.632-3.758
										c0.282-0.066,0.563-0.141,0.839-0.224l2.425,2.938l4.92-2.84l-1.334-3.573c0.21-0.197,0.414-0.4,0.61-0.61l3.573,1.333
										l2.84-4.92l-2.938-2.424c0.083-0.276,0.156-0.557,0.224-0.839L623.572,344.729z M621.154,348.871l-1.938,3.357
										l-3.408-1.271c-0.479,0.56-0.998,1.079-1.558,1.558l1.271,3.408l-3.356,1.938l-2.313-2.802
										c-0.688,0.244-1.399,0.434-2.131,0.568l-0.603,3.585h-3.876l-0.603-3.585c-0.731-0.136-1.443-0.324-2.131-0.568
										l-2.313,2.802l-3.356-1.938l1.271-3.408c-0.559-0.479-1.079-0.998-1.557-1.558l-3.408,1.271l-1.938-3.357l2.802-2.312
										c-0.244-0.688-0.435-1.399-0.568-2.131l-3.585-0.603v-3.877l3.585-0.602c0.135-0.731,0.324-1.443,0.568-2.131l-2.802-2.313
										l1.938-3.355l3.408,1.271c0.478-0.559,0.998-1.079,1.557-1.557l-1.271-3.408l3.356-1.938l2.313,2.803
										c0.688-0.244,1.398-0.436,2.131-0.568l0.603-3.585h3.876l0.603,3.585c0.73,0.134,1.442,0.324,2.131,0.568l2.313-2.803
										l3.356,1.938l-1.271,3.408c0.56,0.478,1.079,0.998,1.558,1.557l3.408-1.271l1.938,3.355l-2.801,2.313
										c0.243,0.688,0.434,1.398,0.567,2.131l3.585,0.602v3.877l-3.585,0.603c-0.135,0.73-0.324,1.442-0.567,2.131
										L621.154,348.871z"/>
									<path stroke="#020202" stroke-miterlimit="10" d="M605.184,333.335c-4.724,0-8.555,3.83-8.555,8.555
										c0,4.724,3.831,8.555,8.555,8.555s8.555-3.831,8.555-8.555C613.739,337.165,609.906,333.335,605.184,333.335z
										 M605.184,349.378c-4.129,0-7.488-3.359-7.488-7.488s3.359-7.488,7.488-7.488s7.488,3.359,7.488,7.488
										S609.313,349.378,605.184,349.378z"/>
								</g>
								<g opacity="0.27">
									<path stroke="#020202" stroke-miterlimit="10" d="M605.396,41.76v-8.343l-5.519-0.927
										c-0.099-0.415-0.207-0.826-0.328-1.232l4.313-3.561l-4.171-7.224l-5.248,1.958c-0.29-0.309-0.591-0.608-0.897-0.898
										l1.959-5.248l-7.226-4.171l-3.561,4.314c-0.406-0.122-0.818-0.231-1.232-0.329l-0.928-5.52h-8.342l-0.928,5.52
										c-0.414,0.098-0.825,0.207-1.231,0.329l-3.562-4.314l-7.225,4.171l1.958,5.248c-0.308,0.291-0.606,0.591-0.897,0.898
										l-5.248-1.958l-4.172,7.224l4.314,3.562c-0.121,0.406-0.229,0.817-0.328,1.231l-5.519,0.927v8.343l5.519,0.928
										c0.099,0.415,0.207,0.826,0.328,1.231l-4.314,3.562l4.172,7.224l5.248-1.958c0.291,0.309,0.591,0.608,0.897,0.898
										l-1.958,5.248l7.225,4.171l3.562-4.314c0.406,0.121,0.817,0.231,1.231,0.329l0.928,5.52h8.342l0.928-5.52
										c0.414-0.098,0.826-0.208,1.232-0.329l3.561,4.314l7.226-4.171l-1.959-5.248c0.308-0.291,0.607-0.591,0.897-0.898
										l5.248,1.958l4.171-7.224l-4.313-3.562c0.121-0.405,0.229-0.816,0.328-1.231L605.396,41.76z M601.846,47.845L599,52.775
										l-5.007-1.868c-0.7,0.821-1.466,1.585-2.286,2.287l1.867,5.005l-4.93,2.847l-3.396-4.114
										c-1.009,0.357-2.054,0.637-3.128,0.834l-0.885,5.266h-5.692l-0.885-5.266c-1.074-0.198-2.119-0.478-3.129-0.834
										l-3.396,4.114l-4.931-2.847l1.867-5.005c-0.819-0.702-1.585-1.466-2.286-2.287l-5.005,1.868l-2.847-4.93l4.114-3.396
										c-0.357-1.009-0.638-2.054-0.834-3.129l-5.267-0.884v-5.693l5.267-0.885c0.196-1.074,0.477-2.12,0.834-3.128l-4.114-3.396
										l2.847-4.93l5.005,1.868c0.701-0.821,1.467-1.585,2.286-2.287l-1.867-5.005l4.931-2.848l3.396,4.115
										c1.009-0.357,2.055-0.637,3.129-0.834l0.885-5.266h5.692l0.885,5.266c1.074,0.197,2.119,0.478,3.128,0.834l3.396-4.115
										l4.93,2.848l-1.867,5.005c0.82,0.701,1.586,1.466,2.286,2.287L599,22.403l2.846,4.93l-4.114,3.396
										c0.357,1.009,0.637,2.054,0.834,3.128l5.266,0.885v5.693l-5.266,0.884c-0.197,1.075-0.477,2.12-0.834,3.129L601.846,47.845
										z"/>
									<path stroke="#020202" stroke-miterlimit="10" d="M578.39,25.025c-6.938,0-12.563,5.625-12.563,12.563
										c0,6.938,5.626,12.564,12.563,12.564s12.563-5.626,12.563-12.564C590.952,30.65,585.327,25.025,578.39,25.025z
										 M578.39,48.587c-6.064,0-10.998-4.934-10.998-10.998c0-6.063,4.934-10.998,10.998-10.998
										c6.063,0,10.998,4.935,10.998,10.998C589.388,43.653,584.453,48.587,578.39,48.587z"/>
								</g>
								<path opacity="0.27" stroke="#020202" stroke-miterlimit="10" enable-background="new    " d="M661.707,283.561v-9.377
									l-8.674-1.458c-0.324-1.771-0.785-3.491-1.374-5.153l6.777-5.595l-4.688-8.121l-8.244,3.077
									c-1.155-1.354-2.414-2.612-3.768-3.769l3.076-8.244l-8.121-4.688l-5.595,6.778c-1.661-0.591-3.384-1.051-5.153-1.375
									l-1.457-8.675h-9.378l-1.457,8.675c-1.77,0.324-3.492,0.784-5.153,1.375l-5.595-6.778l-8.121,4.688l3.076,8.244
									c-1.353,1.155-2.61,2.415-3.767,3.769l-8.245-3.077l-4.688,8.121l6.777,5.595c-0.589,1.662-1.049,3.384-1.374,5.153
									l-8.674,1.458v9.377l8.674,1.457c0.325,1.771,0.785,3.492,1.374,5.153l-6.777,5.596l4.688,8.121l8.245-3.077
									c1.154,1.353,2.414,2.611,3.767,3.767l-3.076,8.245l8.121,4.689l5.595-6.778c1.661,0.59,3.385,1.049,5.153,1.375
									l1.457,8.674h9.378l1.457-8.674c1.771-0.326,3.492-0.785,5.153-1.375l5.595,6.778l8.121-4.689l-3.076-8.245
									c1.354-1.154,2.611-2.414,3.768-3.767l8.244,3.077l4.688-8.121l-6.777-5.596c0.589-1.661,1.05-3.384,1.374-5.153
									L661.707,283.561z M631.565,278.872c0,6.498-5.269,11.769-11.768,11.769c-6.498,0-11.768-5.271-11.768-11.769
									s5.27-11.768,11.768-11.768C626.297,267.104,631.565,272.374,631.565,278.872z"/>
								<path opacity="0.27" stroke="#020202" stroke-miterlimit="10" enable-background="new    " d="M542.139,32.131v-3.548
									l-3.282-0.551c-0.123-0.669-0.297-1.321-0.521-1.95l2.563-2.117l-1.772-3.072l-3.12,1.164
									c-0.438-0.513-0.913-0.988-1.425-1.426l1.163-3.119l-3.071-1.774l-2.117,2.564c-0.629-0.224-1.28-0.397-1.95-0.521
									l-0.551-3.282h-3.548l-0.553,3.282c-0.67,0.123-1.32,0.297-1.949,0.521l-2.116-2.564l-3.073,1.774l1.164,3.119
									c-0.512,0.438-0.988,0.914-1.425,1.426l-3.12-1.164l-1.773,3.072l2.564,2.117c-0.224,0.628-0.397,1.28-0.521,1.95
									l-3.28,0.551v3.548l3.28,0.552c0.123,0.669,0.298,1.32,0.521,1.949l-2.564,2.117l1.773,3.073l3.12-1.164
									c0.437,0.511,0.913,0.988,1.425,1.425l-1.164,3.12l3.073,1.774l2.116-2.564c0.629,0.224,1.279,0.397,1.949,0.521
									l0.553,3.281h3.548l0.551-3.281c0.67-0.123,1.321-0.297,1.95-0.521l2.117,2.564l3.071-1.774l-1.163-3.12
									c0.512-0.437,0.987-0.914,1.425-1.425l3.12,1.164l1.772-3.073l-2.563-2.117c0.224-0.629,0.396-1.28,0.521-1.949
									L542.139,32.131z M530.733,30.357c0,2.458-1.993,4.452-4.452,4.452s-4.452-1.994-4.452-4.452
									c0-2.459,1.993-4.453,4.452-4.453S530.733,27.898,530.733,30.357z"/>
								<path opacity="0.27" stroke="#020202" stroke-miterlimit="10" enable-background="new    " d="M714.639,167.131v-3.548
									l-3.282-0.551c-0.123-0.669-0.297-1.321-0.521-1.95l2.563-2.117l-1.772-3.072l-3.12,1.164
									c-0.438-0.513-0.913-0.988-1.425-1.426l1.163-3.119l-3.071-1.774l-2.117,2.563c-0.629-0.223-1.28-0.396-1.95-0.52
									l-0.551-3.282h-3.548l-0.553,3.282c-0.67,0.123-1.32,0.297-1.949,0.52l-2.116-2.563l-3.073,1.774l1.164,3.119
									c-0.512,0.438-0.988,0.914-1.425,1.426l-3.12-1.164l-1.773,3.072l2.564,2.117c-0.224,0.628-0.397,1.28-0.521,1.95
									l-3.28,0.551v3.548l3.28,0.552c0.123,0.669,0.298,1.32,0.521,1.949l-2.564,2.117l1.773,3.073l3.12-1.164
									c0.437,0.511,0.913,0.988,1.425,1.425l-1.164,3.12l3.073,1.774l2.116-2.565c0.629,0.224,1.279,0.397,1.949,0.521
									l0.553,3.281h3.548l0.551-3.281c0.67-0.123,1.321-0.297,1.95-0.521l2.117,2.565l3.071-1.774l-1.163-3.12
									c0.512-0.437,0.987-0.914,1.425-1.425l3.12,1.164l1.772-3.073l-2.563-2.117c0.224-0.629,0.396-1.28,0.521-1.949
									L714.639,167.131z M703.233,165.357c0,2.458-1.993,4.452-4.452,4.452s-4.452-1.994-4.452-4.452
									c0-2.459,1.993-4.453,4.452-4.453S703.233,162.898,703.233,165.357z"/>
								<g opacity="0.55">
									<polygon stroke="#020202" stroke-miterlimit="10" points="663.346,213.031 648.842,216.007 648.842,209.439 
										663.346,206.463 									"/>
									<polygon stroke="#020202" stroke-miterlimit="10" points="663.346,223.419 648.842,226.395 648.842,219.827 
										663.346,216.851 									"/>
									<polygon opacity="0.65" stroke="#020202" stroke-miterlimit="10" enable-background="new    " points="663.346,233.741 
										648.842,236.717 648.842,230.149 663.346,227.173 									"/>
								</g>
								<g opacity="0.27">
									<polygon stroke="#020202" stroke-miterlimit="10" points="664.08,107.853 664.073,107.858 664.065,107.853 
										664.065,107.863 655.712,113.497 655.712,119.41 664.073,113.771 672.436,119.41 672.436,113.497 664.08,107.863 									
										"/>
									<polygon stroke="#020202" stroke-miterlimit="10" points="664.08,117.146 664.073,117.152 664.065,117.146 
										664.065,117.157 655.712,122.79 655.712,128.704 664.073,123.065 672.436,128.704 672.436,122.79 664.08,117.157 									
										"/>
									<polygon stroke="#020202" stroke-miterlimit="10" points="664.08,98.511 664.08,98.5 664.073,98.505 664.065,98.5 
										664.065,98.511 655.712,104.144 655.712,110.057 664.073,104.418 672.436,110.057 672.436,104.144 									"/>
								</g>
								<g>
									<polygon stroke="#020202" stroke-miterlimit="10" points="478.265,306.854 461.655,310.263 461.655,302.741 
										478.265,299.333 									"/>
									<polygon stroke="#020202" stroke-miterlimit="10" points="478.265,321.177 461.655,324.584 461.655,317.063 
										478.265,313.654 									"/>
								</g>
								<polygon opacity="0.78" stroke="#020202" stroke-miterlimit="10" enable-background="new    " points="467.912,43.387 
									456.442,43.387 450.706,53.321 456.442,63.255 467.912,63.255 473.648,53.321 								"/>
								<polygon opacity="0.71" stroke="#020202" stroke-miterlimit="10" enable-background="new    " points="554.912,301.332 
									541.567,301.332 534.896,312.89 541.567,324.446 554.912,324.446 561.585,312.89 								"/>
								<path opacity="0.93" stroke="#020202" stroke-miterlimit="10" enable-background="new    " d="M577.563,313.943h-13.345
									l-6.672,11.557l6.672,11.558h13.345l6.673-11.558L577.563,313.943z M576.328,334.922H565.45l-5.438-9.422l5.438-9.421
									h10.878l5.439,9.421L576.328,334.922z"/>
								<polygon opacity="0.48" stroke="#020202" stroke-miterlimit="10" enable-background="new    " points="554.585,326.957 
									545.545,326.957 541.024,334.787 545.545,342.616 554.585,342.616 559.105,334.787 								"/>
								<polygon opacity="0.65" stroke="#020202" stroke-miterlimit="10" enable-background="new    " points="420.526,78.068 
									411.758,78.068 407.373,85.661 411.758,93.255 420.526,93.255 424.909,85.661 								"/>
								<polygon stroke="#020202" stroke-miterlimit="10" points="436.524,69.012 427.756,69.012 423.371,76.606 427.756,84.199 
									436.524,84.199 440.907,76.606 								"/>
								<polygon opacity="0.63" stroke="#020202" stroke-miterlimit="10" enable-background="new    " points="465.789,24.41 
									457.232,24.41 452.953,31.821 457.232,39.231 465.789,39.231 470.068,31.821 								"/>
								<path opacity="0.48" stroke="#020202" stroke-miterlimit="10" enable-background="new    " d="M531.18,346.188v-5.359
									l-4.952-0.831c-0.187-1.013-0.451-1.996-0.788-2.947l3.871-3.195l-2.68-4.641l-4.708,1.757
									c-0.66-0.773-1.382-1.494-2.154-2.155l1.757-4.707l-4.642-2.68l-3.195,3.871c-0.95-0.337-1.935-0.604-2.947-0.788
									l-0.832-4.952h-5.357l-0.832,4.952c-1.014,0.186-1.997,0.451-2.947,0.788l-3.195-3.871l-4.641,2.68l1.756,4.707
									c-0.772,0.661-1.494,1.382-2.154,2.155l-4.708-1.757l-2.68,4.641l3.871,3.195c-0.337,0.951-0.604,1.936-0.788,2.947
									l-4.951,0.831v5.359l4.951,0.832c0.187,1.012,0.451,1.997,0.788,2.947l-3.871,3.194l2.68,4.642l4.708-1.757
									c0.66,0.772,1.382,1.493,2.154,2.154l-1.756,4.708l4.641,2.68l3.195-3.871c0.95,0.338,1.935,0.603,2.947,0.789l0.832,4.95
									h5.357l0.832-4.95c1.013-0.188,1.997-0.451,2.947-0.789l3.195,3.871l4.642-2.68l-1.757-4.708
									c0.772-0.661,1.494-1.382,2.154-2.154l4.708,1.757l2.68-4.642l-3.871-3.194c0.337-0.95,0.604-1.937,0.788-2.947
									L531.18,346.188z M507.23,352.576c-5.009,0-9.068-4.06-9.068-9.067c0-5.009,4.061-9.068,9.068-9.068
									s9.068,4.062,9.068,9.068C516.299,348.517,512.238,352.576,507.23,352.576z"/>
								<path opacity="0.48" stroke="#020202" stroke-miterlimit="10" enable-background="new    " d="M725.68,252.188v-5.359
									l-4.952-0.831c-0.187-1.013-0.451-1.997-0.788-2.948l3.871-3.194l-2.68-4.642l-4.708,1.758
									c-0.66-0.773-1.382-1.494-2.154-2.155l1.757-4.707l-4.642-2.68l-3.195,3.87c-0.95-0.337-1.935-0.603-2.947-0.787
									l-0.832-4.952h-5.357l-0.832,4.952c-1.014,0.186-1.997,0.45-2.947,0.787l-3.195-3.87l-4.641,2.68l1.756,4.707
									c-0.772,0.661-1.494,1.382-2.154,2.155l-4.708-1.758l-2.68,4.642l3.871,3.194c-0.337,0.951-0.604,1.937-0.788,2.948
									l-4.951,0.831v5.359l4.951,0.832c0.186,1.012,0.451,1.997,0.788,2.946l-3.871,3.195l2.68,4.642l4.708-1.758
									c0.66,0.773,1.382,1.494,2.154,2.155l-1.756,4.708l4.641,2.679l3.195-3.871c0.95,0.339,1.935,0.604,2.947,0.789l0.832,4.951
									h5.357l0.832-4.951c1.013-0.187,1.997-0.45,2.947-0.789l3.195,3.871l4.642-2.679l-1.757-4.708
									c0.772-0.661,1.494-1.382,2.154-2.155l4.708,1.758l2.68-4.642l-3.871-3.195c0.337-0.949,0.604-1.936,0.788-2.946
									L725.68,252.188z M701.73,258.576c-5.009,0-9.068-4.06-9.068-9.068c0-5.008,4.061-9.067,9.068-9.067
									s9.068,4.061,9.068,9.067C710.799,254.517,706.738,258.576,701.73,258.576z"/>
							</g>
							<g>
								<g opacity="0.93">
									<path stroke="#020202" stroke-miterlimit="10" d="M530.74,284.109c-56.456,0-102.387-45.93-102.387-102.386
										S474.283,79.337,530.74,79.337s102.388,45.931,102.388,102.387S587.196,284.109,530.74,284.109z M530.74,80.337
										c-55.903,0-101.387,45.481-101.387,101.387c0,55.903,45.482,101.386,101.387,101.386
										c55.905,0,101.388-45.481,101.388-101.386S586.646,80.337,530.74,80.337z"/>
									<path stroke="#020202" stroke-miterlimit="10" d="M530.74,294.613c-62.248,0-112.891-50.642-112.891-112.89
										S468.491,68.833,530.74,68.833S643.63,119.475,643.63,181.723S592.988,294.613,530.74,294.613z M530.74,69.833
										c-61.695,0-111.891,50.194-111.891,111.891c0,61.695,50.194,111.89,111.891,111.89c61.697,0,111.891-50.193,111.891-111.89
										C642.63,120.026,592.437,69.833,530.74,69.833z"/>
									<path stroke="#020202" stroke-miterlimit="10" d="M427.276,111.962l-0.829-0.56c21.443-31.74,55.543-51.787,93.558-55
										l0.084,0.996C482.377,60.587,448.549,80.475,427.276,111.962z"/>
									<path stroke="#020202" stroke-miterlimit="10" d="M530.74,273.996c-39.271,0-74.311-24.911-87.188-61.988l0.943-0.327
										c12.737,36.675,47.396,61.315,86.243,61.315L530.74,273.996L530.74,273.996z M566.018,267.012l-0.383-0.925
										c34.248-14.181,56.378-47.296,56.378-84.363c0-16.635-4.518-32.914-13.063-47.08l0.855-0.518
										c8.641,14.322,13.207,30.78,13.207,47.597C623.013,219.198,600.641,252.676,566.018,267.012z M439.468,181.724h-1
										c0-50.879,41.394-92.272,92.271-92.272c7.811,0,15.568,0.979,23.062,2.905l-0.25,0.969
										c-7.41-1.907-15.085-2.874-22.812-2.874C480.411,90.451,439.468,131.396,439.468,181.724z"/>
									<circle stroke="#020202" stroke-miterlimit="10" cx="425.013" cy="114.5" r="4.094"/>
									<circle stroke="#020202" stroke-miterlimit="10" cx="520.013" cy="57" r="4.094"/>
									<circle stroke="#020202" stroke-miterlimit="10" cx="621.919" cy="177.5" r="4.094"/>
									<circle stroke="#020202" stroke-miterlimit="10" cx="510.669" cy="292.75" r="4.094"/>
									<circle stroke="#020202" stroke-miterlimit="10" cx="419.585" cy="164.5" r="3.315"/>
									<circle stroke="#020202" stroke-miterlimit="10" cx="439.322" cy="181.75" r="3.315"/>
									<circle stroke="#020202" stroke-miterlimit="10" cx="533.179" cy="79.76" r="3.101"/>
								</g>
								<g>
									<path stroke="#020202" stroke-miterlimit="10" d="M599.845,187.336v-15.463l-14.287-2.399
										c-0.537-2.921-1.303-5.763-2.275-8.505l11.17-9.221l-7.73-13.391l-13.584,5.068c-1.906-2.231-3.985-4.312-6.218-6.218
										l5.068-13.583l-13.392-7.73l-9.221,11.17c-2.742-0.974-5.584-1.738-8.505-2.275l-2.399-14.288h-15.463l-2.4,14.288
										c-2.921,0.537-5.762,1.302-8.505,2.275l-9.221-11.17l-13.392,7.73l5.069,13.583c-2.232,1.907-4.313,3.986-6.219,6.218
										l-13.583-5.068l-7.731,13.391l11.17,9.221c-0.974,2.742-1.738,5.584-2.275,8.505l-14.286,2.399v15.463l14.286,2.4
										c0.537,2.921,1.303,5.762,2.275,8.505l-11.17,9.22l7.731,13.393l13.583-5.069c1.906,2.232,3.985,4.313,6.219,6.219
										l-5.069,13.583l13.392,7.731l9.221-11.17c2.743,0.973,5.584,1.738,8.505,2.274l2.4,14.287h15.463l2.399-14.287
										c2.921-0.536,5.763-1.303,8.505-2.274l9.221,11.17l13.392-7.731l-5.068-13.583c2.231-1.906,4.312-3.985,6.218-6.219
										l13.584,5.069l7.73-13.393l-11.17-9.22c0.974-2.743,1.738-5.584,2.275-8.505L599.845,187.336z M571.406,179.604
										c0,22.457-18.209,40.667-40.666,40.667s-40.666-18.21-40.666-40.667s18.209-40.667,40.666-40.667
										S571.406,157.147,571.406,179.604z"/>
									<path opacity="0.2" stroke="#020202" stroke-miterlimit="10" enable-background="new    " d="M530.513,60.5
										c-65.998,0-119.5,53.502-119.5,119.5s53.502,119.5,119.5,119.5s119.5-53.502,119.5-119.5S596.511,60.5,530.513,60.5z
										 M530.513,283.973c-57.423,0-103.975-46.551-103.975-103.974S473.09,76.027,530.513,76.027S634.485,122.577,634.485,180
										S587.936,283.973,530.513,283.973z"/>
									<path opacity="0.17" stroke="#020202" stroke-miterlimit="10" enable-background="new    " d="M530.513,84.623
										c-52.676,0-95.377,42.702-95.377,95.377s42.701,95.377,95.377,95.377c52.675,0,95.377-42.702,95.377-95.377
										S583.188,84.623,530.513,84.623z M530.513,262.984c-45.831,0-82.984-37.153-82.984-82.984s37.153-82.983,82.984-82.983
										s82.983,37.152,82.983,82.983S576.344,262.984,530.513,262.984z"/>
									<path stroke="#020202" stroke-miterlimit="10" d="M530.741,165.5c-7.79,0-14.108,6.32-14.108,14.101
										c0,7.79,6.318,14.109,14.108,14.109s14.102-6.319,14.102-14.109C544.843,171.82,538.531,165.5,530.741,165.5z
										 M530.741,190.931c-6.255,0-11.329-5.075-11.329-11.33c0-6.247,5.074-11.321,11.329-11.321s11.321,5.074,11.321,11.321
										C542.063,185.855,536.996,190.931,530.741,190.931z"/>
									<path stroke="#020202" stroke-miterlimit="10" d="M530.741,165.5c-7.79,0-14.108,6.32-14.108,14.101
										c0,7.79,6.318,14.109,14.108,14.109s14.102-6.319,14.102-14.109C544.843,171.82,538.531,165.5,530.741,165.5z
										 M530.741,190.931c-6.255,0-11.329-5.075-11.329-11.33c0-6.247,5.074-11.321,11.329-11.321s11.321,5.074,11.321,11.321
										C542.063,185.855,536.996,190.931,530.741,190.931z"/>
									<path stroke="#020202" stroke-miterlimit="10" d="M530.741,165.5c-7.79,0-14.108,6.32-14.108,14.101
										c0,7.79,6.318,14.109,14.108,14.109s14.102-6.319,14.102-14.109C544.843,171.82,538.531,165.5,530.741,165.5z
										 M530.741,190.931c-6.255,0-11.329-5.075-11.329-11.33c0-6.247,5.074-11.321,11.329-11.321s11.321,5.074,11.321,11.321
										C542.063,185.855,536.996,190.931,530.741,190.931z"/>
									<path stroke="#020202" stroke-miterlimit="10" d="M530.741,160.17c-10.738,0-19.438,8.7-19.438,19.431
										c0,10.739,8.7,19.439,19.438,19.439c10.73,0,19.44-8.7,19.44-19.439C550.183,168.87,541.473,160.17,530.741,160.17z
										 M530.741,193.71c-7.79,0-14.108-6.319-14.108-14.109c0-7.78,6.318-14.101,14.108-14.101s14.102,6.32,14.102,14.101
										C544.843,187.39,538.531,193.71,530.741,193.71z"/>
									<path stroke="#020202" stroke-miterlimit="10" d="M530.741,164c-8.623,0-15.607,6.985-15.607,15.602
										c0,8.624,6.984,15.608,15.607,15.608c8.616,0,15.609-6.984,15.609-15.608C546.352,170.985,539.358,164,530.741,164z
										 M530.741,190.931c-6.255,0-11.329-5.075-11.329-11.33c0-6.247,5.074-11.321,11.329-11.321s11.321,5.074,11.321,11.321
										C542.063,185.855,536.996,190.931,530.741,190.931z"/>
									<path stroke="#020202" stroke-miterlimit="10" d="M530.741,169.248c-5.72,0-10.36,4.642-10.36,10.354
										c0,5.72,4.642,10.359,10.36,10.359c5.722,0,10.354-4.641,10.354-10.359C541.096,173.889,536.463,169.248,530.741,169.248z"
										/>
									<path stroke="#020202" stroke-miterlimit="10" d="M530.741,170.417c-5.075,0-9.19,4.117-9.19,9.186
										c0,5.075,4.116,9.19,9.19,9.19s9.186-4.115,9.186-9.19C539.927,174.534,535.816,170.417,530.741,170.417z"/>
									<path opacity="0.51" stroke="#020202" stroke-miterlimit="10" enable-background="new    " d="M530.74,143.014
										c-20.206,0-36.591,16.384-36.591,36.59s16.385,36.591,36.591,36.591s36.59-16.385,36.59-36.591
										S550.946,143.014,530.74,143.014z M530.74,214.754c-19.41,0-35.149-15.738-35.149-35.148
										c0-19.411,15.739-35.15,35.149-35.15s35.149,15.739,35.149,35.15C565.89,199.015,550.15,214.754,530.74,214.754z"/>
									<path stroke="#020202" stroke-miterlimit="10" d="M530.74,145.384c-18.896,0-34.221,15.323-34.221,34.221
										c0,18.896,15.323,34.221,34.221,34.221c18.898,0,34.222-15.323,34.222-34.221
										C564.961,160.706,549.638,145.384,530.74,145.384z M530.74,213.291c-18.603,0-33.687-15.084-33.687-33.687
										c0-18.604,15.084-33.688,33.687-33.688c18.604,0,33.688,15.084,33.688,33.688
										C564.427,198.207,549.343,213.291,530.74,213.291z"/>
									<path stroke="#020202" stroke-miterlimit="10" d="M530.74,152.873c-14.762,0-26.731,11.971-26.731,26.732
										s11.971,26.73,26.731,26.73s26.731-11.97,26.731-26.73S545.502,152.873,530.74,152.873z M530.74,205.768
										c-14.448,0-26.163-11.715-26.163-26.163s11.715-26.163,26.163-26.163s26.163,11.715,26.163,26.163
										S545.188,205.768,530.74,205.768z"/>
									<path opacity="0.43" stroke="#020202" stroke-miterlimit="10" enable-background="new    " d="M530.74,154.579
										c-13.818,0-25.024,11.206-25.024,25.025c0,13.818,11.206,25.024,25.024,25.024c13.819,0,25.025-11.206,25.025-25.024
										C555.766,165.785,544.56,154.579,530.74,154.579z M530.74,204.098c-13.524,0-24.493-10.969-24.493-24.493
										c0-13.525,10.969-24.493,24.493-24.493c13.525,0,24.493,10.968,24.493,24.493
										C555.233,193.13,544.266,204.098,530.74,204.098z"/>
									<path stroke="#020202" stroke-miterlimit="10" d="M530.74,157.067c-12.444,0-22.537,10.092-22.537,22.537
										c0,12.444,10.093,22.537,22.537,22.537c12.445,0,22.537-10.093,22.537-22.537
										C553.277,167.159,543.186,157.067,530.74,157.067z M530.74,201.662c-12.181,0-22.058-9.877-22.058-22.058
										c0-12.182,9.877-22.059,22.058-22.059c12.182,0,22.059,9.877,22.059,22.059
										C552.798,191.785,542.921,201.662,530.74,201.662z"/>
									<g opacity="0.91">
										<g>
											<path stroke="#020202" stroke-miterlimit="10" d="M529.463,146.665v4.164h2.555v-4.164H529.463z M531.563,150.374h-1.646
												v-3.255h1.646V150.374z"/>
											<path stroke="#020202" stroke-miterlimit="10" d="M532.018,212.545v-4.164h-2.555v4.164H532.018z M529.916,208.835h1.646
												v3.256h-1.646V208.835z"/>
										</g>
										<g>
											<path stroke="#020202" stroke-miterlimit="10" d="M525.174,147.113l0.544,4.128l2.533-0.333l-0.544-4.128
												L525.174,147.113z M527.74,150.517l-1.633,0.215l-0.425-3.228l1.633-0.215L527.74,150.517z"/>
											<path stroke="#020202" stroke-miterlimit="10" d="M536.307,212.096l-0.544-4.129l-2.533,0.335l0.544,4.128
												L536.307,212.096z M533.739,208.692l1.633-0.215l0.426,3.228l-1.634,0.215L533.739,208.692z"/>
										</g>
										<g>
											<path stroke="#020202" stroke-miterlimit="10" d="M520.98,148.118l1.078,4.022l2.468-0.662l-1.078-4.022L520.98,148.118z
												 M523.97,151.157l-1.591,0.426l-0.843-3.144l1.591-0.426L523.97,151.157z"/>
											<path stroke="#020202" stroke-miterlimit="10" d="M540.5,211.092l-1.078-4.021l-2.469,0.662l1.077,4.021L540.5,211.092z
												 M537.51,208.052l1.591-0.427l0.843,3.146l-1.591,0.426L537.51,208.052z"/>
										</g>
										<g>
											<path stroke="#020202" stroke-miterlimit="10" d="M516.953,149.661l1.595,3.847l2.359-0.978l-1.594-3.847
												L516.953,149.661z M520.314,152.284l-1.521,0.63l-1.245-3.007l1.521-0.63L520.314,152.284z"/>
											<path stroke="#020202" stroke-miterlimit="10" d="M544.526,209.548l-1.594-3.847l-2.36,0.979l1.595,3.847
												L544.526,209.548z M541.164,206.925l1.521-0.63l1.246,3.009l-1.521,0.63L541.164,206.925z"/>
										</g>
										<g>
											<path stroke="#020202" stroke-miterlimit="10" d="M513.163,151.716l2.082,3.606l2.212-1.277l-2.08-3.605L513.163,151.716
												z M516.838,153.878l-1.427,0.824l-1.628-2.819l1.427-0.823L516.838,153.878z"/>
											<path stroke="#020202" stroke-miterlimit="10" d="M548.316,207.493l-2.082-3.605l-2.213,1.276l2.082,3.606
												L548.316,207.493z M544.643,205.331l1.426-0.824l1.628,2.819l-1.427,0.823L544.643,205.331z"/>
										</g>
										<g>
											<path stroke="#020202" stroke-miterlimit="10" d="M509.674,154.249l2.535,3.305l2.025-1.557l-2.534-3.303
												L509.674,154.249z M513.599,155.913l-1.306,1.002l-1.982-2.583l1.307-1.002L513.599,155.913z"/>
											<path stroke="#020202" stroke-miterlimit="10" d="M551.807,204.96l-2.535-3.304l-2.027,1.556l2.535,3.305L551.807,204.96
												z M547.881,203.296l1.307-1.003l1.982,2.583l-1.308,1.003L547.881,203.296z"/>
										</g>
										<g>
											<path stroke="#020202" stroke-miterlimit="10" d="M506.545,157.216l2.943,2.944l1.808-1.807l-2.944-2.944
												L506.545,157.216z M510.653,158.354l-1.164,1.164l-2.302-2.303l1.164-1.164L510.653,158.354z"/>
											<path stroke="#020202" stroke-miterlimit="10" d="M554.936,201.993l-2.944-2.944l-1.807,1.808l2.944,2.943
												L554.936,201.993z M550.826,200.855l1.164-1.164l2.303,2.302l-1.164,1.165L550.826,200.855z"/>
										</g>
										<g>
											<path stroke="#020202" stroke-miterlimit="10" d="M503.828,160.565l3.305,2.535l1.556-2.027l-3.304-2.535
												L503.828,160.565z M508.051,161.157l-1.002,1.307l-2.583-1.981l1.003-1.306L508.051,161.157z"/>
											<path stroke="#020202" stroke-miterlimit="10" d="M557.651,198.644l-3.304-2.534l-1.557,2.026l3.305,2.534
												L557.651,198.644z M553.429,198.052l1.003-1.307l2.582,1.981l-1.002,1.307L553.429,198.052z"/>
										</g>
										<g>
											<path stroke="#020202" stroke-miterlimit="10" d="M501.573,164.241l3.606,2.082l1.277-2.213l-3.606-2.082
												L501.573,164.241z M505.838,164.276l-0.824,1.426l-2.818-1.627l0.823-1.426L505.838,164.276z"/>
											<path stroke="#020202" stroke-miterlimit="10" d="M559.906,194.969l-3.605-2.081l-1.277,2.212l3.605,2.082
												L559.906,194.969z M555.643,194.933l0.823-1.427l2.818,1.629l-0.822,1.426L555.643,194.933z"/>
										</g>
										<g>
											<path stroke="#020202" stroke-miterlimit="10" d="M499.818,168.179l3.847,1.593l0.979-2.36l-3.847-1.593L499.818,168.179
												z M504.05,167.658l-0.63,1.521l-3.009-1.246l0.63-1.521L504.05,167.658z"/>
											<path stroke="#020202" stroke-miterlimit="10" d="M561.661,191.03l-3.848-1.594l-0.978,2.359l3.847,1.595L561.661,191.03
												z M557.431,191.552l0.63-1.521l3.008,1.245l-0.63,1.521L557.431,191.552z"/>
										</g>
										<g>
											<path stroke="#020202" stroke-miterlimit="10" d="M498.592,172.313l4.021,1.078l0.662-2.469l-4.021-1.077
												L498.592,172.313z M502.719,171.244l-0.426,1.591l-3.146-0.842l0.426-1.591L502.719,171.244z"/>
											<path stroke="#020202" stroke-miterlimit="10" d="M562.889,186.896l-4.022-1.078l-0.661,2.468l4.022,1.078
												L562.889,186.896z M558.762,187.965l0.426-1.59l3.146,0.842l-0.427,1.592L558.762,187.965z"/>
										</g>
										<g>
											<path stroke="#020202" stroke-miterlimit="10" d="M497.914,176.572l4.129,0.543l0.334-2.533l-4.129-0.543
												L497.914,176.572z M501.866,174.973l-0.215,1.633l-3.228-0.425l0.215-1.634L501.866,174.973z"/>
											<path stroke="#020202" stroke-miterlimit="10" d="M563.565,182.638l-4.128-0.544l-0.334,2.532l4.128,0.544
												L563.565,182.638z M559.613,184.236l0.215-1.633l3.229,0.425l-0.215,1.633L559.613,184.236z"/>
										</g>
										<g>
											<path stroke="#020202" stroke-miterlimit="10" d="M497.8,180.882h4.164v-2.555H497.8V180.882z M501.51,178.781v1.646
												h-3.256v-1.646H501.51z"/>
											<path stroke="#020202" stroke-miterlimit="10" d="M563.68,178.327h-4.163v2.555h4.163V178.327z M559.971,180.428v-1.646
												h3.256v1.646H559.971z"/>
										</g>
										<g>
											<path stroke="#020202" stroke-miterlimit="10" d="M498.247,185.171l4.13-0.544l-0.334-2.532l-4.129,0.544
												L498.247,185.171z M501.652,182.604l0.215,1.633l-3.228,0.425l-0.215-1.633L501.652,182.604z"/>
											<path stroke="#020202" stroke-miterlimit="10" d="M563.231,174.039l-4.128,0.543l0.334,2.533l4.128-0.543
												L563.231,174.039z M559.827,176.605l-0.215-1.633l3.229-0.426l0.215,1.634L559.827,176.605z"/>
										</g>
										<g>
											<path stroke="#020202" stroke-miterlimit="10" d="M499.253,189.364l4.021-1.078l-0.662-2.468l-4.021,1.078
												L499.253,189.364z M502.293,186.375l0.426,1.59l-3.146,0.844l-0.426-1.592L502.293,186.375z"/>
											<path stroke="#020202" stroke-miterlimit="10" d="M562.228,169.845l-4.022,1.077l0.661,2.469l4.022-1.078
												L562.228,169.845z M559.188,172.834l-0.426-1.591l3.145-0.842l0.426,1.591L559.188,172.834z"/>
										</g>
										<g>
											<path stroke="#020202" stroke-miterlimit="10" d="M500.797,193.391l3.847-1.595l-0.979-2.359l-3.847,1.594
												L500.797,193.391z M503.42,190.03l0.63,1.521l-3.009,1.245l-0.63-1.521L503.42,190.03z"/>
											<path stroke="#020202" stroke-miterlimit="10" d="M560.684,165.819l-3.847,1.593l0.978,2.36l3.848-1.593L560.684,165.819
												z M558.061,169.179l-0.63-1.521l3.008-1.246l0.63,1.521L558.061,169.179z"/>
										</g>
										<g>
											<path stroke="#020202" stroke-miterlimit="10" d="M502.852,197.181l3.605-2.082l-1.276-2.212l-3.606,2.08
												L502.852,197.181z M505.014,193.507l0.824,1.427l-2.819,1.628l-0.823-1.426L505.014,193.507z"/>
											<path stroke="#020202" stroke-miterlimit="10" d="M558.628,162.028l-3.605,2.082l1.277,2.213l3.605-2.082
												L558.628,162.028z M556.466,165.702l-0.823-1.426l2.819-1.628l0.822,1.426L556.466,165.702z"/>
										</g>
										<g>
											<path stroke="#020202" stroke-miterlimit="10" d="M505.385,200.671l3.304-2.534l-1.556-2.026l-3.305,2.534
												L505.385,200.671z M507.049,196.746l1.002,1.307l-2.582,1.981l-1.003-1.307L507.049,196.746z"/>
											<path stroke="#020202" stroke-miterlimit="10" d="M556.096,158.539l-3.305,2.535l1.557,2.027l3.304-2.535
												L556.096,158.539z M554.432,162.463l-1.003-1.307l2.583-1.981l1.002,1.307L554.432,162.463z"/>
										</g>
										<g>
											<path stroke="#020202" stroke-miterlimit="10" d="M508.352,203.8l2.944-2.943l-1.808-1.808l-2.943,2.944L508.352,203.8z
												 M509.489,199.691l1.164,1.164l-2.302,2.303l-1.164-1.165L509.489,199.691z"/>
											<path stroke="#020202" stroke-miterlimit="10" d="M553.129,155.409l-2.944,2.944l1.807,1.807l2.944-2.944
												L553.129,155.409z M551.99,159.518l-1.164-1.164l2.303-2.302l1.164,1.164L551.99,159.518z"/>
										</g>
										<g>
											<path stroke="#020202" stroke-miterlimit="10" d="M511.7,206.516l2.534-3.305l-2.025-1.556l-2.535,3.304L511.7,206.516z
												 M512.293,202.293l1.306,1.003l-1.981,2.583l-1.307-1.003L512.293,202.293z"/>
											<path stroke="#020202" stroke-miterlimit="10" d="M549.779,152.694l-2.535,3.303l2.027,1.557l2.535-3.305
												L549.779,152.694z M549.188,156.916l-1.307-1.002l1.981-2.583l1.308,1.002L549.188,156.916z"/>
										</g>
										<g>
											<path stroke="#020202" stroke-miterlimit="10" d="M515.377,208.771l2.08-3.606l-2.212-1.276l-2.081,3.605
												L515.377,208.771z M515.411,204.507l1.427,0.824l-1.628,2.818l-1.427-0.823L515.411,204.507z"/>
											<path stroke="#020202" stroke-miterlimit="10" d="M546.104,150.439l-2.082,3.605l2.213,1.277l2.082-3.606
												L546.104,150.439z M546.068,154.702l-1.426-0.824l1.627-2.818l1.427,0.823L546.068,154.702z"/>
										</g>
										<g>
											<path stroke="#020202" stroke-miterlimit="10" d="M519.314,210.526l1.594-3.847l-2.359-0.979l-1.595,3.847
												L519.314,210.526z M518.793,206.295l1.521,0.63l-1.245,3.009l-1.521-0.63L518.793,206.295z"/>
											<path stroke="#020202" stroke-miterlimit="10" d="M542.166,148.683l-1.595,3.847l2.36,0.978l1.594-3.847L542.166,148.683
												z M542.687,152.914l-1.521-0.63l1.245-3.008l1.521,0.63L542.687,152.914z"/>
										</g>
										<g>
											<path stroke="#020202" stroke-miterlimit="10" d="M523.448,211.753l1.078-4.021l-2.468-0.662l-1.078,4.021
												L523.448,211.753z M522.379,207.626l1.591,0.427l-0.843,3.145l-1.591-0.426L522.379,207.626z"/>
											<path stroke="#020202" stroke-miterlimit="10" d="M538.031,147.456l-1.077,4.022l2.469,0.662l1.078-4.022
												L538.031,147.456z M539.101,151.583l-1.591-0.426l0.843-3.145l1.591,0.426L539.101,151.583z"/>
										</g>
										<g>
											<path stroke="#020202" stroke-miterlimit="10" d="M527.706,212.43l0.544-4.128l-2.532-0.335l-0.544,4.129L527.706,212.43
												z M526.108,208.478l1.633,0.215l-0.425,3.228l-1.633-0.215L526.108,208.478z"/>
											<path stroke="#020202" stroke-miterlimit="10" d="M533.773,146.78l-0.544,4.128l2.533,0.333l0.544-4.128L533.773,146.78z
												 M535.371,150.731l-1.633-0.215l0.425-3.229l1.634,0.215L535.371,150.731z"/>
										</g>
									</g>
									<path opacity="0.38" stroke="#020202" stroke-miterlimit="10" enable-background="new    " d="M531.982,147.896
										c16.826,0.5,30.377,14.048,30.877,30.874c0.014,0.32,0.019,0.645,0.019,0.97c0,0.324-0.005,0.648-0.019,0.97
										c-0.5,16.825-14.051,30.373-30.877,30.873c-0.321,0.016-0.643,0.019-0.967,0.019s-0.648-0.003-0.97-0.019
										c-16.829-0.5-30.377-14.048-30.877-30.873h-5.295c0.505,19.748,16.42,35.667,36.172,36.171
										c0.32,0.011,0.646,0.015,0.97,0.015s0.646-0.004,0.967-0.015c19.748-0.504,35.667-16.423,36.17-36.171
										c0.011-0.32,0.015-0.646,0.015-0.97c0-0.325-0.004-0.649-0.015-0.97c-0.503-19.749-16.422-35.667-36.17-36.17V147.896z"/>
									<path stroke="#020202" stroke-miterlimit="10" d="M576.193,166.587c-1.054-3.938-2.619-7.667-4.615-11.115
										c-2.022-3.498-4.482-6.714-7.321-9.553c-2.84-2.839-6.055-5.298-9.552-7.321c-3.448-1.996-7.178-3.562-11.115-4.614
										c-3.809-1.019-7.807-1.569-11.936-1.569c-4.128,0-8.126,0.551-11.934,1.569c-3.939,1.053-7.667,2.618-11.116,4.614
										c-3.498,2.023-6.712,4.482-9.552,7.321c-2.839,2.839-5.298,6.055-7.322,9.553c-1.996,3.448-3.562,7.177-4.614,11.115
										l3.007,0.807c0.982-3.673,2.441-7.149,4.304-10.365c1.888-3.262,4.181-6.26,6.828-8.907
										c2.646-2.646,5.645-4.94,8.905-6.828c3.217-1.86,6.692-3.32,10.366-4.303c3.551-0.949,7.278-1.463,11.128-1.463
										c3.851,0,7.578,0.514,11.129,1.463c3.673,0.982,7.149,2.441,10.365,4.303c3.262,1.888,6.26,4.182,8.907,6.828
										c2.646,2.647,4.939,5.646,6.828,8.907c1.859,3.216,3.319,6.692,4.302,10.365c0.95,3.551,1.464,7.278,1.464,11.128
										s-0.514,7.578-1.464,11.128c-0.981,3.674-2.441,7.148-4.302,10.365c-1.889,3.263-4.183,6.26-6.829,8.906
										c-2.646,2.647-5.646,4.94-8.906,6.828c-3.216,1.861-6.692,3.32-10.365,4.304c-3.551,0.948-7.278,1.463-11.129,1.463v3.111
										c4.129,0,8.127-0.551,11.936-1.567c3.938-1.055,7.667-2.618,11.115-4.614c3.497-2.024,6.712-4.483,9.552-7.322
										c2.839-2.84,5.299-6.054,7.321-9.552c1.996-3.449,3.563-7.177,4.615-11.116c1.019-3.808,1.568-7.806,1.568-11.934
										C577.762,174.393,577.211,170.395,576.193,166.587z"/>
									<g>
										<g>
											
												<rect x="455.25" y="197.293" transform="matrix(0.2587 0.966 -0.966 0.2587 532.7473 -294.1189)" stroke="#020202" stroke-miterlimit="10" width="5.511" height="5.512"/>
										</g>
										<g>
											
												<rect x="458.475" y="206.922" transform="matrix(0.3827 0.9239 -0.9239 0.3827 478.4177 -296.6846)" stroke="#020202" stroke-miterlimit="10" width="5.511" height="5.511"/>
										</g>
										<g>
											
												<rect x="462.956" y="215.984" transform="matrix(0.5001 0.866 -0.866 0.5001 422.2513 -293.9451)" stroke="#020202" stroke-miterlimit="10" width="5.511" height="5.511"/>
										</g>
										<g>
											
												<rect x="468.587" y="224.395" transform="matrix(0.6088 0.7934 -0.7934 0.6088 364.6242 -285.0726)" stroke="#020202" stroke-miterlimit="10" width="5.512" height="5.511"/>
										</g>
										
											<rect x="475.285" y="232.05" transform="matrix(0.7071 0.7071 -0.7071 0.7071 306.0471 -269.2531)" stroke="#020202" stroke-miterlimit="10" width="5.512" height="5.51"/>
										
											<rect x="482.896" y="238.695" transform="matrix(0.7934 0.6088 -0.6088 0.7934 247.3378 -245.748)" stroke="#020202" stroke-miterlimit="10" width="5.512" height="5.511"/>
										
											<rect x="491.335" y="244.337" transform="matrix(0.866 0.5001 -0.5001 0.866 189.7766 -213.9637)" stroke="#020202" stroke-miterlimit="10" width="5.511" height="5.511"/>
										
											<rect x="500.395" y="248.845" transform="matrix(0.9239 0.3826 -0.3826 0.9239 134.5342 -173.3526)" stroke="#020202" stroke-miterlimit="10" width="5.511" height="5.511"/>
										
											<rect x="509.988" y="252.096" transform="matrix(0.966 0.2587 -0.2587 0.966 83.3764 -123.961)" stroke="#020202" stroke-miterlimit="10" width="5.512" height="5.513"/>
									</g>
									<g>
										<g>
											<rect x="530.072" y="99.775" stroke="#020202" stroke-miterlimit="10" width="5.511" height="5.511"/>
										</g>
										<g>
											
												<rect x="519.932" y="100.438" transform="matrix(-0.9915 0.1304 -0.1304 -0.9915 1054.3696 137.3356)" stroke="#020202" stroke-miterlimit="10" width="5.511" height="5.511"/>
										</g>
										<path stroke="#020202" stroke-miterlimit="10" d="M587.615,129.652l-4.427-4.427l4.427-4.428l4.429,4.428L587.615,129.652
											z M584.248,125.225l3.366,3.366l3.367-3.366l-3.367-3.367L584.248,125.225z"/>
										<path stroke="#020202" stroke-miterlimit="10" d="M580.573,122.932l-4.967-3.813l3.813-4.968l4.967,3.812L580.573,122.932
											z M576.656,118.981l3.777,2.897l2.898-3.776l-3.776-2.898L576.656,118.981z"/>
										<path stroke="#020202" stroke-miterlimit="10" d="M572.715,117.188l-5.423-3.13l3.13-5.422l5.424,3.13L572.715,117.188z
											 M568.317,113.783l4.122,2.38l2.381-4.124l-4.123-2.38L568.317,113.783z"/>
										<path stroke="#020202" stroke-miterlimit="10" d="M564.173,112.519l-5.785-2.396l2.396-5.785l5.785,2.396L564.173,112.519
											z M559.367,109.717l4.398,1.822l1.822-4.398l-4.398-1.822L559.367,109.717z"/>
										<path stroke="#020202" stroke-miterlimit="10" d="M555.096,109.005l-6.048-1.621l1.619-6.048l6.049,1.621L555.096,109.005
											z M549.966,106.854l4.599,1.231l1.233-4.599l-4.601-1.232L549.966,106.854z"/>
										<path stroke="#020202" stroke-miterlimit="10" d="M545.637,106.706l-6.208-0.816l0.815-6.208l6.209,0.817L545.637,106.706
											z M540.271,105.243l4.72,0.621l0.622-4.72l-4.721-0.622L540.271,105.243z"/>
									</g>
									<g opacity="0.66">
										<path opacity="0.93" stroke="#020202" stroke-miterlimit="10" enable-background="new    " d="M530.045,229.361v-14.25
											c-6.25-0.064-12.108-1.757-17.173-4.677l-7.126,12.343C512.906,226.91,521.198,229.296,530.045,229.361z"/>
										<path opacity="0.93" stroke="#020202" stroke-miterlimit="10" enable-background="new    " d="M547.963,210.435
											c-5.063,2.92-10.922,4.611-17.172,4.677v14.25c8.846-0.065,17.139-2.451,24.298-6.584L547.963,210.435z"/>
										<path opacity="0.93" stroke="#020202" stroke-miterlimit="10" enable-background="new    " d="M513.431,149.129
											c4.934-2.727,10.593-4.301,16.614-4.363v-14.25c-8.618,0.063-16.709,2.333-23.741,6.271L513.431,149.129z"/>
										<path opacity="0.93" stroke="#020202" stroke-miterlimit="10" enable-background="new    " d="M481.003,178.926h14.253
											c0.172-6.093,1.895-11.797,4.785-16.733l-12.344-7.126C483.594,162.1,481.178,170.237,481.003,178.926z"/>
										<path opacity="0.93" stroke="#020202" stroke-miterlimit="10" enable-background="new    " d="M530.791,130.515v14.25
											c6.021,0.063,11.681,1.637,16.613,4.363l7.127-12.344C547.5,132.848,539.407,130.579,530.791,130.515z"/>
										<path opacity="0.93" stroke="#020202" stroke-miterlimit="10" enable-background="new    " d="M573.138,155.066
											l-12.343,7.126c2.891,4.938,4.612,10.642,4.784,16.733h14.253C579.657,170.237,577.241,162.1,573.138,155.066z"/>
										<path opacity="0.93" stroke="#020202" stroke-miterlimit="10" enable-background="new    " d="M560.977,197.374
											c-2.977,5.206-7.246,9.579-12.371,12.682l7.126,12.343c7.287-4.354,13.36-10.527,17.589-17.897L560.977,197.374z"/>
										<path opacity="0.93" stroke="#020202" stroke-miterlimit="10" enable-background="new    " d="M565.592,179.673
											c0.001,0.09,0.004,0.178,0.004,0.267c0,6.078-1.541,11.795-4.255,16.783l12.344,7.127
											c3.925-7.086,6.161-15.236,6.161-23.91c0-0.089-0.003-0.177-0.003-0.267H565.592z"/>
										<path opacity="0.93" stroke="#020202" stroke-miterlimit="10" enable-background="new    " d="M512.23,210.055
											c-5.125-3.103-9.396-7.476-12.371-12.682l-12.344,7.126c4.228,7.37,10.302,13.544,17.589,17.897L512.23,210.055z"/>
										<path opacity="0.93" stroke="#020202" stroke-miterlimit="10" enable-background="new    " d="M548.056,149.497
											c5.05,2.934,9.303,7.085,12.355,12.056l12.347-7.129c-4.308-7.131-10.363-13.085-17.576-17.269L548.056,149.497z"/>
										<path opacity="0.93" stroke="#020202" stroke-miterlimit="10" enable-background="new    " d="M500.424,161.551
											c3.054-4.969,7.307-9.121,12.355-12.055l-7.126-12.342c-7.213,4.184-13.27,10.138-17.576,17.269L500.424,161.551z"/>
										<path opacity="0.93" stroke="#020202" stroke-miterlimit="10" enable-background="new    " d="M499.493,196.722
											c-2.713-4.988-4.254-10.705-4.254-16.783c0-0.089,0.003-0.177,0.003-0.267h-14.25c0,0.09-0.003,0.178-0.003,0.267
											c0,8.674,2.236,16.824,6.161,23.91L499.493,196.722z"/>
									</g>
									<g opacity="0.66">
										<path opacity="0.93" stroke="#020202" stroke-miterlimit="10" enable-background="new    " d="M529.641,282.877v-29.681
											c-13.016-0.135-25.219-3.659-35.766-9.74l-14.843,25.708C493.945,277.771,511.218,282.74,529.641,282.877z"/>
										<path opacity="0.93" stroke="#020202" stroke-miterlimit="10" enable-background="new    " d="M566.961,243.456
											c-10.548,6.081-22.75,9.605-35.767,9.74v29.681c18.423-0.137,35.695-5.105,50.607-13.713L566.961,243.456z"/>
										<path opacity="0.93" stroke="#020202" stroke-miterlimit="10" enable-background="new    " d="M495.035,115.77
											c10.277-5.68,22.063-8.958,34.604-9.089V77c-17.948,0.133-34.802,4.858-49.447,13.062L495.035,115.77z"/>
										<path opacity="0.93" stroke="#020202" stroke-miterlimit="10" enable-background="new    " d="M427.495,177.83h29.687
											c0.359-12.688,3.946-24.569,9.967-34.854l-25.708-14.843C432.893,142.784,427.86,159.733,427.495,177.83z"/>
										<path opacity="0.93" stroke="#020202" stroke-miterlimit="10" enable-background="new    " d="M531.195,77v29.681
											c12.542,0.131,24.327,3.41,34.604,9.089l14.843-25.709C565.996,81.858,549.144,77.133,531.195,77z"/>
										<path opacity="0.93" stroke="#020202" stroke-miterlimit="10" enable-background="new    " d="M619.395,128.134
											l-25.707,14.843c6.021,10.282,9.607,22.164,9.967,34.853h29.687C632.976,159.733,627.942,142.784,619.395,128.134z"/>
										<path opacity="0.93" stroke="#020202" stroke-miterlimit="10" enable-background="new    " d="M594.066,216.252
											c-6.201,10.847-15.093,19.953-25.768,26.413l14.843,25.707c15.177-9.067,27.827-21.928,36.634-37.275L594.066,216.252z"/>
										<path opacity="0.93" stroke="#020202" stroke-miterlimit="10" enable-background="new    " d="M603.679,179.385
											c0.002,0.185,0.007,0.367,0.007,0.554c0,12.658-3.21,24.566-8.86,34.956l25.709,14.844
											c8.173-14.759,12.832-31.734,12.832-49.8c0-0.187-0.006-0.369-0.007-0.555L603.679,179.385L603.679,179.385z"/>
										<path opacity="0.93" stroke="#020202" stroke-miterlimit="10" enable-background="new    " d="M492.536,242.665
											c-10.675-6.46-19.565-15.566-25.768-26.413l-25.709,14.845c8.807,15.349,21.457,28.208,36.634,37.275L492.536,242.665z"/>
										<path opacity="0.93" stroke="#020202" stroke-miterlimit="10" enable-background="new    " d="M567.153,116.535
											c10.52,6.107,19.377,14.756,25.735,25.107l25.715-14.848c-8.97-14.853-21.586-27.254-36.607-35.968L567.153,116.535z"/>
										<path opacity="0.93" stroke="#020202" stroke-miterlimit="10" enable-background="new    " d="M467.947,141.642
											c6.358-10.352,15.217-19,25.735-25.107L478.84,90.827c-15.021,8.714-27.639,21.116-36.607,35.968L467.947,141.642z"/>
										<path opacity="0.93" stroke="#020202" stroke-miterlimit="10" enable-background="new    " d="M466.011,214.895
											c-5.65-10.39-8.86-22.298-8.86-34.956c0-0.187,0.005-0.369,0.007-0.554h-29.681c-0.001,0.185-0.007,0.367-0.007,0.554
											c0,18.064,4.659,35.041,12.832,49.8L466.011,214.895z"/>
									</g>
									<g opacity="0.66">
										<path opacity="0.93" stroke="#020202" stroke-miterlimit="10" enable-background="new    " d="M530.193,209.627v-8.561
											c-3.754-0.039-7.272-1.055-10.313-2.81l-4.281,7.414C519.898,208.154,524.881,209.588,530.193,209.627z"/>
										<path opacity="0.93" stroke="#020202" stroke-miterlimit="10" enable-background="new    " d="M540.956,198.258
											c-3.041,1.755-6.561,2.771-10.313,2.81v8.561c5.313-0.039,10.295-1.473,14.596-3.955L540.956,198.258z"/>
										<path opacity="0.93" stroke="#020202" stroke-miterlimit="10" enable-background="new    " d="M520.214,161.432
											c2.964-1.639,6.361-2.584,9.979-2.622v-8.561c-5.176,0.039-10.037,1.401-14.261,3.768L520.214,161.432z"/>
										<path opacity="0.93" stroke="#020202" stroke-miterlimit="10" enable-background="new    " d="M500.734,179.33h8.563
											c0.104-3.66,1.138-7.086,2.874-10.052l-7.414-4.281C502.291,169.223,500.839,174.111,500.734,179.33z"/>
										<path opacity="0.93" stroke="#020202" stroke-miterlimit="10" enable-background="new    " d="M530.643,150.25v8.561
											c3.617,0.038,7.016,0.983,9.979,2.622l4.281-7.415C540.68,151.651,535.818,150.289,530.643,150.25z"/>
										<path opacity="0.93" stroke="#020202" stroke-miterlimit="10" enable-background="new    " d="M556.079,164.998
											l-7.413,4.281c1.735,2.966,2.771,6.392,2.873,10.052h8.563C559.996,174.111,558.545,169.223,556.079,164.998z"/>
										<path opacity="0.93" stroke="#020202" stroke-miterlimit="10" enable-background="new    " d="M548.774,190.412
											c-1.788,3.128-4.353,5.754-7.431,7.617l4.279,7.414c4.378-2.615,8.025-6.324,10.565-10.751L548.774,190.412z"/>
										<path opacity="0.93" stroke="#020202" stroke-miterlimit="10" enable-background="new    " d="M551.547,179.778
											c0.001,0.054,0.002,0.105,0.002,0.16c0,3.649-0.927,7.085-2.557,10.082l7.415,4.279c2.357-4.256,3.701-9.151,3.701-14.361
											c0-0.055-0.002-0.106-0.002-0.16H551.547z"/>
										<path opacity="0.93" stroke="#020202" stroke-miterlimit="10" enable-background="new    " d="M519.491,198.029
											c-3.078-1.863-5.643-4.489-7.431-7.617l-7.415,4.28c2.54,4.427,6.188,8.136,10.565,10.751L519.491,198.029z"/>
										<path opacity="0.93" stroke="#020202" stroke-miterlimit="10" enable-background="new    " d="M541.013,161.652
											c3.034,1.761,5.589,4.256,7.423,7.241l7.416-4.282c-2.587-4.284-6.227-7.86-10.559-10.374L541.013,161.652z"/>
										<path opacity="0.93" stroke="#020202" stroke-miterlimit="10" enable-background="new    " d="M512.4,168.894
											c1.834-2.985,4.389-5.48,7.423-7.241l-4.281-7.415c-4.332,2.513-7.971,6.09-10.558,10.374L512.4,168.894z"/>
										<path opacity="0.93" stroke="#020202" stroke-miterlimit="10" enable-background="new    " d="M511.842,190.021
											c-1.629-2.997-2.556-6.433-2.556-10.082c0-0.054,0.001-0.106,0.003-0.16h-8.562c0,0.054-0.002,0.106-0.002,0.16
											c0,5.21,1.344,10.105,3.701,14.361L511.842,190.021z"/>
									</g>
								</g>
							</g>
						</g>
						<g>
							<path opacity="0.93" stroke="#020202" stroke-miterlimit="10" enable-background="new    " d="M419.843,201.5v1h-26.312
								c0.04-0.27,0.062-0.55,0.062-0.83c0-0.06,0-0.109-0.01-0.17H419.843z"/>
							<path opacity="0.93" stroke="#020202" stroke-miterlimit="10" enable-background="new    " d="M380.822,202.5h-103.06
								c-3.5,0-6.92-1.229-9.61-3.47l-0.08-0.08l-15.14-20.04c-2.71-3.6-7.021-5.74-11.53-5.74H-36.322v-1h277.725
								c4.82,0,9.432,2.29,12.33,6.13l15.102,20c2.51,2.062,5.68,3.2,8.93,3.2h103.01c-0.01,0.061-0.01,0.11-0.01,0.17
								C380.763,201.95,380.782,202.23,380.822,202.5z"/>
							<path opacity="0.93" stroke="#020202" stroke-miterlimit="10" enable-background="new    " d="M387.179,208.083
								c-3.538,0-6.416-2.878-6.416-6.416s2.878-6.417,6.416-6.417c3.539,0,6.417,2.879,6.417,6.417
								S390.718,208.083,387.179,208.083z M387.179,196.25c-2.986,0-5.416,2.431-5.416,5.417s2.43,5.416,5.416,5.416
								c2.987,0,5.417-2.43,5.417-5.416S390.166,196.25,387.179,196.25z"/>
							
								<circle opacity="0.93" stroke="#020202" stroke-miterlimit="10" enable-background="new    " cx="387.179" cy="201.667" r="3.125"/>
							
								<circle opacity="0.93" stroke="#020202" stroke-miterlimit="10" enable-background="new    " cx="233.179" cy="218.541" r="3.867"/>
							
								<circle opacity="0.93" stroke="#020202" stroke-miterlimit="10" enable-background="new    " cx="350.679" cy="192.541" r="3.867"/>
							
								<circle opacity="0.93" stroke="#020202" stroke-miterlimit="10" enable-background="new    " cx="355.351" cy="159.588" r="3.867"/>
							<path opacity="0.93" stroke="#020202" stroke-miterlimit="10" enable-background="new    " d="M252.471,124.625
								c-3.538,0-6.417-2.878-6.417-6.417s2.879-6.417,6.417-6.417s6.417,2.878,6.417,6.417S256.009,124.625,252.471,124.625z
								 M252.471,112.792c-2.986,0-5.417,2.431-5.417,5.417c0,2.987,2.431,5.417,5.417,5.417c2.987,0,5.417-2.43,5.417-5.417
								C257.888,115.222,255.458,112.792,252.471,112.792z"/>
							<path stroke="#020202" stroke-miterlimit="10" d="M258.853,117.5c0.03,0.24,0.04,0.471,0.04,0.71c0,0.101,0,0.19-0.01,0.29
								 M246.063,118.5c-0.01-0.1-0.01-0.189-0.01-0.29c0-0.239,0.01-0.47,0.04-0.71"/>
							
								<circle opacity="0.93" stroke="#020202" stroke-miterlimit="10" enable-background="new    " cx="252.471" cy="118.208" r="3.125"/>
							
								<circle opacity="0.93" stroke="#020202" stroke-miterlimit="10" enable-background="new    " cx="310.774" cy="241.906" r="3.656"/>
							
								<circle opacity="0.93" stroke="#020202" stroke-miterlimit="10" enable-background="new    " cx="325.639" cy="241.906" r="3.656"/>
							
								<circle opacity="0.93" stroke="#020202" stroke-miterlimit="10" enable-background="new    " cx="339.795" cy="241.906" r="3.656"/>
							
								<circle opacity="0.93" stroke="#020202" stroke-miterlimit="10" enable-background="new    " cx="270.462" cy="304.572" r="4.04"/>
							
								<circle opacity="0.93" stroke="#020202" stroke-miterlimit="10" enable-background="new    " cx="438.128" cy="285.406" r="3.656"/>
							<g opacity="0.93">
								<path stroke="#020202" stroke-miterlimit="10" d="M349.545,257.804c-3.715,0-6.728,3.012-6.728,6.728
									c0,3.715,3.013,6.727,6.728,6.727c3.716,0,6.728-3.012,6.728-6.727C356.272,260.815,353.261,257.804,349.545,257.804z
									 M349.545,270.238c-3.151,0-5.707-2.556-5.707-5.707c0-3.152,2.556-5.707,5.707-5.707s5.707,2.555,5.707,5.707
									S352.697,270.238,349.545,270.238z"/>
								<circle stroke="#020202" stroke-miterlimit="10" cx="349.545" cy="264.531" r="3.156"/>
							</g>
							<g opacity="0.93">
								<polygon stroke="#020202" stroke-miterlimit="10" points="397.789,159.189 397.782,159.194 397.776,159.189 
									397.776,159.198 390.611,164.03 390.611,169.103 397.782,164.266 404.955,169.103 404.955,164.03 397.789,159.198 								
									"/>
								<polygon stroke="#020202" stroke-miterlimit="10" points="397.789,167.161 397.782,167.166 397.776,167.161 397.776,167.17 
									390.611,172.002 390.611,177.074 397.782,172.238 404.955,177.074 404.955,172.002 397.789,167.17 								"/>
								<polygon stroke="#020202" stroke-miterlimit="10" points="397.789,151.176 397.789,151.167 397.782,151.171 
									397.776,151.167 397.776,151.176 390.611,156.008 390.611,161.08 397.782,156.243 404.955,161.08 404.955,156.008 								
									"/>
							</g>
							<g opacity="0.93">
								<polygon stroke="#020202" stroke-miterlimit="10" points="249.848,204.551 249.845,204.545 249.848,204.539 
									249.841,204.539 245.676,198.363 241.304,198.363 245.473,204.545 241.304,210.727 245.676,210.727 249.841,204.551 
																	"/>
								<polygon stroke="#020202" stroke-miterlimit="10" points="256.755,204.551 256.763,204.551 256.759,204.545 
									256.763,204.539 256.755,204.539 252.59,198.363 248.219,198.363 252.387,204.545 248.219,210.727 252.59,210.727 								
									"/>
								<polygon stroke="#020202" stroke-miterlimit="10" points="138.994,266.889 139.008,266.889 139.001,266.878 
									139.008,266.868 138.994,266.868 131.666,256 123.973,256 131.309,266.878 123.973,277.756 131.666,277.756 								"/>
								<polygon stroke="#020202" stroke-miterlimit="10" points="154.994,266.889 155.008,266.889 155.001,266.878 
									155.008,266.868 154.994,266.868 147.666,256 139.973,256 147.309,266.878 139.973,277.756 147.666,277.756 								"/>
							</g>
							<path opacity="0.93" stroke="#020202" stroke-miterlimit="10" enable-background="new    " d="M418.353,183.5v1h-99.72
								c-6.41,0-11.62-5.21-11.62-11.62v-17.59c0-3.01-2.45-5.46-5.46-5.46h-37.12c-6.85,0-12.42-5.569-12.42-12.42V124.6
								c0.149,0.01,0.31,0.02,0.46,0.02c0.18,0,0.36-0.01,0.54-0.02v12.81c0,6.3,5.12,11.42,11.42,11.42h37.12
								c3.56,0,6.46,2.9,6.46,6.46v17.59c0,5.86,4.76,10.62,10.62,10.62H418.353z"/>
							
								<line opacity="0.93" stroke="#020202" stroke-miterlimit="10" enable-background="new    " x1="253.013" y1="124.6" x2="253.013" y2="137.41"/>
							<path opacity="0.93" stroke="#020202" stroke-miterlimit="10" enable-background="new    " d="M253.013,93.86v17.95
								c-0.18-0.011-0.36-0.021-0.54-0.021c-0.15,0-0.311,0.01-0.46,0.021V93.86c0-5.71-4.65-10.36-10.36-10.36H-35.322v-1h276.975
								C247.923,82.5,253.013,87.59,253.013,93.86z"/>
							<path opacity="0.93" stroke="#020202" stroke-miterlimit="10" enable-background="new    " d="M232.683,263.3
								c0-8.159-6.64-14.8-14.8-14.8H-35.322v-1h253.205c8.71,0,15.8,7.09,15.8,15.8v18.87h-1V263.3z"/>
							<path opacity="0.93" stroke="#020202" stroke-miterlimit="10" enable-background="new    " d="M299.013,336.12v11.37
								c0,8.279-6.729,15.01-15.01,15.01h-36.32c-8.271,0-15-6.729-15-15.01v-64.32h1v64.32c0,7.729,6.28,14.01,14,14.01h36.32
								c7.729,0,14.01-6.279,14.01-14.01v-12.13L299.013,336.12z"/>
							<path opacity="0.93" stroke="#020202" stroke-miterlimit="10" enable-background="new    " d="M469.322,275.5v1H307.242
								c-4.54,0-8.229,3.69-8.229,8.23v50.13l-1-0.761V284.73c0-5.091,4.14-9.23,9.229-9.23H469.322z"/>
							<path opacity="0.93" stroke="#020202" stroke-miterlimit="10" enable-background="new    " d="M278.223,253.56l0.771,0.649
								l-16.561,22.95c-2.71,3.76-7.1,6.01-11.74,6.01H-35.322v-1h286.015c4.32,0,8.4-2.09,10.932-5.59L278.223,253.56z"/>
							<path opacity="0.93" stroke="#020202" stroke-miterlimit="10" enable-background="new    " d="M307.173,242.5h-11.58
								c-5.11,0-9.94,2.471-12.931,6.62l-3.091,4.28l-0.76-0.66l3.04-4.21c3.17-4.4,8.311-7.03,13.74-7.03h11.56
								c-0.02,0.13-0.028,0.271-0.028,0.41C307.123,242.11,307.143,242.31,307.173,242.5z"/>
							<path opacity="0.93" stroke="#020202" stroke-miterlimit="10" enable-background="new    " d="M321.982,241.91
								c0,0.2,0.021,0.399,0.05,0.59h-7.648c0.029-0.189,0.05-0.39,0.05-0.59c0-0.141-0.01-0.28-0.03-0.41h7.61
								C321.992,241.63,321.982,241.77,321.982,241.91z"/>
							<path opacity="0.93" stroke="#020202" stroke-miterlimit="10" enable-background="new    " d="M336.143,241.91
								c0,0.2,0.021,0.399,0.05,0.59h-6.949c0.029-0.189,0.051-0.39,0.051-0.59c0-0.141-0.011-0.28-0.03-0.41h6.91
								C336.152,241.63,336.143,241.77,336.143,241.91z"/>
							<path opacity="0.93" stroke="#020202" stroke-miterlimit="10" enable-background="new    " d="M435.843,241.5v1h-92.44
								c0.03-0.189,0.051-0.39,0.051-0.59c0-0.141-0.011-0.28-0.029-0.41H435.843z"/>
							<path opacity="0.93" stroke="#020202" stroke-miterlimit="10" enable-background="new    " d="M229.313,218.54
								c0,0.21,0.021,0.431,0.062,0.63H-35.322v-1h264.655C229.322,218.29,229.313,218.41,229.313,218.54z"/>
							<path opacity="0.93" stroke="#020202" stroke-miterlimit="10" enable-background="new    " d="M427.513,227.17v1h-90.41
								c-2.67,0-5.229-0.84-7.39-2.409l-5.971-4.359c-2-1.46-4.369-2.23-6.851-2.23h-79.91c0.04-0.199,0.062-0.42,0.062-0.63
								c0-0.13-0.012-0.25-0.021-0.37h79.87c2.69,0,5.271,0.841,7.44,2.42l5.97,4.36c1.99,1.45,4.34,2.22,6.8,2.22L427.513,227.17
								L427.513,227.17z"/>
							<path opacity="0.93" stroke="#020202" stroke-miterlimit="10" enable-background="new    " d="M258.883,118.5h51.21
								c4.359,0,8.67,1.44,12.149,4.05l25.789,19.341c3.102,2.33,6.95,3.609,10.842,3.609h66.14v-1h-66.14
								c-3.671,0-7.312-1.21-10.25-3.41l-25.78-19.34c-3.65-2.739-8.181-4.25-12.75-4.25h-51.24L258.883,118.5z"/>
							<polygon opacity="0.93" stroke="#020202" stroke-miterlimit="10" enable-background="new    " points="246.063,118.5 
								-38.322,118.5 -38.322,117.5 246.093,117.5 							"/>
							<path opacity="0.93" stroke="#020202" stroke-miterlimit="10" enable-background="new    " d="M434.522,284.83
								c-0.03,0.189-0.05,0.38-0.05,0.58c0,0.14,0.01,0.28,0.03,0.42h-28.932c-2.648,0-5.148,1.15-6.87,3.16l-42.8,50.029
								c-3.699,4.33-9.09,6.811-14.79,6.811h-25.148c-2.66,0-5.28-0.88-7.4-2.479l-19.569-14.819
								c-3.421-2.601-7.681-4.011-11.979-3.99c-14.59,0.07-248.795,0.24-310.335,0.25v-1c61.54-0.01,295.745-0.18,310.335-0.25
								c4.51,0,8.99,1.461,12.59,4.19l19.561,14.819c1.949,1.47,4.359,2.279,6.801,2.279h25.148c5.4,0,10.521-2.35,14.03-6.46
								l42.8-50.03c1.91-2.229,4.69-3.51,7.63-3.51H434.522z"/>
							<path opacity="0.93" stroke="#020202" stroke-miterlimit="10" enable-background="new    " d="M487.263,284.83v1h-45.51
								c0.02-0.14,0.028-0.28,0.028-0.42c0-0.2-0.02-0.391-0.05-0.58H487.263z"/>
							<polygon opacity="0.93" stroke="#020202" stroke-miterlimit="10" enable-background="new    " points="263.013,192.25 
								263.763,193.25 -36.322,193.25 -36.322,192.25 							"/>
							<path opacity="0.93" stroke="#020202" stroke-miterlimit="10" enable-background="new    " d="M346.883,193.25h-81.86
								l-0.76-1h82.56c-0.01,0.09-0.01,0.19-0.01,0.29C346.813,192.78,346.833,193.02,346.883,193.25z"/>
							<path opacity="0.93" stroke="#020202" stroke-miterlimit="10" enable-background="new    " d="M343.179,265.042h-47.622
								c-2.512,0-4.946-0.897-6.855-2.53l-29.122-24.887c-2.956-2.524-6.726-3.917-10.613-3.917H-36.322v-1h285.287
								c4.126,0,8.126,1.478,11.263,4.157l29.122,24.886c1.729,1.479,3.935,2.291,6.207,2.291h47.622V265.042L343.179,265.042z"/>
							<path opacity="0.93" stroke="#020202" stroke-miterlimit="10" enable-background="new    " d="M266.463,304
								c-0.03,0.181-0.04,0.38-0.04,0.57c0,0.149,0.01,0.29,0.02,0.43H-35.322v-1H266.463z"/>
							<path opacity="0.93" stroke="#020202" stroke-miterlimit="10" enable-background="new    " d="M393.513,293.5l-0.833,1
								h-41.018c-2.979,0-5.859,1.09-8.091,3.07l-3.729,3.31c-2.99,2.66-6.84,4.12-10.84,4.12h-54.521
								c0.011-0.14,0.021-0.279,0.021-0.43c0-0.19-0.011-0.391-0.04-0.57h54.54c3.75,0,7.37-1.37,10.18-3.87l3.729-3.3
								c2.409-2.149,5.521-3.33,8.75-3.33H393.513L393.513,293.5z"/>
							<path opacity="0.93" stroke="#020202" stroke-miterlimit="10" enable-background="new    " d="M351.482,159.59
								c0,0.141,0.011,0.271,0.021,0.41H-36.322v-1h387.854C351.503,159.19,351.482,159.39,351.482,159.59z"/>
							<path opacity="0.93" stroke="#020202" stroke-miterlimit="10" enable-background="new    " d="M252.253,139.83H-36.652v-1
								h288.745C252.133,139.17,252.183,139.5,252.253,139.83z"/>
						</g>
						<g>
							<circle stroke="#020202" stroke-miterlimit="10" cx="350.976" cy="192.202" r="11.871"/>
							<circle stroke="#020202" stroke-miterlimit="10" cx="354.642" cy="160.203" r="11.871"/>
							<circle stroke="#020202" stroke-miterlimit="10" cx="288.09" cy="150" r="10.089"/>
							<circle stroke="#020202" stroke-miterlimit="10" cx="615.096" cy="256.59" r="12.896"/>
							<circle stroke="#020202" stroke-miterlimit="10" cx="439.186" cy="180.488" r="10.798"/>
							<circle stroke="#020202" stroke-miterlimit="10" cx="232.475" cy="218.833" r="11.871"/>
							<circle stroke="#020202" stroke-miterlimit="10" cx="165.667" cy="325.667" r="7.992"/>
							<circle stroke="#020202" stroke-miterlimit="10" cx="89.975" cy="282.833" r="11.871"/>
							<circle stroke="#020202" stroke-miterlimit="10" cx="164.975" cy="117.833" r="11.871"/>
							<circle stroke="#020202" stroke-miterlimit="10" cx="13.14" cy="307" r="11.871"/>
							<circle stroke="#020202" stroke-miterlimit="10" cx="175.475" cy="193.167" r="6.602"/>
							<circle stroke="#020202" stroke-miterlimit="10" cx="61.975" cy="160.167" r="6.602"/>
						</g>
					</g>
				</g>
				<use xlink:href="#SVGID_2_"  display="none" overflow="visible" fill="none" stroke="#FFFFFF" stroke-miterlimit="10"/>
			</g>
			<g display="none">
				<polyline id="SVGID_1_" display="inline" fill="none" stroke="#FFFFFF" stroke-miterlimit="10" points="0,427 0,-73 750,-73 
					750,427 				"/>
			</g>
		</g>
	</g>
</g>
</svg>
