<?xml version="1.0" encoding="utf-8"?>
<!-- Generator: Adobe Illustrator 16.0.0, SVG Export Plug-In . SVG Version: 6.00 Build 0)  -->
<!DOCTYPE svg PUBLIC "-//W3C//DTD SVG 1.1//EN" "http://www.w3.org/Graphics/SVG/1.1/DTD/svg11.dtd">
<svg version="1.1" xmlns="http://www.w3.org/2000/svg" xmlns:xlink="http://www.w3.org/1999/xlink" x="0px" y="0px"
	 width="256.43px" height="177.41px" viewBox="0 0 256.43 177.41" enable-background="new 0 0 256.43 177.41" xml:space="preserve">
<g id="BACKGROUND" display="none">
	<rect x="-121.785" y="-174.486" display="inline" fill="#95DDE9" width="500" height="500"/>
</g>
<g id="OBJECTS">
	<g>
		<g>
			<g>
				<path fill="#D2EEF2" d="M52.546,11.125h-9.899c-1.743,0-3.155,1.413-3.155,3.155v0.571c0,1.743,1.413,3.155,3.155,3.155h9.899
					c1.743,0,3.155-1.413,3.155-3.155V14.28C55.701,12.538,54.289,11.125,52.546,11.125z"/>
			</g>
			<g>
				<path fill="#FFFFFF" d="M246.672,177.41H9.759c-5.39,0-9.759-4.369-9.759-9.758V9.758C0,4.369,4.369,0,9.759,0h236.914
					c5.389,0,9.758,4.369,9.758,9.758v157.894C256.43,173.041,252.061,177.41,246.672,177.41z"/>
				<polygon fill="#DBDCDD" points="24.412,97.752 24.412,102.296 24.412,103.498 24.412,107.599 118.192,107.599 118.192,103.498 
					118.192,102.296 118.192,97.752 118.192,41.951 24.412,41.951 				"/>
				<rect x="8.743" y="10.272" fill="#13B2EA" width="238.945" height="130.985"/>
				<polygon fill="#008BBC" points="24.412,46.315 24.412,97.752 24.412,102.296 24.412,103.498 24.412,107.599 118.192,107.599 
					118.192,103.498 118.192,102.296 118.192,97.752 118.192,46.315 				"/>
				<path fill="#DBDCDD" d="M252.249,1.756c1.104,1.582,1.756,3.501,1.756,5.577v157.894c0,5.389-4.368,9.758-9.758,9.758H7.333
					c-2.075,0-3.995-0.652-5.576-1.756c1.764,2.525,4.687,4.182,8.002,4.182h236.914c5.389,0,9.758-4.369,9.758-9.758V9.758
					C256.43,6.444,254.775,3.521,252.249,1.756z"/>
				<path fill="#29424C" d="M0,151.25v16.402c0,5.389,4.369,9.758,9.759,9.758h236.914c5.389,0,9.758-4.369,9.758-9.758V151.25H0z"
					/>
				<path fill="#1F3540" d="M254.068,167.651c0,5.39-4.369,9.759-9.759,9.759h2.363c5.389,0,9.758-4.369,9.758-9.759V151.25h-2.362
					V167.651z"/>
				<rect x="24.244" y="110.575" fill="#FFFFFF" width="132.894" height="30.683"/>
				<rect x="24.244" y="138.08" fill="#DBDCDD" width="132.894" height="3.178"/>
				<rect x="29.12" y="114.166" fill="#29424C" width="16.738" height="2.269"/>
				<rect x="29.12" y="119.933" fill="#DBDCDD" width="41.116" height="1.134"/>
				<rect x="29.12" y="123.193" fill="#DBDCDD" width="123.142" height="1.134"/>
				<rect x="29.12" y="126.454" fill="#DBDCDD" width="123.142" height="1.134"/>
				<rect x="29.12" y="129.715" fill="#DBDCDD" width="123.142" height="1.134"/>
				<rect x="29.12" y="132.976" fill="#DBDCDD" width="123.142" height="1.135"/>
				<rect x="8.743" y="10.272" fill="#29424C" width="238.945" height="8.146"/>
				<rect x="43.412" y="10.272" fill="#1F3540" width="130.573" height="8.146"/>
				<circle fill="#FF6543" cx="227.652" cy="14.346" r="1.96"/>
				<circle fill="#009BDE" cx="233.416" cy="14.346" r="1.96"/>
				<circle fill="#F9BF3A" cx="239.178" cy="14.346" r="1.96"/>
				<rect x="24.244" y="21.821" fill="#FFFFFF" width="98.3" height="3.402"/>
				<rect x="43.412" y="21.821" fill="#DBDCDD" width="79.132" height="3.402"/>
				<rect x="24.244" y="27.776" fill="#FFFFFF" width="25.142" height="2.646"/>
				<rect x="43.412" y="27.776" fill="#DBDCDD" width="5.974" height="2.646"/>
				<rect x="168.222" y="33.542" fill="#FFFFFF" width="68.996" height="107.716"/>
				<rect x="168.222" y="33.542" fill="#29424C" width="68.996" height="4.159"/>
				<rect x="173.985" y="82.735" fill="#DBDCDD" width="57.471" height="1.11"/>
				<rect x="173.985" y="85.528" fill="#DBDCDD" width="57.471" height="1.111"/>
				<rect x="173.985" y="88.322" fill="#DBDCDD" width="57.471" height="1.111"/>
				<rect x="173.985" y="91.116" fill="#DBDCDD" width="57.471" height="1.11"/>
				<rect x="173.985" y="93.91" fill="#DBDCDD" width="57.471" height="1.11"/>
				<rect x="173.985" y="96.704" fill="#DBDCDD" width="39.393" height="1.11"/>
				<rect x="173.985" y="54.903" fill="#13B2EA" width="57.471" height="24.575"/>
				<rect x="173.985" y="103.494" fill="#DBDCDD" width="22.662" height="1.897"/>
				<rect x="173.985" y="107.645" fill="#FFD345" width="57.471" height="24.575"/>
				<rect x="168.222" y="138.08" fill="#DBDCDD" width="68.996" height="3.178"/>
				<polygon fill="#DBDCDD" points="168.222,33.542 168.222,85.628 168.222,90.229 168.222,91.446 168.222,95.599 173.985,95.599 
					173.985,91.446 173.985,90.229 173.985,85.628 173.985,33.542 				"/>
				<polygon fill="#1F3540" points="168.222,33.542 168.222,37.032 168.222,37.34 168.222,37.422 168.222,37.7 173.985,37.7 
					173.985,37.422 173.985,37.34 173.985,37.032 173.985,33.542 				"/>
				<polygon fill="#008BBC" points="171.104,54.903 171.104,75.529 171.104,77.352 171.104,77.834 171.104,79.478 173.985,79.478 
					173.985,77.834 173.985,77.352 173.985,75.529 173.985,54.903 				"/>
			</g>
			<g>
				<g>
					<rect x="29.529" y="35.621" fill="#FFFFFF" width="93.78" height="65.647"/>
					<rect x="29.529" y="91.423" fill="#FF6543" width="93.78" height="9.846"/>
					<rect x="29.529" y="95.966" fill="#29424C" width="93.78" height="1.202"/>
					<rect x="29.529" y="95.966" fill="#FFFFFF" width="56.25" height="1.202"/>
					<g>
						<circle fill="#FFFFFF" cx="85.779" cy="96.567" r="1.923"/>
					</g>
				</g>
			</g>
			<g>
				<g>
				</g>
			</g>
			<g>
				<circle fill="#FFFFFF" cx="252.921" cy="77.955" r="0.848"/>
				<circle fill="#FFFFFF" cx="248.683" cy="77.955" r="0.848"/>
				<g>
					<g>
						<rect x="192.392" y="121.719" fill="#FFFFFF" width="28.781" height="2.464"/>
						<rect x="192.392" y="126.363" fill="#FFFFFF" width="13.345" height="1.231"/>
					</g>
				</g>
			</g>
			<g>
				<g>
					<g>
						<rect x="204.263" y="72.144" fill="#DBDCDD" width="17.362" height="1.454"/>
						<polygon fill="#DBDCDD" points="231.444,97.201 204.263,107.201 204.263,106.351 231.444,106.351 						"/>
					</g>
				</g>
			</g>
			<g>
				<g>
					<g>
						<line fill="#1F3540" x1="79.798" y1="205.078" x2="79.798" y2="200.12"/>
					</g>
				</g>
				<g>
					<circle fill="#FFC000" cx="73.303" cy="114.664" r="11.293"/>
					<path fill="#FFD345" d="M63.135,115.79c0-6.237,5.056-11.293,11.293-11.293c2.832,0,5.414,1.05,7.396,2.771
						c-2.071-2.384-5.117-3.897-8.522-3.897c-6.237,0-11.293,5.057-11.293,11.293c0,3.405,1.514,6.451,3.897,8.521
						C64.185,121.203,63.135,118.622,63.135,115.79z"/>
					<path fill="#FFAB03" d="M80.241,105.767c1.496,1.915,2.395,4.319,2.395,6.938c0,6.237-5.056,11.293-11.293,11.293
						c-2.619,0-5.022-0.899-6.938-2.395c2.067,2.646,5.28,4.355,8.898,4.355c6.237,0,11.293-5.057,11.293-11.294
						C84.596,111.046,82.888,107.833,80.241,105.767z"/>
					<circle fill="#FFFFFF" cx="73.303" cy="114.664" r="5.622"/>
				</g>
			</g>
		</g>
	</g>
	<rect x="33.715" y="42.764" fill="#DDDDDD" width="84.75" height="18"/>
	<rect x="34.465" y="64.57" fill="#EAEAEA" width="41.625" height="1.443"/>
	<rect x="34.465" y="67.57" fill="#EAEAEA" width="41.625" height="1.443"/>
	<rect x="34.465" y="70.724" fill="#EAEAEA" width="41.625" height="1.443"/>
	<rect x="34.465" y="73.891" fill="#EAEAEA" width="41.625" height="14.814"/>
	<rect x="78.925" y="64.76" fill="#EAEAEA" width="39.541" height="14.814"/>
</g>
<g id="DESIGNED_BY_FREEPIK">
</g>
</svg>
