<?xml version="1.0" encoding="utf-8"?>
<!-- Generator: Adobe Illustrator 16.0.0, SVG Export Plug-In . SVG Version: 6.00 Build 0)  -->
<!DOCTYPE svg PUBLIC "-//W3C//DTD SVG 1.1//EN" "http://www.w3.org/Graphics/SVG/1.1/DTD/svg11.dtd">
<svg version="1.1" id="Layer_1" xmlns="http://www.w3.org/2000/svg" xmlns:xlink="http://www.w3.org/1999/xlink" x="0px" y="0px"
	 width="1899px" height="898px" viewBox="0 0 1899 898" enable-background="new 0 0 1899 898" xml:space="preserve">
<radialGradient id="SVGID_1_" cx="227.8418" cy="662.6846" r="575.7992" gradientTransform="matrix(0.9401 -0.341 0.341 0.9401 184.0319 337.6638)" gradientUnits="userSpaceOnUse">
	<stop  offset="0" style="stop-color:#FFFFFF"/>
	<stop  offset="0.0523" style="stop-color:#FDFBE4"/>
	<stop  offset="0.0981" style="stop-color:#FCF9CE"/>
	<stop  offset="0.223" style="stop-color:#F2F6DE"/>
	<stop  offset="0.3746" style="stop-color:#E9F5ED"/>
	<stop  offset="0.526" style="stop-color:#E3F4F6"/>
	<stop  offset="0.6764" style="stop-color:#E1F3FA"/>
	<stop  offset="0.8267" style="stop-color:#E3F4FA"/>
	<stop  offset="0.8876" style="stop-color:#EBF7F9"/>
	<stop  offset="0.9163" style="stop-color:#F2F9F9"/>
	<stop  offset="1" style="stop-color:#F2FAFB"/>
</radialGradient>
<path fill="url(#SVGID_1_)" d="M1062.747,599.408c-16.12-44.44-65.213-67.395-109.65-51.277
	c-44.44,16.121-67.399,65.21-51.279,109.651c2.423,6.68,5.606,12.86,9.389,18.513c-48.674,17.814-64.771,55.623-54.958,93.972
	c-8.41-13.13-25.038-19.19-40.313-13.649c-17.702,6.42-26.852,25.979-20.429,43.687c1.825,5.032,4.739,9.339,8.337,12.829
	c-19.822,10.35-33.059,29.256-36.75,50.377c-12.112-6.992-27.104-8.803-41.281-3.66c-20.576,7.463-33.104,27.26-32.299,48.02
	c-5.913-1.404-12.287-1.174-18.427,1.053c-9.292,3.371-16.076,10.572-19.253,19.171c-12.863-12.595-32.242-17.511-50.295-10.962
	c-10.567,3.833-18.947,10.993-24.472,19.841c-14.424-20.003-40.851-28.903-65.183-20.078c-22.52,8.168-36.682,29.144-37.28,51.727
	c-12.411-7.173-27.789-9.022-42.321-3.751c-20.228,7.336-32.872,26.309-33.137,46.622c-10.105-8.82-24.565-12.038-38.064-7.142
	c-1.519,0.551-2.958,1.217-4.362,1.932c-0.038-0.104-0.066-0.207-0.104-0.311c-11.417-31.475-46.19-47.736-77.664-36.32
	c-19.406,7.039-33.02,22.965-37.939,41.52c-9.332-14.135-25.871-21.91-42.702-20.102c0.839-5.426,0.365-11.133-1.639-16.655
	c-6.372-17.567-25.776-26.643-43.344-20.271c-17.568,6.373-26.64,25.777-20.268,43.344c4.509,12.432,15.55,20.577,27.843,22.039
	c-3.948,9.965-4.452,21.34-0.51,32.207c6.695,18.46,32.495,63.441,38.82,80.879c11.719,32.309,47.414,48.999,79.723,37.279
	c9.699-3.518,17.978-9.205,24.513-16.305c6.692,1.105,13.743,0.58,20.573-1.896c12.033-4.365,20.763-13.788,24.675-24.996
	c9.462,5.546,21.225,6.998,32.337,2.967c11.441-4.15,19.659-13.213,23.206-23.941c8.797,6.27,20.419,8.26,31.342,4.298
	c6.811-2.47,12.334-6.905,16.203-12.419c11.796,7.611,26.855,9.855,41.068,4.7c15.859-5.753,26.631-19.25,29.705-34.669
	c5.541,0.389,11.248-0.318,16.809-2.336c10.275-3.727,18.117-11.156,22.634-20.223c9.039,4.157,19.648,4.907,29.741,1.246
	c10.485-3.803,18.521-11.851,22.891-22.029c5.341-12.459,4.7-10.768,14.868-5.408c11.615,6.116,22.101,10.262,35.369,5.451
	c16.896-6.127,21.928-24.864,22.369-41.728c12.263,18.524,31.489,33.007,55.17,24.418c16.221-5.884,26.571-20.78,27.451-36.99
	c11.896,8.811,27.831,11.695,42.793,6.269c14.075-5.105,17.912-15.285,27.165-25.195c13.829-14.813,36.744-3.56,54.168-9.88
	c10.434-3.784,18.727-10.815,24.243-19.511c8.6-0.137,17.321-1.654,25.858-4.751c8.086-2.933,15.395-7.06,21.824-12.087
	c17.687,1.591,35.994-0.553,53.793-7.009c64.986-23.572,98.557-95.364,74.984-160.353c-9.168-25.275-25.648-45.77-46.172-60.026
	C1067.837,655.44,1072.597,626.563,1062.747,599.408z"/>
<rect x="2185" y="522.695" fill="none" width="6" height="0"/>
<rect y="3" display="none" fill="#AAD157" width="1900" height="897"/>
<g>
	<circle opacity="0.15" fill="#FFFFFF" cx="1295.67" cy="124.759" r="502.346"/>
</g>
<g>
	<ellipse opacity="0.15" fill="#FFFFFF" cx="1202.843" cy="0" rx="396.67" ry="408.346"/>
</g>
<linearGradient id="SVGID_2_" gradientUnits="userSpaceOnUse" x1="2007.7207" y1="825.418" x2="1689.8014" y2="641.8672">
	<stop  offset="0" style="stop-color:#A8D058"/>
	<stop  offset="0.1104" style="stop-color:#AED384"/>
	<stop  offset="0.2868" style="stop-color:#B6D9BC"/>
	<stop  offset="0.4121" style="stop-color:#B9DEE0"/>
	<stop  offset="0.4734" style="stop-color:#BBDFEE"/>
	<stop  offset="0.8424" style="stop-color:#D4EEF8"/>
</linearGradient>
<path fill="url(#SVGID_2_)" d="M1863.651,393.704c-20.815,28.122-14.889,67.801,13.229,88.61c0.623,0.459,1.257,0.891,1.89,1.322
	c-3.429,2.172-6.535,4.969-9.096,8.425c-6.849,9.257-8.255,20.856-4.817,30.996c-19.996-8.039-43.636-2.016-57.061,16.12
	c-6.138,8.297-9.206,17.909-9.469,27.498c-29.943-6.926-62.498,3.909-81.947,30.191c-26.145,35.324-18.698,85.16,16.625,111.3
	c3.229,2.396,6.585,4.494,10.033,6.331c-15.96-0.152-31.76,7.07-41.978,20.873c-9.387,12.686-12.079,28.261-8.722,42.506
	c-27.455-12.391-60.767-4.471-79.412,20.727c-21.484,29.027-15.366,69.979,13.661,91.463c1.263,0.932,2.553,1.795,3.86,2.624
	c-10.462,1.466-20.351,6.952-27.135,16.117c-8.696,11.751-10.1,26.616-5.09,39.284c-19.961-2.52-40.665,5.51-53.484,22.832
	c-6.609,8.929,369.197,37.594,427.604-84.72c77.377-162.043,8.05-484.929-20.082-505.747
	C1924.145,359.646,1884.469,365.573,1863.651,393.704z"/>
<path fill="#A3DDEC" d="M967.728,578.906c-16.244-44.397-65.401-67.217-109.793-50.977c-44.397,16.241-67.222,65.393-50.979,109.788
	c2.442,6.672,5.642,12.848,9.438,18.487c-48.624,17.949-64.618,55.799-54.704,94.121c-8.443-13.106-25.083-19.123-40.346-13.54
	c-17.686,6.469-26.782,26.053-20.309,43.744c1.835,5.024,4.763,9.325,8.371,12.809c-19.793,10.401-32.979,29.343-36.613,50.473
	c-12.133-6.96-27.129-8.727-41.291-3.546c-20.554,7.518-33.028,27.35-32.168,48.107c-5.916-1.389-12.289-1.142-18.423,1.102
	c-9.283,3.396-16.049,10.618-19.2,19.225c-12.898-12.559-32.29-17.422-50.324-10.824c-10.558,3.859-18.92,11.045-24.421,19.907
	c-14.477-19.963-40.928-28.794-65.236-19.901c-22.497,8.23-36.602,29.244-37.137,51.828c-12.431-7.139-27.813-8.945-42.33-3.635
	c-20.21,7.393-32.804,26.399-33.01,46.713c-10.133-8.793-24.601-11.971-38.086-7.036c-1.516,0.553-2.954,1.221-4.356,1.94
	c-0.038-0.103-0.067-0.207-0.103-0.311c-11.504-31.44-46.322-47.608-77.764-36.106c-19.39,7.093-32.957,23.056-37.827,41.622
	c-9.373-14.107-25.932-21.84-42.756-19.982c0.823-5.429,0.333-11.135-1.684-16.651c-6.421-17.552-25.851-26.571-43.401-20.152
	c-17.549,6.419-26.569,25.849-20.15,43.398c4.543,12.419,15.607,20.534,27.904,21.962c-3.922,9.977-4.393,21.354-0.422,32.209
	c6.748,18.439,32.668,63.353,39.042,80.772c11.807,32.276,47.546,48.869,79.826,37.062c9.689-3.544,17.948-9.254,24.467-16.371
	c6.697,1.089,13.742,0.543,20.567-1.955c12.021-4.396,20.724-13.842,24.606-25.061c9.478,5.52,21.242,6.938,32.345,2.877
	c11.428-4.18,19.622-13.266,23.141-24.002c8.814,6.242,20.441,8.203,31.352,4.211c6.807-2.488,12.317-6.939,16.171-12.463
	c11.816,7.578,26.885,9.783,41.08,4.59c15.845-5.797,26.582-19.324,29.611-34.754c5.541,0.373,11.248-0.348,16.804-2.377
	c10.263-3.757,18.086-11.21,22.577-20.288c9.051,4.132,19.661,4.854,29.745,1.168c10.474-3.833,18.488-11.903,22.829-22.094
	c5.309-12.474,4.669-10.78,14.857-5.449c11.626,6.085,22.122,10.202,35.379,5.353c16.88-6.169,21.862-24.923,22.258-41.787
	c12.312,18.492,31.577,32.923,55.233,24.267c16.207-5.927,26.516-20.853,27.351-37.063c11.923,8.778,27.864,11.62,42.81,6.15
	c14.063-5.144,17.873-15.332,27.099-25.27c13.789-14.847,36.732-3.656,54.143-10.024c10.421-3.813,18.694-10.868,24.188-19.577
	c8.599-0.16,17.319-1.703,25.845-4.822c8.078-2.954,15.377-7.1,21.792-12.145c17.691,1.543,35.993-0.652,53.773-7.159
	c64.924-23.751,98.298-95.633,74.546-160.552c-9.236-25.255-25.772-45.701-46.334-59.902
	C972.968,634.925,977.648,606.033,967.728,578.906z"/>
<path fill="#BDE5EE" d="M1867.436,624.25c-34.986,0-63.354,28.366-63.354,63.349c0,0.774,0.03,1.541,0.06,2.306
	c-3.784-1.463-7.881-2.298-12.181-2.298c-11.516,0-21.676,5.771-27.78,14.566c-5.434-20.856-24.341-36.274-46.903-36.274
	c-10.322,0-19.873,3.251-27.737,8.743c-12.245-28.187-40.321-47.909-73.018-47.909c-43.945,0-79.576,35.631-79.576,79.574
	c0,4.021,0.306,7.969,0.882,11.831c-9.37-12.917-24.574-21.323-41.749-21.323c-15.782,0-29.901,7.102-39.356,18.274
	c-6.371-29.438-32.553-51.502-63.902-51.502c-36.109,0-65.39,29.28-65.39,65.392c0,1.57,0.077,3.12,0.187,4.665
	c-7.402-7.537-17.696-12.224-29.094-12.224c-14.618,0-27.408,7.718-34.606,19.278c-9.851-17.545-28.623-29.409-50.171-29.409
	c-11.107,0-21.472,3.156-30.264,8.611c-5.134-48.867-46.457-86.957-96.683-86.957c-13.094,0-25.58,2.606-36.98,7.299
	c0.04-0.73,0.112-1.455,0.112-2.198c0-22.524-18.261-40.786-40.787-40.786c-22.523,0-40.785,18.262-40.785,40.786
	c0,9.731,3.421,18.659,9.107,25.669c-5.687,7.014-9.107,15.938-9.107,25.67c0,15.486-23.395,319.135,30.304,319.135
	c27.545-0.012,842.076-6.373,905.897-6.373c34.998,0,26.239-279.55,26.239-314.546C1930.8,652.616,1902.432,624.25,1867.436,624.25z
	"/>
<g>
	<g>
		<path fill="#5A202B" d="M1447.385,444.719l-3.353-15.482l-0.722-3.332c-44.888,13.117-41.133,57.824-39.343,69.426
			c0.222-9.882,2.02-25.096,9.992-36.286C1420.35,450.078,1430.682,443.685,1447.385,444.719z"/>
		<path fill="#5A202B" d="M1469.468,444.719l3.353-15.482l0.722-3.332c44.889,13.117,41.132,57.824,39.347,69.426
			c-0.227-9.882-2.02-25.096-9.994-36.286C1496.505,450.078,1486.168,443.685,1469.468,444.719z"/>
		<g>
			<path fill="#EB4864" d="M1434.205,383.863l-0.021-0.105c-2.406-11.116-12.332-15.381-22.053-9.484
				c0,0-19.844,12.111-30.467,40.212C1393.627,395.818,1415.365,369.009,1434.205,383.863z"/>
			<path fill="#BF2A44" d="M1434.205,383.863c-18.84-14.854-40.578,11.956-52.541,30.624c-7.066,18.696-10.059,44.458-0.377,78.483
				c2.906,10.229,6.891,21.165,12.326,32.925c7.109,0,11.903-9.254,10.656-20.563c0,0-0.441-4.027-0.302-10.002
				c-1.79-11.602-5.545-56.309,39.343-69.426l-0.584-2.683L1434.205,383.863z"/>
			<path fill="#EB4864" d="M1535.569,415.543c-10.516-28.85-30.847-41.269-30.847-41.269c-9.124-5.537-18.428-2.116-21.525,7.519
				C1501.84,371.679,1523.608,397.852,1535.569,415.543z"/>
			<path fill="#BF2A44" d="M1483.197,381.792c-0.204,0.628-0.383,1.282-0.531,1.965l-8.543,39.464l-0.581,2.683
				c44.889,13.117,41.132,57.824,39.347,69.426c0.14,5.975-0.308,10.002-0.308,10.002c-1.243,11.309,3.548,20.563,10.657,20.563
				c5.434-11.76,9.416-22.695,12.327-32.925c9.5-33.396,6.784-58.817,0.004-77.427
				C1523.608,397.852,1501.84,371.679,1483.197,381.792z"/>
		</g>
	</g>
	<g>
		<linearGradient id="SVGID_3_" gradientUnits="userSpaceOnUse" x1="1459.0488" y1="429.1494" x2="1459.0488" y2="919.9401">
			<stop  offset="0" style="stop-color:#3F1313"/>
			<stop  offset="0.0384" style="stop-color:#5C1F1C"/>
			<stop  offset="0.0963" style="stop-color:#882923"/>
			<stop  offset="0.1508" style="stop-color:#AF2D27"/>
			<stop  offset="0.2004" style="stop-color:#CE2D27"/>
			<stop  offset="0.2433" style="stop-color:#E22B26"/>
			<stop  offset="0.2747" style="stop-color:#EE2A26"/>
			<stop  offset="0.3415" style="stop-color:#F0492C"/>
			<stop  offset="0.4837" style="stop-color:#F58047"/>
			<stop  offset="0.6617" style="stop-color:#FDC176"/>
			<stop  offset="0.6894" style="stop-color:#FDCB82"/>
			<stop  offset="0.7605" style="stop-color:#FDE19C"/>
			<stop  offset="0.8214" style="stop-color:#FDEFAE"/>
			<stop  offset="0.8647" style="stop-color:#FDF7B5"/>
		</linearGradient>
		<polygon fill="url(#SVGID_3_)" points="1479.375,456.433 1459.05,451.806 1438.725,456.433 1386.415,900 1459.05,900 
			1531.682,900 		"/>
		<linearGradient id="SVGID_4_" gradientUnits="userSpaceOnUse" x1="1459.0488" y1="442.7109" x2="1459.0488" y2="923.3398">
			<stop  offset="0.297" style="stop-color:#F2673A"/>
			<stop  offset="0.5212" style="stop-color:#FBF49C"/>
			<stop  offset="1" style="stop-color:#FDFCE7"/>
		</linearGradient>
		<polygon fill="url(#SVGID_4_)" points="1478.613,900 1439.483,900 1451.894,459.044 1466.205,459.044 		"/>
	</g>
	<path fill="#F7EAC3" d="M1501.383,326.198c2.885-44.125,1.793-77.604-1.502-102.986c-11.244-8.814-25.37-14.114-40.764-14.114
		c-15.391,0-29.52,5.3-40.758,14.114c-3.303,25.382-4.392,58.86-1.504,102.986c0.336,5.105,0.727,10.373,1.175,15.777h82.175
		C1500.652,336.571,1501.044,331.303,1501.383,326.198z"/>
	<g>
		<path fill="#8D1F32" d="M1500.205,341.976h-82.175c0.393,4.754,0.841,9.649,1.319,14.628h79.541
			C1499.363,351.625,1499.811,346.726,1500.205,341.976z"/>
		<path fill="#551924" d="M1419.35,356.604c0.112,1.181,0.217,2.338,0.334,3.532c17.619,8.725,44.502,11.827,78.78,0.88
			c0.149-1.495,0.278-2.939,0.427-4.412H1419.35z"/>
	</g>
	<path fill="#FBB163" d="M1419.684,360.136c1.198,12.046,2.658,24.753,4.41,38.181l69.909,1.097
		c1.772-13.507,3.245-26.278,4.461-38.397L1419.684,360.136z"/>
	<path fill="#F7EAC3" d="M1424.094,398.316c2.672,20.486,6.037,42.678,10.146,66.607c0.255,1.463,0.482,2.867,0.735,4.346h24.142
		h24.145c0.243-1.4,0.457-2.731,0.698-4.119c4.055-23.592,7.39-45.49,10.043-65.737
		C1461.958,385.357,1437.311,392.014,1424.094,398.316z"/>
	<g>
		<path fill="#BF2A44" d="M1495.359,198.063c-2.521-10.583-5.477-19.09-8.605-25.965c-8.408-3.902-17.751-6.107-27.637-6.107
			c-9.883,0-19.226,2.205-27.636,6.107c-3.124,6.875-6.082,15.381-8.604,25.965c-1.749,7.352-3.288,15.68-4.519,25.149
			c11.238-8.814,25.367-14.114,40.758-14.114c15.394,0,29.52,5.3,40.764,14.114C1498.646,213.744,1497.105,205.415,1495.359,198.063
			z"/>
		<path fill="#FBB163" d="M1459.117,143.541c0,0-15.134,1.034-27.636,28.558c8.41-3.902,17.753-6.107,27.636-6.107
			c9.886,0,19.229,2.205,27.637,6.107C1474.254,144.575,1459.117,143.541,1459.117,143.541z"/>
	</g>
	<path opacity="0.25" fill="#FCF5A4" d="M1456.299,147.724c-5.825,0.008-19.331,15.809-27.749,45.763
		c-16.706,59.424-10.321,137.319-2.639,195.905c1.886,14.393,11.407,74.582,11.407,74.582h15.916
		C1453.234,463.974,1474.391,147.702,1456.299,147.724z"/>
	<path fill="#BF2A44" d="M1463.104,517.701c0,4.521-0.484,8.193-4.054,8.193l0,0c-3.021,0-4.055-3.672-4.055-8.193l-8.272-141.48
		c0-4.524,7.804-8.192,12.327-8.192l0,0c4.523,0,12.327,3.667,12.327,8.192L1463.104,517.701z"/>
	<g>
		<circle fill="#551924" cx="1459.809" cy="315.813" r="13.547"/>
		<circle fill="#BF2A44" cx="1459.118" cy="314.657" r="13.546"/>
		<path fill="#A5DFF9" d="M1468.887,314.657c0,5.39-4.374,9.761-9.77,9.761c-5.391,0-9.764-4.371-9.764-9.761
			c0-5.397,4.373-9.768,9.764-9.768C1464.513,304.89,1468.887,309.26,1468.887,314.657z"/>
		<g opacity="0.65">
			<path fill="#72C9F1" d="M1466.357,308.154c-1.788-1.989-4.356-3.265-7.24-3.265c-5.391,0-9.764,4.371-9.764,9.768
				c0,1.01,0.202,1.959,0.482,2.878C1450.983,314.075,1454.74,307.29,1466.357,308.154z"/>
		</g>
		<path fill="#FFFFFF" d="M1456.133,315.235c0,0.867-0.706,1.571-1.571,1.571c-0.868,0-1.57-0.704-1.57-1.571
			c0-0.872,0.702-1.576,1.57-1.576C1455.427,313.659,1456.133,314.363,1456.133,315.235z"/>
	</g>
	<g>
		<circle fill="#551924" cx="1460.637" cy="258.475" r="30.246"/>
		<circle fill="#BF2A44" cx="1459.119" cy="255.89" r="30.246"/>
		<path fill="#A5DFF9" d="M1480.917,255.89c0,12.037-9.759,21.797-21.8,21.797s-21.799-9.76-21.799-21.797
			c0-12.045,9.758-21.804,21.799-21.804S1480.917,243.845,1480.917,255.89z"/>
		<g opacity="0.65">
			<path fill="#72C9F1" d="M1475.275,241.373c-3.992-4.443-9.72-7.287-16.158-7.287c-12.041,0-21.799,9.759-21.799,21.804
				c0,2.255,0.441,4.378,1.075,6.431C1440.958,254.589,1449.342,239.441,1475.275,241.373z"/>
		</g>
		<path fill="#FFFFFF" d="M1456.954,248.208c0,2.302-1.872,4.176-4.177,4.176c-2.312,0-4.182-1.875-4.182-4.176
			c0-2.311,1.87-4.185,4.182-4.185C1455.082,244.023,1456.954,245.896,1456.954,248.208z"/>
		<path fill="#FFFFFF" d="M1450.528,258.145c0,1.405-1.14,2.544-2.545,2.544c-1.412,0-2.551-1.139-2.551-2.544
			c0-1.415,1.139-2.554,2.551-2.554C1449.389,255.591,1450.528,256.73,1450.528,258.145z"/>
	</g>
	<g>
		<path fill="#CC8B96" d="M1461.007,203.542c0,1.042-0.843,1.89-1.89,1.89c-1.042,0-1.889-0.848-1.889-1.89
			c0-1.051,0.847-1.891,1.889-1.891C1460.164,201.65,1461.007,202.491,1461.007,203.542z"/>
		<path fill="#FBB163" d="M1460.639,203.542c0,0.84-0.675,1.517-1.521,1.517c-0.834,0-1.518-0.677-1.518-1.517
			c0-0.841,0.684-1.52,1.518-1.52C1459.964,202.022,1460.639,202.701,1460.639,203.542z"/>
	</g>
	<g>
		<path fill="#CC8B96" d="M1472.081,204.68c0,1.042-0.847,1.89-1.894,1.89c-1.041,0-1.889-0.848-1.889-1.89
			c0-1.05,0.848-1.891,1.889-1.891C1471.234,202.79,1472.081,203.63,1472.081,204.68z"/>
		<path fill="#FBB163" d="M1471.709,204.68c0,0.841-0.675,1.518-1.521,1.518c-0.832,0-1.518-0.677-1.518-1.518
			c0-0.84,0.686-1.519,1.518-1.519C1471.034,203.161,1471.709,203.84,1471.709,204.68z"/>
	</g>
	<g>
		<path fill="#CC8B96" d="M1482.676,207.015c0,1.049-0.844,1.89-1.891,1.89c-1.043,0-1.893-0.841-1.893-1.89
			c0-1.043,0.85-1.891,1.893-1.891C1481.832,205.124,1482.676,205.972,1482.676,207.015z"/>
		<path fill="#FBB163" d="M1482.303,207.015c0,0.84-0.674,1.519-1.518,1.519c-0.837,0-1.52-0.678-1.52-1.519s0.683-1.52,1.52-1.52
			C1481.629,205.496,1482.303,206.175,1482.303,207.015z"/>
	</g>
	<g>
		<path fill="#CC8B96" d="M1492.536,211.215c0,1.051-0.847,1.891-1.892,1.891c-1.041,0-1.891-0.84-1.891-1.891
			c0-1.042,0.85-1.89,1.891-1.89C1491.689,209.325,1492.536,210.174,1492.536,211.215z"/>
		<path fill="#FBB163" d="M1492.162,211.215c0,0.839-0.673,1.519-1.518,1.519c-0.836,0-1.52-0.679-1.52-1.519
			c0-0.84,0.684-1.519,1.52-1.519C1491.489,209.697,1492.162,210.375,1492.162,211.215z"/>
	</g>
	<g>
		<path fill="#CC8B96" d="M1445.594,204.68c0,1.042,0.845,1.89,1.892,1.89c1.043,0,1.892-0.848,1.892-1.89
			c0-1.05-0.849-1.891-1.892-1.891C1446.438,202.79,1445.594,203.63,1445.594,204.68z"/>
		<path fill="#FBB163" d="M1445.968,204.68c0,0.841,0.673,1.518,1.518,1.518c0.837,0,1.52-0.677,1.52-1.518
			c0-0.84-0.683-1.519-1.52-1.519C1446.641,203.161,1445.968,203.84,1445.968,204.68z"/>
	</g>
	<g>
		<path fill="#CC8B96" d="M1434.999,207.015c0,1.049,0.845,1.89,1.891,1.89c1.043,0,1.892-0.841,1.892-1.89
			c0-1.043-0.849-1.891-1.892-1.891C1435.844,205.124,1434.999,205.972,1434.999,207.015z"/>
		<path fill="#FBB163" d="M1435.373,207.015c0,0.84,0.673,1.519,1.517,1.519c0.837,0,1.518-0.678,1.518-1.519
			s-0.681-1.52-1.518-1.52C1436.046,205.496,1435.373,206.175,1435.373,207.015z"/>
	</g>
	<g>
		<path fill="#CC8B96" d="M1425.141,211.215c0,1.051,0.843,1.891,1.89,1.891c1.042,0,1.891-0.84,1.891-1.891
			c0-1.042-0.849-1.89-1.891-1.89C1425.983,209.325,1425.141,210.174,1425.141,211.215z"/>
		<path fill="#FBB163" d="M1425.513,211.215c0,0.839,0.673,1.519,1.518,1.519c0.837,0,1.52-0.679,1.52-1.519
			c0-0.84-0.683-1.519-1.52-1.519C1426.186,209.697,1425.513,210.375,1425.513,211.215z"/>
	</g>
	<g>
		<path fill="#CC8B96" d="M1425.911,345.594c0,1.042-0.843,1.891-1.889,1.891c-1.043,0-1.892-0.849-1.892-1.891
			c0-1.05,0.849-1.89,1.892-1.89C1425.068,343.704,1425.911,344.544,1425.911,345.594z"/>
		<path fill="#FBB163" d="M1425.54,345.594c0,0.84-0.673,1.52-1.518,1.52c-0.837,0-1.521-0.679-1.521-1.52
			c0-0.841,0.685-1.519,1.521-1.519C1424.867,344.076,1425.54,344.753,1425.54,345.594z"/>
	</g>
	<g>
		<path fill="#CC8B96" d="M1433.688,345.594c0,1.042-0.844,1.891-1.891,1.891c-1.043,0-1.892-0.849-1.892-1.891
			c0-1.05,0.849-1.89,1.892-1.89C1432.844,343.704,1433.688,344.544,1433.688,345.594z"/>
		<path fill="#FBB163" d="M1433.316,345.594c0,0.84-0.676,1.52-1.52,1.52c-0.837,0-1.518-0.679-1.518-1.52
			c0-0.841,0.681-1.519,1.518-1.519C1432.641,344.076,1433.316,344.753,1433.316,345.594z"/>
	</g>
	<g>
		<path fill="#CC8B96" d="M1441.462,345.594c0,1.042-0.845,1.891-1.89,1.891c-1.042,0-1.889-0.849-1.889-1.891
			c0-1.05,0.847-1.89,1.889-1.89C1440.617,343.704,1441.462,344.544,1441.462,345.594z"/>
		<path fill="#FBB163" d="M1441.092,345.594c0,0.84-0.677,1.52-1.52,1.52c-0.836,0-1.519-0.679-1.519-1.52
			c0-0.841,0.683-1.519,1.519-1.519C1440.415,344.076,1441.092,344.753,1441.092,345.594z"/>
	</g>
	<g>
		<path fill="#CC8B96" d="M1449.24,345.594c0,1.042-0.847,1.891-1.891,1.891c-1.043,0-1.892-0.849-1.892-1.891
			c0-1.05,0.849-1.89,1.892-1.89C1448.394,343.704,1449.24,344.544,1449.24,345.594z"/>
		<path fill="#FBB163" d="M1448.867,345.594c0,0.84-0.674,1.52-1.518,1.52c-0.837,0-1.52-0.679-1.52-1.52
			c0-0.841,0.683-1.519,1.52-1.519C1448.193,344.076,1448.867,344.753,1448.867,345.594z"/>
	</g>
	<g>
		<path fill="#CC8B96" d="M1457.015,345.594c0,1.042-0.845,1.891-1.892,1.891c-1.041,0-1.889-0.849-1.889-1.891
			c0-1.05,0.848-1.89,1.889-1.89C1456.17,343.704,1457.015,344.544,1457.015,345.594z"/>
		<path fill="#FBB163" d="M1456.643,345.594c0,0.84-0.675,1.52-1.52,1.52c-0.836,0-1.518-0.679-1.518-1.52
			c0-0.841,0.682-1.519,1.518-1.519C1455.968,344.076,1456.643,344.753,1456.643,345.594z"/>
	</g>
	<g>
		<path fill="#CC8B96" d="M1464.789,345.594c0,1.042-0.845,1.891-1.892,1.891c-1.04,0-1.891-0.849-1.891-1.891
			c0-1.05,0.851-1.89,1.891-1.89C1463.944,343.704,1464.789,344.544,1464.789,345.594z"/>
		<path fill="#FBB163" d="M1464.415,345.594c0,0.84-0.673,1.52-1.518,1.52c-0.836,0-1.517-0.679-1.517-1.52
			c0-0.841,0.681-1.519,1.517-1.519C1463.742,344.076,1464.415,344.753,1464.415,345.594z"/>
	</g>
	<g>
		<path fill="#CC8B96" d="M1472.565,345.594c0,1.042-0.845,1.891-1.892,1.891c-1.041,0-1.891-0.849-1.891-1.891
			c0-1.05,0.85-1.89,1.891-1.89C1471.721,343.704,1472.565,344.544,1472.565,345.594z"/>
		<path fill="#FBB163" d="M1472.193,345.594c0,0.84-0.675,1.52-1.52,1.52c-0.836,0-1.52-0.679-1.52-1.52
			c0-0.841,0.684-1.519,1.52-1.519C1471.519,344.076,1472.193,344.753,1472.193,345.594z"/>
	</g>
	<g>
		<path fill="#CC8B96" d="M1480.34,345.594c0,1.042-0.843,1.891-1.89,1.891c-1.043,0-1.891-0.849-1.891-1.891
			c0-1.05,0.848-1.89,1.891-1.89C1479.497,343.704,1480.34,344.544,1480.34,345.594z"/>
		<path fill="#FBB163" d="M1479.97,345.594c0,0.84-0.675,1.52-1.52,1.52c-0.837,0-1.521-0.679-1.521-1.52
			c0-0.841,0.685-1.519,1.521-1.519C1479.295,344.076,1479.97,344.753,1479.97,345.594z"/>
	</g>
	<g>
		<path fill="#CC8B96" d="M1488.115,345.594c0,1.042-0.844,1.891-1.891,1.891c-1.043,0-1.889-0.849-1.889-1.891
			c0-1.05,0.846-1.89,1.889-1.89C1487.271,343.704,1488.115,344.544,1488.115,345.594z"/>
		<path fill="#FBB163" d="M1487.744,345.594c0,0.84-0.675,1.52-1.52,1.52c-0.834,0-1.518-0.679-1.518-1.52
			c0-0.841,0.684-1.519,1.518-1.519C1487.069,344.076,1487.744,344.753,1487.744,345.594z"/>
	</g>
	<g>
		<path fill="#CC8B96" d="M1495.893,345.594c0,1.042-0.847,1.891-1.892,1.891c-1.043,0-1.892-0.849-1.892-1.891
			c0-1.05,0.849-1.89,1.892-1.89C1495.046,343.704,1495.893,344.544,1495.893,345.594z"/>
		<path fill="#FBB163" d="M1495.519,345.594c0,0.84-0.673,1.52-1.518,1.52c-0.837,0-1.518-0.679-1.518-1.52
			c0-0.841,0.681-1.519,1.518-1.519C1494.846,344.076,1495.519,344.753,1495.519,345.594z"/>
	</g>
	<path fill="#EB4864" d="M1467.907,376.78c0,2.85-3.934,31.873-8.79,31.873c-4.854,0-8.787-29.023-8.787-31.873
		c0-2.85,3.934-6.646,8.787-6.646C1463.974,370.133,1467.907,373.93,1467.907,376.78z"/>
</g>
<circle fill="#FEDF70" cx="1223.679" cy="118.42" r="41.836"/>
<polygon fill="#FCF8CB" points="1734.973,256.083 1747.301,260.688 1734.973,265.293 1730.367,277.622 1725.762,265.293 
	1713.434,260.688 1725.762,256.083 1730.367,243.754 "/>
<polygon fill="#FCF8CB" points="1062.975,205.092 1075.302,209.697 1062.975,214.302 1058.367,226.631 1053.765,214.302 
	1041.434,209.697 1053.765,205.092 1058.367,192.763 "/>
<polygon fill="#FCF8CB" points="1650.616,418.656 1656.34,419.842 1650.616,421.026 1649.43,430.766 1648.244,421.026 
	1642.834,419.842 1648.244,418.656 1649.43,406.679 "/>
<polygon fill="#FCF8CB" points="1608.775,69.361 1614.499,70.547 1608.775,71.731 1607.589,81.471 1606.404,71.731 1600.993,70.547 
	1606.404,69.361 1607.589,57.384 "/>
<polygon fill="#FCF8CB" points="1225.256,675.955 1233.617,677.688 1225.256,679.42 1223.521,693.647 1221.792,679.42 
	1213.888,677.688 1221.792,675.955 1223.521,658.459 "/>
<polygon fill="#FCF8CB" points="1224.709,296.996 1230.433,298.183 1224.709,299.367 1223.521,309.106 1222.337,299.367 
	1216.927,298.183 1222.337,296.996 1223.521,285.019 "/>
<polygon fill="#FCF8CB" points="1359.44,118.354 1365.164,119.54 1359.44,120.725 1358.254,130.464 1357.068,120.725 
	1351.658,119.54 1357.068,118.354 1358.254,106.376 "/>
<polygon fill="#FCF8CB" points="1837.136,140.946 1844.832,143.821 1837.136,146.697 1834.261,154.395 1831.385,146.697 
	1823.688,143.821 1831.385,140.946 1834.261,133.249 "/>
<polygon fill="#FCF8CB" points="1287.948,756.12 1295.221,758.836 1287.948,761.551 1285.232,768.822 1282.516,761.551 
	1275.246,758.836 1282.516,756.12 1285.232,748.848 "/>
<polygon fill="#FCF8CB" points="1300.107,505.026 1310.221,508.805 1300.107,512.583 1296.329,522.695 1292.551,512.583 
	1282.438,508.805 1292.551,505.026 1296.329,494.914 "/>
<polygon fill="#FCF8CB" points="1581.481,738.702 1585.038,740.031 1581.481,741.359 1580.152,744.916 1578.824,741.359 
	1575.268,740.031 1578.824,738.702 1580.152,735.144 "/>
<polygon fill="#FCF8CB" points="1128.235,246.876 1131.792,248.205 1128.235,249.534 1126.906,253.09 1125.578,249.534 
	1122.021,248.205 1125.578,246.876 1126.906,243.318 "/>
<polygon fill="#FCF8CB" points="1133.121,504.111 1136.678,505.441 1133.121,506.77 1131.792,510.326 1130.463,506.77 
	1126.906,505.441 1130.463,504.111 1131.792,500.554 "/>
<polygon fill="#FCF8CB" points="1324.689,657.13 1328.246,658.459 1324.689,659.787 1323.36,663.344 1322.031,659.787 
	1318.476,658.459 1322.031,657.13 1323.36,653.571 "/>
<polygon fill="#FCF8CB" points="1586.367,565.085 1589.924,566.414 1586.367,567.742 1585.038,571.299 1583.709,567.742 
	1580.152,566.414 1583.709,565.085 1585.038,561.526 "/>
<polygon fill="#FCF8CB" points="1771.342,75.256 1774.898,76.585 1771.342,77.914 1770.014,81.47 1768.685,77.914 1765.128,76.585 
	1768.685,75.256 1770.014,71.698 "/>
<polygon fill="#FCF8CB" points="1687.83,588.68 1694.27,591.085 1687.83,593.49 1685.426,599.93 1683.021,593.49 1676.581,591.085 
	1683.021,588.68 1685.426,582.24 "/>
<circle fill="#FCF8CB" cx="1225.674" cy="418.723" r="4.235"/>
<circle fill="#FCF8CB" cx="1748.48" cy="430.637" r="8.609"/>
<circle fill="#FCF8CB" cx="1685.425" cy="164.922" r="3.942"/>
<circle fill="#FCF8CB" cx="1075.303" cy="81.471" r="3.942"/>
<circle fill="#FCF8CB" cx="1575.267" cy="285.018" r="3.942"/>
<circle fill="#FCF8CB" cx="1079.246" cy="371.62" r="8.609"/>
<radialGradient id="SVGID_5_" cx="1461.6406" cy="807.1162" r="575.8193" gradientUnits="userSpaceOnUse">
	<stop  offset="0" style="stop-color:#FFFFFF"/>
	<stop  offset="0.0523" style="stop-color:#FDFBE4"/>
	<stop  offset="0.0981" style="stop-color:#FCF9CE"/>
	<stop  offset="0.223" style="stop-color:#F2F6DE"/>
	<stop  offset="0.3746" style="stop-color:#E9F5ED"/>
	<stop  offset="0.526" style="stop-color:#E3F4F6"/>
	<stop  offset="0.6764" style="stop-color:#E1F3FA"/>
	<stop  offset="0.8267" style="stop-color:#E3F4FA"/>
	<stop  offset="0.8876" style="stop-color:#EBF7F9"/>
	<stop  offset="0.9163" style="stop-color:#F2F9F9"/>
	<stop  offset="1" style="stop-color:#F2FAFB"/>
</radialGradient>
<path fill="url(#SVGID_5_)" d="M1970.592,690.097c0-47.274-38.323-85.593-85.594-85.593c-47.274,0-85.596,38.318-85.596,85.593
	c0,7.105,0.885,14.002,2.514,20.605c-51.831,0.149-79.856,30.202-83.708,69.599c-3.429-15.209-16.993-26.577-33.241-26.577
	c-18.831,0-34.102,15.267-34.102,34.103c0,5.353,1.271,10.396,3.463,14.903c-22.163,2.971-41.053,16.229-51.726,34.827
	c-9.002-10.705-22.479-17.518-37.559-17.518c-21.888,0-40.415,14.338-46.737,34.128c-5.08-3.337-11.15-5.294-17.682-5.294
	c-9.885,0-18.718,4.457-24.636,11.457c-7.798-16.225-24.339-27.455-43.543-27.455c-11.241,0-21.561,3.874-29.771,10.308
	c-6.739-23.722-28.547-41.101-54.43-41.101c-23.955,0-44.421,14.889-52.684,35.914c-9.222-10.975-23.047-17.957-38.506-17.957
	c-21.518,0-39.873,13.523-47.049,32.529c-6.492-11.738-18.988-19.693-33.348-19.693c-1.615,0-3.195,0.135-4.759,0.329
	c0-0.11,0.008-0.218,0.008-0.329c0-33.48-27.145-60.625-60.625-60.625c-20.644,0-38.872,10.33-49.823,26.094
	c-3.953-16.469-16.85-29.418-33.288-33.457c2.639-4.814,4.139-10.34,4.139-16.216c0-18.687-15.146-33.835-33.835-33.835
	s-33.833,15.148-33.833,33.835c0,13.224,7.602,24.646,18.66,30.212c-7.109,8.021-11.462,18.543-11.462,30.104
	c0,19.637,8.915,70.72,8.915,89.269c0,34.368,27.864,62.229,62.233,62.229c10.317,0,20.039-2.523,28.604-6.969
	c5.914,3.321,12.722,5.231,19.986,5.231c12.8,0,24.22-5.882,31.72-15.083c7.004,8.439,17.566,13.814,29.388,13.814
	c12.171,0,22.986-5.718,29.979-14.594c6.132,8.894,16.379,14.729,27.998,14.729c7.245,0,13.949-2.286,19.467-6.15
	c8.494,11.178,21.885,18.422,37.004,18.422c16.871,0,31.6-9.016,39.747-22.463c5.076,2.256,10.683,3.537,16.598,3.537
	c10.93,0,20.835-4.311,28.173-11.293c7.08,6.99,16.798,11.313,27.533,11.313c11.154,0,21.453-4.824,29.031-12.904
	c9.269-9.891,8.09-8.52,15.821-0.014c8.833,9.71,17.276,17.183,31.391,17.185c17.972,0.002,29.092-15.897,35.257-31.599
	c5.211,21.595,18.347,41.766,43.537,41.766c17.255,0,32.064-10.475,38.419-25.412c8.179,12.339,22.175,20.484,38.091,20.484
	c14.973,0,22.051-8.261,34.129-14.422c18.051-9.211,35.755,9.183,54.29,9.183c11.099,0,21.292-3.782,29.443-10.075
	c8.131,2.805,16.847,4.352,25.929,4.352c8.601,0,16.879-1.387,24.638-3.92c16.084,7.525,34.025,11.752,52.959,11.752
	c69.129,0,125.168-56.042,125.168-125.173c0-26.888-8.504-51.772-22.937-72.173C1956.271,744.506,1970.592,718.982,1970.592,690.097
	z"/>
<radialGradient id="SVGID_6_" cx="196.5972" cy="724.5723" r="575.8121" gradientTransform="matrix(0.961 -0.2766 0.2766 0.961 140.0358 272.0557)" gradientUnits="userSpaceOnUse">
	<stop  offset="0" style="stop-color:#FFFFFF"/>
	<stop  offset="0.0523" style="stop-color:#FDFBE4"/>
	<stop  offset="0.0981" style="stop-color:#FCF9CE"/>
	<stop  offset="0.223" style="stop-color:#F2F6DE"/>
	<stop  offset="0.3746" style="stop-color:#E9F5ED"/>
	<stop  offset="0.526" style="stop-color:#E3F4F6"/>
	<stop  offset="0.6764" style="stop-color:#E1F3FA"/>
	<stop  offset="0.8267" style="stop-color:#E3F4FA"/>
	<stop  offset="0.8876" style="stop-color:#EBF7F9"/>
	<stop  offset="0.9163" style="stop-color:#F2F9F9"/>
	<stop  offset="1" style="stop-color:#F2FAFB"/>
</radialGradient>
<path fill="url(#SVGID_6_)" d="M986.104,660.749c-13.077-45.43-60.505-71.652-105.931-58.575
	c-45.429,13.076-71.655,60.502-58.578,105.931c1.966,6.828,4.725,13.211,8.117,19.106c-49.768,14.481-68.387,51.113-61.188,90.039
	c-7.503-13.668-23.683-20.84-39.297-16.346c-18.096,5.21-28.547,24.105-23.337,42.206c1.481,5.144,4.097,9.638,7.451,13.364
	c-20.477,8.984-34.961,26.951-40.074,47.775c-11.611-7.796-26.447-10.615-40.938-6.443c-21.034,6.054-34.872,24.959-35.473,45.725
	c-5.804-1.801-12.179-2.002-18.456-0.195c-9.5,2.734-16.755,9.461-20.505,17.825c-11.982-13.436-30.984-19.651-49.438-14.339
	c-10.803,3.109-19.648,9.688-25.758,18.141c-13.039-20.932-38.802-31.601-63.675-24.44c-23.021,6.626-38.568,26.596-40.692,49.087
	c-11.898-7.996-27.115-10.882-41.971-6.605c-20.678,5.952-34.576,24.025-36.214,44.275c-9.485-9.484-23.695-13.672-37.494-9.699
	c-1.552,0.446-3.034,1.013-4.482,1.633c-0.031-0.107-0.053-0.213-0.083-0.318c-9.262-32.175-42.855-50.751-75.029-41.489
	c-19.838,5.711-34.498,20.68-40.661,38.858c-8.354-14.733-24.33-23.609-41.244-22.943c1.204-5.357,1.117-11.082-0.509-16.729
	c-5.169-17.957-23.915-28.324-41.874-23.154c-17.959,5.17-28.322,23.916-23.153,41.874c3.658,12.707,14.123,21.581,26.29,23.87
	c-4.613,9.676-5.885,20.99-2.688,32.1c5.432,18.87,28.131,65.494,33.262,83.319c9.507,33.026,43.992,52.093,77.019,42.585
	c9.915-2.854,18.559-7.967,25.56-14.609c6.602,1.557,13.672,1.509,20.653-0.501c12.3-3.54,21.648-12.352,26.309-23.27
	c9.065,6.173,20.703,8.416,32.063,5.146c11.696-3.367,20.508-11.854,24.772-22.317c8.352,6.851,19.813,9.623,30.979,6.408
	c6.962-2.004,12.773-6.055,17.006-11.295c11.254,8.392,26.127,11.65,40.656,7.468c16.213-4.667,27.873-17.405,31.982-32.582
	c5.502,0.763,11.245,0.444,16.929-1.192c10.503-3.023,18.829-9.906,23.949-18.646c8.737,4.759,19.271,6.225,29.588,3.255
	c10.719-3.085,19.281-10.571,24.329-20.432c6.17-12.068,5.417-10.425,15.2-4.39c11.174,6.888,21.355,11.733,34.919,7.831
	c17.271-4.97,23.559-23.325,25.139-40.12c10.982,19.312,29.185,35.063,53.392,28.094c16.582-4.773,27.917-18.936,29.89-35.049
	c11.273,9.595,26.976,13.551,42.271,9.148c14.388-4.143,18.905-14.038,28.808-23.3c14.798-13.845,36.9-1.067,54.712-6.194
	c10.666-3.07,19.414-9.525,25.507-17.828c8.589,0.447,17.393-0.478,26.121-2.99c8.265-2.379,15.837-6.002,22.592-10.582
	c17.538,2.782,35.948,1.881,54.143-3.355c66.431-19.123,104.78-88.481,85.658-154.914c-7.438-25.838-22.495-47.399-42.008-63.012
	C987.393,716.996,994.095,688.507,986.104,660.749z"/>
<polygon fill="#FCF8CB" points="1846.336,566.314 1854.696,568.048 1846.336,569.779 1844.604,584.007 1842.871,569.779 
	1834.969,568.048 1842.871,566.314 1844.604,548.818 "/>
<polygon fill="#FCF8CB" points="1059.873,735.045 1068.231,736.777 1059.873,738.51 1058.139,752.737 1056.406,738.51 
	1048.504,736.777 1056.406,735.045 1058.139,717.549 "/>
<polyline fill="none" points="1001.5,3.5 1898,3.5 1898,900 1001.5,900 "/>
<rect x="-31.279" fill="none" width="1977.198" height="900"/>
<rect x="407" y="-62" fill="none" width="1496" height="1054"/>
<rect y="3" fill="none" width="1898" height="897"/>
</svg>
