<?xml version="1.0" encoding="utf-8"?>
<!-- Generator: Adobe Illustrator 16.0.0, SVG Export Plug-In . SVG Version: 6.00 Build 0)  -->
<!DOCTYPE svg PUBLIC "-//W3C//DTD SVG 1.1//EN" "http://www.w3.org/Graphics/SVG/1.1/DTD/svg11.dtd">
<svg version="1.1" id="Layer_1" xmlns="http://www.w3.org/2000/svg" xmlns:xlink="http://www.w3.org/1999/xlink" x="0px" y="0px"
	 width="896.955px" height="406.479px" viewBox="0 0 896.955 406.479" enable-background="new 0 0 896.955 406.479"
	 xml:space="preserve">
<g id="banner">
	
		<rect x="-49.614" y="-105.085" display="none" fill="#CCCCCC" stroke="#CCCCCC" stroke-miterlimit="10" width="1022" height="541.999"/>
	<g>
		<path fill="#CCCCCC" stroke="#CCCCCC" stroke-width="3" stroke-miterlimit="10" d="M817.51,208.683l-0.975-0.027l0.388-0.895
			c1.549-3.576,2.334-7.377,2.334-11.293c0-15.691-12.769-28.459-28.459-28.459c-9.899,0-18.938,5.029-24.177,13.449l-0.479,0.771
			l-0.586-0.692c-5.531-6.539-13.606-10.291-22.154-10.291c-15.995,0-29.009,13.014-29.009,29.008c0,2.551,0.338,5.096,1.004,7.567
			l0.226,0.832l-0.86,0.002c-22.776,0.062-41.308,18.642-41.308,41.418c0,22.841,18.582,41.421,41.422,41.421H816.27
			c22.84,0,41.421-18.58,41.421-41.421C857.689,227.528,840.04,209.347,817.51,208.683z"/>
	</g>
	<rect x="724.272" y="285.378" fill="#CCCCCC" stroke="#CCCCCC" stroke-miterlimit="10" width="79.745" height="27.086"/>
	<rect x="724.272" y="326.531" fill="#CCCCCC" stroke="#CCCCCC" stroke-miterlimit="10" width="79.745" height="27.088"/>
	<g>
		<g>
			<path fill="#CCCCCC" stroke="#CCCCCC" stroke-miterlimit="10" d="M706.368,327.054c-1.545,0-2.8-1.313-2.8-2.926
				c0-1.615,1.255-2.929,2.8-2.929c1.544,0,2.799,1.313,2.799,2.929C709.167,325.74,707.912,327.054,706.368,327.054z
				 M706.368,322.552c-0.831,0-1.508,0.707-1.508,1.576c0,0.866,0.677,1.575,1.508,1.575c0.83,0,1.508-0.709,1.508-1.575
				C707.876,323.259,707.198,322.552,706.368,322.552z"/>
		</g>
	</g>
	<g>
		<g>
			<path fill="#CCCCCC" stroke="#CCCCCC" stroke-miterlimit="10" d="M859.657,284.747h-5.468c-0.376,0-0.681-0.318-0.681-0.711
				c0-0.396,0.305-0.711,0.681-0.711h5.468c0.376,0,0.681,0.315,0.681,0.711C860.338,284.429,860.033,284.747,859.657,284.747z"/>
		</g>
	</g>
	<g>
		<g>
			<path fill="#CCCCCC" stroke="#CCCCCC" stroke-miterlimit="10" d="M853.849,206.067h-5.469c-0.376,0-0.681-0.317-0.681-0.711
				c0-0.395,0.305-0.711,0.681-0.711h5.469c0.376,0,0.681,0.316,0.681,0.711C854.529,205.749,854.225,206.067,853.849,206.067z"/>
		</g>
	</g>
	<g>
		<g>
			<path fill="#CCCCCC" stroke="#CCCCCC" stroke-miterlimit="10" d="M689.309,325.55h-5.469c-0.377,0-0.681-0.318-0.681-0.711
				c0-0.396,0.304-0.713,0.681-0.713h5.469c0.376,0,0.68,0.317,0.68,0.713C689.988,325.231,689.685,325.55,689.309,325.55z"/>
		</g>
	</g>
	<g>
		<g>
			<path fill="#CCCCCC" stroke="#CCCCCC" stroke-miterlimit="10" d="M832.026,175.376h-5.469c-0.377,0-0.68-0.318-0.68-0.711
				c0-0.394,0.303-0.711,0.68-0.711h5.469c0.375,0,0.68,0.317,0.68,0.711C832.706,175.058,832.401,175.376,832.026,175.376z"/>
		</g>
	</g>
	<g>
		<g>
			<path fill="#CCCCCC" stroke="#CCCCCC" stroke-miterlimit="10" d="M787.422,365.24h-4.88c-0.337,0-0.606-0.271-0.606-0.604
				c0-0.336,0.271-0.607,0.606-0.607h4.88c0.335,0,0.605,0.271,0.605,0.607C788.027,364.97,787.757,365.24,787.422,365.24z"/>
		</g>
	</g>
	<g>
		<g>
			<path fill="#CCCCCC" stroke="#CCCCCC" stroke-miterlimit="10" d="M854.327,353.373h-4.88c-0.336,0-0.605-0.271-0.605-0.606
				s0.271-0.607,0.605-0.607h4.88c0.336,0,0.607,0.271,0.607,0.607S854.663,353.373,854.327,353.373z"/>
		</g>
	</g>
	<g>
		<g>
			<path fill="#CCCCCC" stroke="#CCCCCC" stroke-miterlimit="10" d="M714.653,367.519h-4.88c-0.335,0-0.606-0.271-0.606-0.607
				s0.271-0.606,0.606-0.606h4.88c0.336,0,0.607,0.271,0.607,0.606S714.989,367.519,714.653,367.519z"/>
		</g>
	</g>
	<g>
		<g>
			<path fill="#CCCCCC" stroke="#CCCCCC" stroke-miterlimit="10" d="M840.731,344.604c-2.125,0-3.854-1.809-3.854-4.031
				c0-2.222,1.729-4.028,3.854-4.028c2.126,0,3.856,1.807,3.856,4.028C844.588,342.795,842.857,344.604,840.731,344.604z
				 M840.731,337.966c-1.375,0-2.492,1.17-2.492,2.606c0,1.438,1.117,2.607,2.492,2.607c1.377,0,2.495-1.17,2.495-2.607
				C843.226,339.136,842.108,337.966,840.731,337.966z"/>
		</g>
	</g>
	<g>
		<path fill="#CCCCCC" stroke="#CCCCCC" stroke-miterlimit="10" d="M753.854,364.634l1.848-1.847c0.235-0.237,0.235-0.62,0-0.858
			c-0.236-0.236-0.622-0.236-0.858,0l-1.848,1.848l-1.848-1.848c-0.237-0.236-0.62-0.236-0.859,0c-0.235,0.238-0.235,0.621,0,0.858
			l1.849,1.847l-1.849,1.848c-0.235,0.238-0.235,0.623,0,0.859c0.119,0.119,0.275,0.178,0.431,0.178c0.156,0,0.311-0.059,0.43-0.178
			l1.848-1.849l1.848,1.849c0.119,0.119,0.273,0.178,0.429,0.178c0.156,0,0.313-0.059,0.431-0.178c0.235-0.236,0.235-0.621,0-0.859
			L753.854,364.634z"/>
	</g>
	<g>
		<path fill="#CCCCCC" stroke="#CCCCCC" stroke-miterlimit="10" d="M668.782,332.405l1.849-1.846c0.235-0.238,0.235-0.621,0-0.859
			c-0.237-0.237-0.622-0.237-0.858,0l-1.848,1.849l-1.849-1.849c-0.235-0.237-0.62-0.237-0.857,0c-0.237,0.238-0.237,0.621,0,0.859
			l1.848,1.846l-1.848,1.849c-0.237,0.237-0.237,0.623,0,0.858c0.119,0.117,0.272,0.178,0.43,0.178c0.155,0,0.31-0.061,0.429-0.178
			l1.849-1.848l1.848,1.848c0.119,0.117,0.273,0.178,0.429,0.178c0.156,0,0.313-0.061,0.431-0.178c0.235-0.235,0.235-0.621,0-0.858
			L668.782,332.405z"/>
	</g>
	<g>
		<path fill="#CCCCCC" stroke="#CCCCCC" stroke-miterlimit="10" d="M837.605,191.112l2.07-2.166c0.266-0.276,0.266-0.727,0-1.006
			c-0.267-0.274-0.696-0.274-0.962,0l-2.07,2.164l-2.07-2.164c-0.266-0.274-0.694-0.274-0.963,0c-0.266,0.279-0.266,0.729,0,1.006
			l2.07,2.166l-2.07,2.164c-0.266,0.277-0.266,0.729,0,1.006c0.134,0.14,0.307,0.21,0.481,0.21c0.174,0,0.348-0.07,0.48-0.21
			l2.07-2.163l2.07,2.163c0.133,0.14,0.308,0.21,0.479,0.21c0.175,0,0.35-0.07,0.481-0.21c0.266-0.276,0.266-0.729,0-1.006
			L837.605,191.112z"/>
	</g>
	<g>
		<path fill="#CCCCCC" stroke="#CCCCCC" stroke-miterlimit="10" d="M723.698,326.272v27.088h81.104v-27.088 M734.367,334.123
			c3.19,0,5.786,2.556,5.786,5.693c0,3.137-2.596,5.688-5.786,5.688c-3.188,0-5.778-2.552-5.778-5.688
			C728.589,336.679,731.18,334.123,734.367,334.123z"/>
	</g>
	<g>
		<path fill="#CCCCCC" stroke="#CCCCCC" stroke-miterlimit="10" d="M723.698,312.21h80.319v-27.099h-80.319V312.21z
			 M734.264,292.972c3.159,0,5.729,2.549,5.729,5.684c0,3.138-2.57,5.691-5.729,5.691c-3.156,0-5.725-2.555-5.725-5.691
			C728.54,295.521,731.107,292.972,734.264,292.972z"/>
	</g>
	<g>
		<path fill="#CCCCCC" stroke="#CCCCCC" stroke-miterlimit="10" d="M804.018,243.958h-80.319v27.348h80.319V243.958L804.018,243.958
			z"/>
	</g>
	<g>
		<path fill="#CCCCCC" stroke="#CCCCCC" stroke-miterlimit="10" d="M804.694,272.667c0.376,0,0.682-0.306,0.682-0.681v-28.444
			c0-0.375-0.306-0.681-0.682-0.681h-81.098c-0.375,0-0.683,0.306-0.683,0.681v28.444c0,0.375,0.308,0.681,0.683,0.681h39.867v11.35
			h-39.867c-0.375,0-0.683,0.308-0.683,0.685v28.444c0,0.375,0.308,0.68,0.683,0.68h39.867v11.353h-39.867
			c-0.375,0-0.683,0.307-0.683,0.682v28.438c0,0.375,0.308,0.68,0.683,0.68h81.098c0.376,0,0.682-0.305,0.682-0.68V325.86
			c0-0.375-0.306-0.682-0.682-0.682h-39.867v-11.353h39.867c0.376,0,0.682-0.305,0.682-0.68V284.7c0-0.378-0.306-0.685-0.682-0.685
			h-39.867v-11.35L804.694,272.667L804.694,272.667z M804.018,326.533v27.088h-79.745v-27.088H804.018z M804.018,285.374v27.098
			h-79.745v-27.098H804.018z M724.272,271.306V244.22h79.745v27.086H724.272z"/>
	</g>
	<g>
		<polygon fill="#CCCCCC" stroke="#CCCCCC" stroke-miterlimit="10" points="837.581,318.042 836.262,318.042 836.262,299.581 
			821.662,299.581 821.662,298.261 837.581,298.261 		"/>
		<circle fill="#CCCCCC" stroke="#CCCCCC" stroke-miterlimit="10" cx="734.544" cy="257.771" r="4.908"/>
	</g>
	<g>
		<path fill="#CCCCCC" stroke="#CCCCCC" stroke-miterlimit="10" d="M734.762,252.075c-3.134,0-5.684,2.553-5.684,5.69
			c0,3.135,2.55,5.687,5.684,5.687c3.138,0,5.688-2.552,5.688-5.687C740.451,254.628,737.899,252.075,734.762,252.075z
			 M734.762,262.368c-2.534,0-4.598-2.064-4.598-4.603c0-2.539,2.063-4.604,4.598-4.604c2.54,0,4.605,2.063,4.605,4.604
			C739.368,260.304,737.302,262.368,734.762,262.368z"/>
	</g>
	<g>
		<path fill="#CCCCCC" stroke="#CCCCCC" stroke-miterlimit="10" d="M734.762,304.608c3.138,0,5.688-2.553,5.688-5.69
			c0-3.133-2.552-5.683-5.688-5.683c-3.134,0-5.684,2.55-5.684,5.683C729.079,302.056,731.629,304.608,734.762,304.608z
			 M734.762,294.321c2.54,0,4.605,2.063,4.605,4.597c0,2.541-2.065,4.606-4.605,4.606c-2.534,0-4.598-2.065-4.598-4.606
			C730.165,296.384,732.228,294.321,734.762,294.321z"/>
	</g>
	<g>
		<path fill="#CCCCCC" stroke="#CCCCCC" stroke-miterlimit="10" d="M734.762,345.767c3.138,0,5.688-2.551,5.688-5.688
			c0-3.139-2.552-5.692-5.688-5.692c-3.134,0-5.684,2.555-5.684,5.692S731.629,345.767,734.762,345.767z M734.762,335.474
			c2.54,0,4.605,2.065,4.605,4.604s-2.065,4.604-4.605,4.604c-2.534,0-4.598-2.064-4.598-4.604S732.228,335.474,734.762,335.474z"/>
	</g>
	<g>
		<path fill="#CCCCCC" stroke="#CCCCCC" stroke-miterlimit="10" d="M794.467,258.423h-45.357c-0.365,0-0.66-0.295-0.66-0.66
			c0-0.363,0.295-0.66,0.66-0.66h45.357c0.363,0,0.661,0.297,0.661,0.66C795.128,258.128,794.83,258.423,794.467,258.423z"/>
	</g>
	<g>
		<path fill="#CCCCCC" stroke="#CCCCCC" stroke-miterlimit="10" d="M794.467,299.579h-45.357c-0.365,0-0.66-0.295-0.66-0.66
			s0.295-0.66,0.66-0.66h45.357c0.363,0,0.661,0.295,0.661,0.66S794.83,299.579,794.467,299.579z"/>
	</g>
	<g>
		<path fill="#CCCCCC" stroke="#CCCCCC" stroke-miterlimit="10" d="M794.467,340.737h-45.357c-0.365,0-0.66-0.297-0.66-0.66
			c0-0.364,0.295-0.659,0.66-0.659h45.357c0.363,0,0.661,0.295,0.661,0.659C795.128,340.44,794.83,340.737,794.467,340.737z"/>
	</g>
	<g>
		<polygon fill="#CCCCCC" stroke="#CCCCCC" stroke-miterlimit="10" points="753.654,242.862 752.336,242.862 752.336,206.017 
			740.451,206.017 740.451,204.696 753.654,204.696 		"/>
	</g>
	<g>
		<path fill="#CCCCCC" stroke="#CCCCCC" stroke-miterlimit="10" d="M821.675,240.281c-1.188,0-2.15,1.146-2.15,2.557
			s0.964,2.558,2.15,2.558c1.184,0,2.146-1.146,2.146-2.558S822.857,240.281,821.675,240.281z"/>
		<path fill="#CCCCCC" stroke="#CCCCCC" stroke-miterlimit="10" d="M821.599,311.421c-1.229,0-2.227,1.207-2.227,2.691
			c0,1.483,0.998,2.69,2.227,2.69c1.225,0,2.223-1.207,2.223-2.69C823.821,312.628,822.823,311.421,821.599,311.421z"/>
		<path fill="#CCCCCC" stroke="#CCCCCC" stroke-miterlimit="10" d="M707.549,271.454c-1.094,0-1.98,0.889-1.98,1.979
			s0.888,1.982,1.98,1.982c1.091,0,1.979-0.892,1.979-1.982S708.639,271.454,707.549,271.454z"/>
		<path fill="#CCCCCC" stroke="#CCCCCC" stroke-miterlimit="10" d="M782.651,201.7c-1.266,0-2.294,1.027-2.294,2.293
			c0,1.264,1.028,2.293,2.294,2.293c1.264,0,2.294-1.029,2.294-2.293C784.945,202.729,783.915,201.7,782.651,201.7z"/>
		<circle fill="#CCCCCC" stroke="#CCCCCC" stroke-miterlimit="10" cx="737.883" cy="205.65" r="2.087"/>
		<path fill="#CCCCCC" stroke="#CCCCCC" stroke-miterlimit="10" d="M821.682,372.062c-1.182,0-2.143,1.033-2.143,2.303
			c0,1.271,0.961,2.304,2.143,2.304c1.179,0,2.14-1.033,2.14-2.304C823.822,373.095,822.86,372.062,821.682,372.062z"/>
		<path fill="#CCCCCC" stroke="#CCCCCC" stroke-miterlimit="10" d="M836.954,317.729c-1.173,0-2.126,1.196-2.126,2.667
			c0,1.47,0.953,2.667,2.126,2.667c1.174,0,2.127-1.197,2.127-2.667S838.128,317.729,836.954,317.729z"/>
		<ellipse fill="#CCCCCC" stroke="#CCCCCC" stroke-miterlimit="10" cx="852.067" cy="299.059" rx="1.98" ry="2.243"/>
		<circle fill="#CCCCCC" stroke="#CCCCCC" stroke-miterlimit="10" cx="674.976" cy="294.792" r="1.98"/>
		<circle fill="#CCCCCC" stroke="#CCCCCC" stroke-miterlimit="10" cx="692.386" cy="246.796" r="1.98"/>
		<circle fill="#CCCCCC" stroke="#CCCCCC" stroke-miterlimit="10" cx="683.257" cy="351.525" r="1.981"/>
		<circle fill="#CCCCCC" stroke="#CCCCCC" stroke-miterlimit="10" cx="764.378" cy="214.198" r="2.326"/>
		<ellipse fill="#CCCCCC" stroke="#CCCCCC" stroke-miterlimit="10" cx="846.785" cy="257.965" rx="1.981" ry="2.181"/>
		<path fill="#CCCCCC" stroke="#CCCCCC" stroke-miterlimit="10" d="M737.81,202.054c-1.82,0-3.301,1.482-3.301,3.303
			c0,1.821,1.479,3.302,3.301,3.302s3.302-1.48,3.302-3.302C741.112,203.536,739.632,202.054,737.81,202.054z M737.81,207.337
			c-1.092,0-1.98-0.89-1.98-1.98s0.89-1.979,1.98-1.979c1.093,0,1.981,0.889,1.981,1.979S738.902,207.337,737.81,207.337z"/>
		<path fill="#CCCCCC" stroke="#CCCCCC" stroke-miterlimit="10" d="M691.206,242.095c-1.819,0-3.301,1.48-3.301,3.301
			c0,1.821,1.48,3.301,3.301,3.301c1.821,0,3.303-1.479,3.303-3.301C694.509,243.575,693.027,242.095,691.206,242.095z
			 M691.206,247.376c-1.092,0-1.979-0.89-1.979-1.98s0.889-1.979,1.979-1.979c1.094,0,1.98,0.889,1.98,1.979
			S692.3,247.376,691.206,247.376z"/>
		<path fill="#CCCCCC" stroke="#CCCCCC" stroke-miterlimit="10" d="M673.798,290.091c-1.821,0-3.303,1.479-3.303,3.301
			s1.48,3.301,3.303,3.301c1.818,0,3.301-1.479,3.301-3.301S675.616,290.091,673.798,290.091z M673.798,295.372
			c-1.094,0-1.98-0.89-1.98-1.98s0.888-1.979,1.98-1.979c1.092,0,1.979,0.889,1.979,1.979S674.889,295.372,673.798,295.372z"/>
		<path fill="#CCCCCC" stroke="#CCCCCC" stroke-miterlimit="10" d="M821.662,311.119c-1.819,0-3.302,1.482-3.302,3.302
			c0,1.821,1.481,3.303,3.302,3.303c1.821,0,3.303-1.48,3.303-3.303C824.965,312.603,823.482,311.119,821.662,311.119z
			 M821.662,316.403c-1.093,0-1.979-0.889-1.979-1.981s0.888-1.98,1.979-1.98c1.093,0,1.981,0.889,1.981,1.98
			C823.644,315.515,822.755,316.403,821.662,316.403z"/>
		<path fill="#CCCCCC" stroke="#CCCCCC" stroke-miterlimit="10" d="M836.923,317.382c-1.82,0-3.303,1.479-3.303,3.301
			s1.481,3.301,3.303,3.301c1.818,0,3.302-1.479,3.302-3.301S838.741,317.382,836.923,317.382z M836.923,322.662
			c-1.094,0-1.981-0.889-1.981-1.979s0.889-1.98,1.981-1.98c1.092,0,1.979,0.89,1.979,1.98S838.015,322.662,836.923,322.662z"/>
		<path fill="#CCCCCC" stroke="#CCCCCC" stroke-miterlimit="10" d="M851.888,295.62c-1.821,0-3.302,1.479-3.302,3.301
			s1.479,3.303,3.302,3.303c1.819,0,3.302-1.481,3.302-3.303S853.708,295.62,851.888,295.62z M851.888,300.901
			c-1.093,0-1.98-0.887-1.98-1.979c0-1.092,0.889-1.98,1.98-1.98s1.979,0.89,1.979,1.98
			C853.868,300.015,852.979,300.901,851.888,300.901z"/>
		<path fill="#CCCCCC" stroke="#CCCCCC" stroke-miterlimit="10" d="M821.662,370.985c-1.819,0-3.302,1.48-3.302,3.301
			c0,1.821,1.481,3.302,3.302,3.302c1.821,0,3.303-1.48,3.303-3.302C824.965,372.465,823.482,370.985,821.662,370.985z
			 M821.662,376.267c-1.093,0-1.979-0.887-1.979-1.98c0-1.092,0.888-1.979,1.979-1.979c1.093,0,1.981,0.889,1.981,1.979
			C823.644,375.38,822.755,376.267,821.662,376.267z"/>
		<path fill="#CCCCCC" stroke="#CCCCCC" stroke-miterlimit="10" d="M682.077,346.823c-1.819,0-3.302,1.482-3.302,3.304
			c0,1.82,1.481,3.301,3.302,3.301c1.821,0,3.302-1.48,3.302-3.301C685.379,348.305,683.897,346.823,682.077,346.823z
			 M682.077,352.106c-1.093,0-1.98-0.889-1.98-1.979c0-1.095,0.889-1.982,1.98-1.982c1.093,0,1.98,0.889,1.98,1.982
			C684.058,351.218,683.17,352.106,682.077,352.106z"/>
		<path fill="#CCCCCC" stroke="#CCCCCC" stroke-miterlimit="10" d="M821.662,239.562c-1.819,0-3.302,1.48-3.302,3.301
			c0,1.821,1.481,3.302,3.302,3.302c1.821,0,3.303-1.48,3.303-3.302C824.965,241.042,823.482,239.562,821.662,239.562z
			 M821.662,244.843c-1.093,0-1.979-0.889-1.979-1.98c0-1.091,0.888-1.979,1.979-1.979c1.093,0,1.981,0.889,1.981,1.979
			C823.643,243.954,822.755,244.843,821.662,244.843z"/>
		<path fill="#CCCCCC" stroke="#CCCCCC" stroke-miterlimit="10" d="M849.907,257.765c0-1.82-1.481-3.301-3.302-3.301
			s-3.302,1.479-3.302,3.301s1.48,3.301,3.302,3.301C848.426,261.065,849.907,259.585,849.907,257.765z M846.605,259.745
			c-1.093,0-1.981-0.89-1.981-1.98s0.89-1.979,1.981-1.979s1.979,0.889,1.979,1.979S847.697,259.745,846.605,259.745z"/>
		<path fill="#CCCCCC" stroke="#CCCCCC" stroke-miterlimit="10" d="M706.368,268.733c-1.819,0-3.301,1.48-3.301,3.302
			c0,1.82,1.48,3.301,3.301,3.301c1.821,0,3.303-1.48,3.303-3.301C709.671,270.213,708.188,268.733,706.368,268.733z
			 M706.368,274.017c-1.093,0-1.979-0.889-1.979-1.981s0.888-1.98,1.979-1.98s1.98,0.889,1.98,1.98
			C708.349,273.128,707.462,274.017,706.368,274.017z"/>
		<path fill="#CCCCCC" stroke="#CCCCCC" stroke-miterlimit="10" d="M764.146,211.151c-1.82,0-3.302,1.48-3.302,3.302
			s1.48,3.303,3.302,3.303s3.302-1.48,3.302-3.303C767.447,212.632,765.968,211.151,764.146,211.151z M764.146,216.435
			c-1.093,0-1.979-0.889-1.979-1.981s0.888-1.98,1.979-1.98s1.981,0.889,1.981,1.98
			C766.128,215.546,765.238,216.435,764.146,216.435z"/>
		<path fill="#CCCCCC" stroke="#CCCCCC" stroke-miterlimit="10" d="M782.341,200.978c-1.821,0-3.303,1.482-3.303,3.303
			c0,1.821,1.48,3.302,3.303,3.302c1.819,0,3.301-1.48,3.301-3.302C785.641,202.46,784.16,200.978,782.341,200.978z
			 M782.341,206.261c-1.094,0-1.98-0.889-1.98-1.98c0-1.094,0.889-1.981,1.98-1.981s1.979,0.889,1.979,1.981
			C784.32,205.372,783.432,206.261,782.341,206.261z"/>
	</g>
	<g>
		<rect x="763.485" y="217.095" fill="#CCCCCC" stroke="#CCCCCC" stroke-miterlimit="10" width="1.32" height="25.768"/>
	</g>
	<g>
		<polygon fill="#CCCCCC" stroke="#CCCCCC" stroke-miterlimit="10" points="775.176,242.862 773.854,242.862 773.854,211.935 
			781.68,211.935 781.68,206.921 783.001,206.921 783.001,213.255 775.176,213.255 		"/>
	</g>
	<g>
		<polygon fill="#CCCCCC" stroke="#CCCCCC" stroke-miterlimit="10" points="705.708,258.425 705.708,246.056 693.847,246.056 
			693.847,244.735 707.028,244.735 707.028,257.104 722.915,257.103 722.915,258.423 		"/>
	</g>
	<g>
		<rect x="705.708" y="257.765" fill="#CCCCCC" stroke="#CCCCCC" stroke-miterlimit="10" width="1.32" height="11.629"/>
	</g>
	<g>
		<polygon fill="#CCCCCC" stroke="#CCCCCC" stroke-miterlimit="10" points="822.322,258.425 805.376,258.425 805.376,257.104 
			821.001,257.104 821.001,245.396 822.322,245.396 		"/>
	</g>
	<g>
		<polygon fill="#CCCCCC" stroke="#CCCCCC" stroke-miterlimit="10" points="836.408,270.054 821.001,270.054 821.001,257.765 
			822.322,257.765 822.322,268.733 835.088,268.733 835.088,257.103 843.965,257.103 843.965,258.423 836.408,258.423 		"/>
	</g>
	<g>
		<polygon fill="#CCCCCC" stroke="#CCCCCC" stroke-miterlimit="10" points="822.322,371.646 821.001,371.646 821.001,340.737 
			805.376,340.737 805.376,339.417 822.322,339.417 		"/>
	</g>
	<g>
		<polygon fill="#CCCCCC" stroke="#CCCCCC" stroke-miterlimit="10" points="707.028,350.785 684.719,350.785 684.719,349.466 
			705.708,349.466 705.708,339.417 722.915,339.417 722.915,340.737 707.028,340.737 		"/>
	</g>
	<g>
		<polygon fill="#CCCCCC" stroke="#CCCCCC" stroke-miterlimit="10" points="822.322,311.78 821.001,311.78 821.001,299.581 
			805.376,299.579 805.376,298.257 822.322,298.261 		"/>
	</g>
	<g>
		<rect x="836.923" y="298.259" fill="#CCCCCC" stroke="#CCCCCC" stroke-miterlimit="10" width="12.323" height="1.32"/>
	</g>
	<g>
		<polygon fill="#CCCCCC" stroke="#CCCCCC" stroke-miterlimit="10" points="709.671,309.142 688.292,309.142 675.03,295.88 
			675.965,294.946 688.84,307.821 708.349,307.821 708.349,298.261 722.915,298.257 722.917,299.579 709.671,299.581 		"/>
	</g>
	
		<line fill="#CCCCCC" stroke="#CCCCCC" stroke-width="3.2" stroke-linejoin="round" stroke-dasharray="7.1162,7.1162" x1="501.05" y1="97.057" x2="765.93" y2="97.057"/>
	<path fill="#CCCCCC" stroke="#CCCCCC" stroke-width="3.2" stroke-linejoin="round" stroke-dasharray="7.1162,7.1162" d="
		M1033.93,97.057"/>
	<path fill="#CCCCCC" stroke="#CCCCCC" stroke-width="3.2" stroke-linejoin="round" stroke-dasharray="7.1162,7.1162" d="
		M679.05,127.057"/>
	
		<line fill="#CCCCCC" stroke="#CCCCCC" stroke-width="3.2" stroke-linejoin="round" stroke-miterlimit="10" stroke-dasharray="7" x1="765.016" y1="102.767" x2="765.016" y2="188.983"/>
	<g>
		
			<line fill="#CCCCCC" stroke="#CCCCCC" stroke-width="3.2" stroke-linejoin="round" stroke-miterlimit="10" stroke-dasharray="7" x1="514.016" y1="105.767" x2="514.016" y2="191.983"/>
		
			<line fill="#CCCCCC" stroke="#CCCCCC" stroke-width="3.2" stroke-linejoin="round" stroke-miterlimit="10" stroke-dasharray="7" x1="164.833" y1="148.786" x2="164.833" y2="277.036"/>
		<g>
			<g>
				
					<line fill="#CCCCCC" stroke="#CCCCCC" stroke-width="3.2" stroke-linejoin="round" x1="212.253" y1="97.057" x2="216.142" y2="97.057"/>
				
					<line fill="#CCCCCC" stroke="#CCCCCC" stroke-width="3.2" stroke-linejoin="round" stroke-dasharray="7.1162,7.1162" x1="224.049" y1="97.057" x2="488.93" y2="97.057"/>
				
					<line fill="#CCCCCC" stroke="#CCCCCC" stroke-width="3.2" stroke-linejoin="round" x1="492.885" y1="97.057" x2="496.772" y2="97.057"/>
			</g>
		</g>
		<g>
			<path fill="#CCCCCC" stroke="#CCCCCC" stroke-width="3.2" stroke-linejoin="round" stroke-miterlimit="10" d="M696.078,203.201"
				/>
		</g>
		<g>
			
				<rect x="559.28" y="233.927" fill="#CCCCCC" stroke="#CCCCCC" stroke-width="3.2" stroke-linejoin="round" stroke-miterlimit="10" width="157.348" height="40.953"/>
			
				<rect x="559.28" y="274.88" fill="#CCCCCC" stroke="#CCCCCC" stroke-width="3.2" stroke-linejoin="round" stroke-miterlimit="10" width="157.348" height="40.954"/>
			
				<rect x="559.28" y="315.834" fill="#CCCCCC" stroke="#CCCCCC" stroke-width="3.2" stroke-linejoin="round" stroke-miterlimit="10" width="157.348" height="40.952"/>
			<circle fill="#CCCCCC" stroke="#CCCCCC" stroke-miterlimit="10" cx="686.451" cy="294.278" r="9.16"/>
			<circle fill="#CCCCCC" stroke="#CCCCCC" stroke-miterlimit="10" cx="657.352" cy="294.278" r="9.161"/>
			
				<line fill="#CCCCCC" stroke="#CCCCCC" stroke-width="3.2" stroke-linejoin="round" stroke-miterlimit="10" x1="581.912" y1="329.844" x2="695.073" y2="329.844"/>
			
				<line fill="#CCCCCC" stroke="#CCCCCC" stroke-width="3.2" stroke-linejoin="round" stroke-miterlimit="10" x1="581.912" y1="340.62" x2="695.073" y2="340.62"/>
			
				<line fill="#CCCCCC" stroke="#CCCCCC" stroke-width="3.2" stroke-linejoin="round" stroke-miterlimit="10" x1="581.912" y1="287.813" x2="581.912" y2="300.746"/>
			
				<line fill="#CCCCCC" stroke="#CCCCCC" stroke-width="3.2" stroke-linejoin="round" stroke-miterlimit="10" x1="592.689" y1="287.813" x2="592.689" y2="300.746"/>
			
				<line fill="#CCCCCC" stroke="#CCCCCC" stroke-width="3.2" stroke-linejoin="round" stroke-miterlimit="10" x1="603.467" y1="287.813" x2="603.467" y2="300.746"/>
			
				<line fill="#CCCCCC" stroke="#CCCCCC" stroke-width="3.2" stroke-linejoin="round" stroke-miterlimit="10" x1="614.244" y1="287.813" x2="614.244" y2="300.746"/>
			
				<line fill="#CCCCCC" stroke="#CCCCCC" stroke-width="3.2" stroke-linejoin="round" stroke-miterlimit="10" x1="625.021" y1="287.813" x2="625.021" y2="300.746"/>
			
				<line fill="#CCCCCC" stroke="#CCCCCC" stroke-width="3.2" stroke-linejoin="round" stroke-miterlimit="10" x1="654.119" y1="294.278" x2="660.586" y2="294.278"/>
			
				<line fill="#CCCCCC" stroke="#CCCCCC" stroke-width="3.2" stroke-linejoin="round" stroke-miterlimit="10" x1="683.219" y1="294.278" x2="689.685" y2="294.278"/>
			<rect x="689.685" y="246.859" fill="#CCCCCC" stroke="#CCCCCC" stroke-miterlimit="10" width="4.311" height="14.011"/>
			<rect x="678.907" y="246.859" fill="#CCCCCC" stroke="#CCCCCC" stroke-miterlimit="10" width="4.312" height="14.011"/>
			<rect x="668.131" y="246.859" fill="#CCCCCC" stroke="#CCCCCC" stroke-miterlimit="10" width="4.311" height="14.011"/>
			<rect x="657.353" y="246.859" fill="#CCCCCC" stroke="#CCCCCC" stroke-miterlimit="10" width="4.312" height="14.011"/>
			<rect x="646.575" y="246.859" fill="#CCCCCC" stroke="#CCCCCC" stroke-miterlimit="10" width="4.312" height="14.011"/>
			
				<line fill="#CCCCCC" stroke="#CCCCCC" stroke-width="3.2" stroke-linejoin="round" stroke-miterlimit="10" x1="574.368" y1="247.938" x2="637.953" y2="247.938"/>
			
				<line fill="#CCCCCC" stroke="#CCCCCC" stroke-width="3.2" stroke-linejoin="round" stroke-miterlimit="10" x1="574.368" y1="258.715" x2="637.953" y2="258.715"/>
		</g>
		<g>
			<polygon fill="#CCCCCC" stroke="#CCCCCC" stroke-width="3.2" stroke-linejoin="round" stroke-miterlimit="10" points="
				581.912,148.786 581.912,114.3 567.902,114.3 567.902,148.786 543.113,148.786 543.113,161.719 606.7,161.719 606.7,148.786 			
				"/>
			
				<line fill="#CCCCCC" stroke="#CCCCCC" stroke-width="3.2" stroke-linejoin="round" stroke-miterlimit="10" x1="567.902" y1="148.786" x2="574.368" y2="148.786"/>
			
				<line fill="#CCCCCC" stroke="#CCCCCC" stroke-width="3.2" stroke-linejoin="round" stroke-miterlimit="10" x1="606.7" y1="155.253" x2="621.787" y2="155.253"/>
			
				<line fill="#CCCCCC" stroke="#CCCCCC" stroke-width="3.2" stroke-linejoin="round" stroke-miterlimit="10" x1="528.025" y1="155.253" x2="543.113" y2="155.253"/>
		</g>
		<g>
			<path fill="#CCCCCC" stroke="#CCCCCC" stroke-width="3.2" stroke-linejoin="round" stroke-miterlimit="10" d="M670.302,132.276"
				/>
		</g>
		<g>
			<path fill="#CCCCCC" stroke="#CCCCCC" stroke-width="3.2" stroke-linejoin="round" stroke-miterlimit="10" d="M87.35,164.73"/>
			<path fill="#CCCCCC" stroke="#CCCCCC" stroke-width="3.2" stroke-linejoin="round" stroke-miterlimit="10" d="M140.197,122.383
				c0,0,5.317,4.264,7.061,5.173"/>
			<path fill="#CCCCCC" stroke="#CCCCCC" stroke-width="3.2" stroke-linejoin="round" stroke-miterlimit="10" d="M244.269,128.897
				c0,0-2.401,4.111-2.505,7.271"/>
		</g>
		<g>
			<rect x="324.336" y="300.746" fill="#CCCCCC" stroke="#CCCCCC" stroke-miterlimit="10" width="61.431" height="40.952"/>
			<g>
				<path fill="#CCCCCC" stroke="#CCCCCC" stroke-miterlimit="10" d="M496.772,125.114c0-8.521-6.332-16.202-15.229-16.202H227.733
					c-8.899,0-16.558,7.682-16.558,16.202v127.134h285.598L496.772,125.114L496.772,125.114z"/>
				<path fill="#CCCCCC" stroke="#CCCCCC" stroke-width="3.2" stroke-linejoin="round" stroke-miterlimit="10" d="M211.176,252.247
					v33.999c0,8.522,7.658,14.5,16.558,14.5h253.812c8.896,0,15.229-5.978,15.229-14.5v-33.999H211.176z"/>
			</g>
			<path fill="#CCCCCC" stroke="#CCCCCC" stroke-miterlimit="10" d="M364.598,276.627c0,5.497-4.458,9.957-9.959,9.957
				s-9.958-4.46-9.958-9.957c0-5.503,4.457-9.96,9.958-9.96S364.598,271.124,364.598,276.627z"/>
			
				<rect x="312.481" y="341.698" fill="#CCCCCC" stroke="#CCCCCC" stroke-width="3.2" stroke-linejoin="round" stroke-miterlimit="10" width="82.984" height="10.777"/>
			
				<rect x="229.497" y="126.155" fill="#CCCCCC" stroke="#CCCCCC" stroke-width="3.2" stroke-linejoin="round" stroke-miterlimit="10" width="250.031" height="126.093"/>
			<g opacity="0.5">
				<rect x="246.74" y="142.32" fill="#CCCCCC" stroke="#CCCCCC" stroke-miterlimit="10" width="216.624" height="33.409"/>
				<rect x="340.502" y="184.352" fill="#CCCCCC" stroke="#CCCCCC" stroke-miterlimit="10" width="49.575" height="26.943"/>
				<rect x="247.818" y="184.352" fill="#CCCCCC" stroke="#CCCCCC" stroke-miterlimit="10" width="79.75" height="26.943"/>
				<rect x="404.089" y="184.352" fill="#CCCCCC" stroke="#CCCCCC" stroke-miterlimit="10" width="58.195" height="26.943"/>
				<rect x="246.74" y="219.917" fill="#CCCCCC" stroke="#CCCCCC" stroke-miterlimit="10" width="215.544" height="19.517"/>
			</g>
		</g>
		<g>
			<path fill="#CCCCCC" stroke="#CCCCCC" stroke-miterlimit="10" d="M618.554,188.123c0-5.734-4.321-10.237-10.059-10.237H406.248
				c-5.735,0-10.782,4.503-10.782,10.237V336.31h223.089V188.123L618.554,188.123z"/>
			<path fill="#CCCCCC" stroke="#CCCCCC" stroke-width="3.2" stroke-linejoin="round" stroke-miterlimit="10" d="M379.301,336.31
				v10.259c0,5.729,5.049,10.219,11.647,10.219h232.847c6.603,0,12.004-4.489,12.004-10.219V336.31H379.301z"/>
			
				<rect x="411.633" y="190.817" fill="#CCCCCC" stroke="#CCCCCC" stroke-width="3.2" stroke-linejoin="round" stroke-miterlimit="10" width="191.834" height="129.327"/>
			
				<line fill="#CCCCCC" stroke="#CCCCCC" stroke-width="3.2" stroke-linejoin="round" stroke-miterlimit="10" x1="494.616" y1="347.088" x2="519.405" y2="347.088"/>
			
				<rect x="571.135" y="202.673" opacity="0.2" fill="#CCCCCC" stroke="#CCCCCC" stroke-miterlimit="10" enable-background="new    " width="21.555" height="34.486"/>
			
				<rect x="424.564" y="202.673" opacity="0.2" fill="#CCCCCC" stroke="#CCCCCC" stroke-miterlimit="10" enable-background="new    " width="140.104" height="34.486"/>
			
				<rect x="424.564" y="247.938" opacity="0.2" fill="#CCCCCC" stroke="#CCCCCC" stroke-miterlimit="10" enable-background="new    " width="37.72" height="30.176"/>
			
				<rect x="469.829" y="247.938" opacity="0.2" fill="#CCCCCC" stroke="#CCCCCC" stroke-miterlimit="10" enable-background="new    " width="121.783" height="30.176"/>
			
				<rect x="424.564" y="287.813" opacity="0.2" fill="#CCCCCC" stroke="#CCCCCC" stroke-miterlimit="10" enable-background="new    " width="167.048" height="17.244"/>
		</g>
		<g>
			
				<rect x="126.036" y="235.005" fill="#CCCCCC" stroke="#CCCCCC" stroke-width="3.2" stroke-linejoin="round" stroke-miterlimit="10" width="157.347" height="40.953"/>
			
				<rect x="126.036" y="275.958" fill="#CCCCCC" stroke="#CCCCCC" stroke-width="3.2" stroke-linejoin="round" stroke-miterlimit="10" width="157.347" height="40.952"/>
			
				<rect x="126.036" y="316.91" fill="#CCCCCC" stroke="#CCCCCC" stroke-width="3.2" stroke-linejoin="round" stroke-miterlimit="10" width="157.347" height="40.954"/>
			<circle fill="#CCCCCC" stroke="#CCCCCC" stroke-miterlimit="10" cx="253.206" cy="295.357" r="9.161"/>
			<circle fill="#CCCCCC" stroke="#CCCCCC" stroke-miterlimit="10" cx="224.108" cy="295.357" r="9.161"/>
			
				<line fill="#CCCCCC" stroke="#CCCCCC" stroke-width="3.2" stroke-linejoin="round" stroke-miterlimit="10" x1="148.667" y1="330.922" x2="261.829" y2="330.922"/>
			
				<line fill="#CCCCCC" stroke="#CCCCCC" stroke-width="3.2" stroke-linejoin="round" stroke-miterlimit="10" x1="148.667" y1="341.698" x2="261.829" y2="341.698"/>
			
				<line fill="#CCCCCC" stroke="#CCCCCC" stroke-width="3.2" stroke-linejoin="round" stroke-miterlimit="10" x1="148.667" y1="288.891" x2="148.667" y2="301.823"/>
			
				<line fill="#CCCCCC" stroke="#CCCCCC" stroke-width="3.2" stroke-linejoin="round" stroke-miterlimit="10" x1="159.445" y1="288.891" x2="159.445" y2="301.823"/>
			
				<line fill="#CCCCCC" stroke="#CCCCCC" stroke-width="3.2" stroke-linejoin="round" stroke-miterlimit="10" x1="170.222" y1="288.891" x2="170.222" y2="301.823"/>
			
				<line fill="#CCCCCC" stroke="#CCCCCC" stroke-width="3.2" stroke-linejoin="round" stroke-miterlimit="10" x1="181" y1="288.891" x2="181" y2="301.823"/>
			
				<line fill="#CCCCCC" stroke="#CCCCCC" stroke-width="3.2" stroke-linejoin="round" stroke-miterlimit="10" x1="191.777" y1="288.891" x2="191.777" y2="301.823"/>
			
				<line fill="#CCCCCC" stroke="#CCCCCC" stroke-width="3.2" stroke-linejoin="round" stroke-miterlimit="10" x1="220.875" y1="295.357" x2="227.341" y2="295.357"/>
			
				<line fill="#CCCCCC" stroke="#CCCCCC" stroke-width="3.2" stroke-linejoin="round" stroke-miterlimit="10" x1="249.974" y1="295.357" x2="256.44" y2="295.357"/>
			<rect x="256.44" y="247.938" fill="#CCCCCC" stroke="#CCCCCC" stroke-miterlimit="10" width="4.31" height="14.012"/>
			<rect x="245.663" y="247.938" fill="#CCCCCC" stroke="#CCCCCC" stroke-miterlimit="10" width="4.312" height="14.012"/>
			<rect x="234.886" y="247.938" fill="#CCCCCC" stroke="#CCCCCC" stroke-miterlimit="10" width="4.311" height="14.012"/>
			<rect x="224.107" y="247.938" fill="#CCCCCC" stroke="#CCCCCC" stroke-miterlimit="10" width="4.312" height="14.012"/>
			<rect x="213.331" y="247.938" fill="#CCCCCC" stroke="#CCCCCC" stroke-miterlimit="10" width="4.312" height="14.012"/>
			
				<line fill="#CCCCCC" stroke="#CCCCCC" stroke-width="3.2" stroke-linejoin="round" stroke-miterlimit="10" x1="141.124" y1="249.015" x2="204.708" y2="249.015"/>
			
				<line fill="#CCCCCC" stroke="#CCCCCC" stroke-width="3.2" stroke-linejoin="round" stroke-miterlimit="10" x1="141.124" y1="259.792" x2="204.708" y2="259.792"/>
		</g>
		<g>
			<path fill="#CCCCCC" stroke="#CCCCCC" stroke-width="3.2" stroke-linejoin="round" stroke-miterlimit="10" d="M88.38,304.752
				c-11.488,0-20.803,9.313-20.803,20.803c0,6.266,2.773,11.88,7.155,15.692c2.411-2.404,6.324-4.229,8.181-5.053
				c1.735-0.771,2.288-2.142,2.444-3.066c-2.063-1.463-3.509-3.87-3.509-5.747v-8.761c0,0-0.833-7.299,6.467-7.299
				c7.299,0,6.466,7.299,6.466,7.299v8.761c0,1.877-1.017,4.284-3.079,5.747c0.155,0.926,0.917,2.296,2.65,3.066
				c1.771,0.785,5.52,2.479,7.944,4.719c4.162-3.804,6.829-9.273,6.829-15.358C109.127,314.066,99.869,304.752,88.38,304.752z"/>
			<path fill="#CCCCCC" stroke="#CCCCCC" stroke-width="3.2" stroke-linejoin="round" stroke-miterlimit="10" d="M92.625,333.128
				c0-0.005,0-0.008,0-0.01c0,0.002-0.685,0.005-0.685,0.01c2.063-1.463,2.841-3.87,2.841-5.747v-8.761c0,0,0.833-7.299-6.466-7.299
				c-7.3,0-6.467,7.299-6.467,7.299v8.761c0,1.877,1.445,4.284,3.509,5.747c0-0.005-0.009-0.008-0.006-0.01
				c-0.002,0.002-0.006,0.005-0.006,0.01c-0.158,0.926-0.695,2.296-2.43,3.066c-1.856,0.823-5.771,2.647-8.184,5.053
				c3.653,3.182,8.426,5.112,13.647,5.112c5.408,0,10.331-2.065,14.029-5.446c-2.425-2.238-5.824-3.934-7.595-4.719
				C93.081,335.424,92.625,334.054,92.625,333.128z"/>
		</g>
		<g>
			<path fill="#CCCCCC" stroke="#CCCCCC" stroke-width="3.2" stroke-linejoin="round" stroke-miterlimit="10" d="M192.213,58.671
				c-11.881,0-21.51,9.633-21.51,21.513c0,6.478,2.867,12.283,7.398,16.229c2.491-2.488,6.539-4.374,8.459-5.228
				c1.795-0.798,2.291-2.214,2.453-3.171c-2.134-1.511-3.703-4.002-3.703-5.943v-9.058c0,0-0.542-7.548,7.005-7.548
				c7.549,0,7.005,7.548,7.005,7.548v9.058c0,1.941-1.294,4.434-3.428,5.943c0.162,0.957,0.826,2.373,2.618,3.171
				c1.83,0.813,5.646,2.564,8.154,4.879c4.302-3.932,7.03-9.59,7.03-15.88C213.696,68.304,204.092,58.671,192.213,58.671z"/>
			<path fill="#CCCCCC" stroke="#CCCCCC" stroke-width="3.2" stroke-linejoin="round" stroke-miterlimit="10" d="M196.112,88.014
				c0-0.004-0.001-0.007-0.001-0.01c0,0.003-0.218,0.006-0.218,0.01c2.133-1.511,3.428-4.002,3.428-5.943v-9.058
				c0,0,0.543-7.548-7.005-7.548c-7.547,0-7.005,7.548-7.005,7.548v9.058c0,1.941,1.568,4.434,3.703,5.943
				c0-0.004,0.029-0.007,0.03-0.01c-0.001,0.003,0.013,0.006,0.013,0.01c-0.162,0.957-0.71,2.373-2.503,3.171
				c-1.92,0.854-5.962,2.738-8.456,5.228c3.777,3.287,8.713,5.284,14.115,5.284c5.591,0,10.684-2.137,14.508-5.633
				c-2.507-2.313-6.27-4.065-8.1-4.879C196.829,90.387,196.273,88.971,196.112,88.014z"/>
		</g>
		<g>
			
				<rect x="53.828" y="79.813" fill="#CCCCCC" stroke="#CCCCCC" stroke-width="3.2" stroke-linejoin="round" stroke-miterlimit="10" width="77.597" height="61.432"/>
			<rect x="60.294" y="86.278" fill="#CCCCCC" stroke="#CCCCCC" stroke-miterlimit="10" width="63.585" height="47.42"/>
			<polyline fill="#CCCCCC" stroke="#CCCCCC" stroke-width="3.2" stroke-linejoin="round" stroke-miterlimit="10" points="
				59.961,117.78 86.391,104.054 112.241,118.949 			"/>
			<polyline fill="#CCCCCC" stroke="#CCCCCC" stroke-width="3.2" stroke-linejoin="round" stroke-miterlimit="10" points="
				101.183,112.577 110.78,104.054 123.923,112.577 			"/>
			<circle fill="#CCCCCC" stroke="#CCCCCC" stroke-miterlimit="10" cx="97.783" cy="95.729" r="5.988"/>
		</g>
		<g>
			<polyline fill="#CCCCCC" stroke="#CCCCCC" stroke-width="3.2" stroke-linejoin="round" stroke-miterlimit="10" points="
				69.994,161.719 148.667,161.719 148.667,212.372 			"/>
			<polygon fill="#CCCCCC" stroke="#CCCCCC" stroke-width="3.2" stroke-linejoin="round" stroke-miterlimit="10" points="
				142.201,168.187 58.139,168.187 58.139,223.149 102.326,223.149 102.326,243.627 122.802,223.149 142.201,223.149 			"/>
			<polygon fill="#CCCCCC" stroke="#CCCCCC" stroke-miterlimit="10" points="47.362,208.062 92.625,208.062 92.625,238.238 
				69.994,238.238 69.994,248.871 57.855,238.238 47.362,238.238 			"/>
			
				<line fill="#CCCCCC" stroke="#CCCCCC" stroke-width="3.2" stroke-linejoin="round" stroke-miterlimit="10" x1="68.917" y1="191.896" x2="132.501" y2="191.896"/>
			
				<line fill="#CCCCCC" stroke="#CCCCCC" stroke-width="3.2" stroke-linejoin="round" stroke-miterlimit="10" x1="68.917" y1="180.04" x2="132.501" y2="180.04"/>
			
				<line fill="#CCCCCC" stroke="#CCCCCC" stroke-width="3.2" stroke-linejoin="round" stroke-miterlimit="10" x1="68.917" y1="202.673" x2="132.501" y2="202.673"/>
			
				<line fill="#CCCCCC" stroke="#CCCCCC" stroke-width="3.2" stroke-linejoin="round" stroke-miterlimit="10" x1="68.917" y1="216.684" x2="85.082" y2="216.684"/>
			
				<line fill="#CCCCCC" stroke="#CCCCCC" stroke-width="3.2" stroke-linejoin="round" stroke-miterlimit="10" x1="92.625" y1="213.45" x2="108.792" y2="213.45"/>
			
				<line fill="#CCCCCC" stroke="#CCCCCC" stroke-width="3.2" stroke-linejoin="round" stroke-miterlimit="10" x1="116.336" y1="213.45" x2="132.501" y2="213.45"/>
			
				<line fill="#CCCCCC" stroke="#CCCCCC" stroke-width="3.2" stroke-linejoin="round" stroke-miterlimit="10" x1="85.082" y1="227.46" x2="53.828" y2="227.46"/>
		</g>
		<g>
			<polyline fill="#CCCCCC" stroke="#CCCCCC" stroke-width="3.2" stroke-linejoin="round" stroke-miterlimit="10" points="
				600.233,133.698 678.907,133.698 678.907,184.352 			"/>
			<polygon fill="#CCCCCC" stroke="#CCCCCC" stroke-width="3.2" stroke-linejoin="round" stroke-miterlimit="10" points="
				672.44,140.165 588.379,140.165 588.379,195.128 632.564,195.128 632.564,215.605 653.042,195.128 672.44,195.128 			"/>
			<polygon fill="#CCCCCC" stroke="#CCCCCC" stroke-width="3.2" stroke-linejoin="round" stroke-miterlimit="10" points="
				577.602,180.04 622.866,180.04 622.866,210.218 600.233,210.218 600.233,220.85 588.095,210.218 577.602,210.218 			"/>
			
				<line fill="#CCCCCC" stroke="#CCCCCC" stroke-width="3.2" stroke-linejoin="round" stroke-miterlimit="10" x1="599.155" y1="163.875" x2="662.741" y2="163.875"/>
			
				<line fill="#CCCCCC" stroke="#CCCCCC" stroke-width="3.2" stroke-linejoin="round" stroke-miterlimit="10" x1="599.155" y1="152.02" x2="662.741" y2="152.02"/>
			
				<line fill="#CCCCCC" stroke="#CCCCCC" stroke-width="3.2" stroke-linejoin="round" stroke-miterlimit="10" x1="599.155" y1="174.652" x2="662.741" y2="174.652"/>
			
				<line fill="#CCCCCC" stroke="#CCCCCC" stroke-width="3.2" stroke-linejoin="round" stroke-miterlimit="10" x1="599.155" y1="188.662" x2="615.321" y2="188.662"/>
			
				<line fill="#CCCCCC" stroke="#CCCCCC" stroke-width="3.2" stroke-linejoin="round" stroke-miterlimit="10" x1="622.866" y1="185.429" x2="639.031" y2="185.429"/>
			
				<line fill="#CCCCCC" stroke="#CCCCCC" stroke-width="3.2" stroke-linejoin="round" stroke-miterlimit="10" x1="646.575" y1="185.429" x2="662.741" y2="185.429"/>
			
				<line fill="#CCCCCC" stroke="#CCCCCC" stroke-width="3.2" stroke-linejoin="round" stroke-miterlimit="10" x1="615.321" y1="199.439" x2="584.067" y2="199.439"/>
		</g>
		<g>
			<g>
				
					<rect x="514.016" y="47.48" fill="#CCCCCC" stroke="#CCCCCC" stroke-width="3.2" stroke-linejoin="round" stroke-miterlimit="10" width="29.098" height="26.943"/>
				
					<line fill="#CCCCCC" stroke="#CCCCCC" stroke-width="3.2" stroke-linejoin="round" stroke-miterlimit="10" x1="501.083" y1="69.036" x2="411.633" y2="69.036"/>
				
					<line fill="#CCCCCC" stroke="#CCCCCC" stroke-width="3.2" stroke-linejoin="round" stroke-miterlimit="10" x1="501.083" y1="52.869" x2="456.896" y2="52.869"/>
			</g>
			
				<line fill="#CCCCCC" stroke="#CCCCCC" stroke-width="3.2" stroke-linejoin="round" stroke-miterlimit="10" x1="542.963" y1="74.62" x2="513.814" y2="46.932"/>
		</g>
		<g>
			<g>
				<g>
					
						<rect x="248.896" y="51.792" fill="#CCCCCC" stroke="#CCCCCC" stroke-width="3.2" stroke-linejoin="round" stroke-miterlimit="10" width="29.098" height="26.942"/>
					
						<line fill="#CCCCCC" stroke="#CCCCCC" stroke-width="3.2" stroke-linejoin="round" stroke-miterlimit="10" x1="290.927" y1="57.181" x2="335.113" y2="57.181"/>
					
						<line fill="#CCCCCC" stroke="#CCCCCC" stroke-width="3.2" stroke-linejoin="round" stroke-miterlimit="10" x1="290.927" y1="73.346" x2="352.357" y2="73.346"/>
				</g>
				
					<line fill="#CCCCCC" stroke="#CCCCCC" stroke-width="3.2" stroke-linejoin="round" stroke-miterlimit="10" x1="249.049" y1="51.243" x2="278.195" y2="78.932"/>
			</g>
			
				<line fill="#CCCCCC" stroke="#CCCCCC" stroke-width="3.2" stroke-linejoin="round" stroke-miterlimit="10" x1="340.502" y1="57.181" x2="352.357" y2="57.181"/>
		</g>
		<g>
			<g>
				<rect x="21.497" y="267.337" fill="#CCCCCC" stroke="#CCCCCC" stroke-miterlimit="10" width="23.708" height="21.554"/>
				
					<line fill="#CCCCCC" stroke="#CCCCCC" stroke-width="3.2" stroke-linejoin="round" stroke-miterlimit="10" x1="54.906" y1="271.647" x2="98.015" y2="271.647"/>
				
					<line fill="#CCCCCC" stroke="#CCCCCC" stroke-width="3.2" stroke-linejoin="round" stroke-miterlimit="10" x1="54.906" y1="284.579" x2="115.258" y2="284.579"/>
			</g>
			
				<line fill="#CCCCCC" stroke="#CCCCCC" stroke-width="3.2" stroke-linejoin="round" stroke-miterlimit="10" x1="21.904" y1="267.865" x2="45.171" y2="289.969"/>
		</g>
		<g>
			
				<line fill="#CCCCCC" stroke="#CCCCCC" stroke-width="3.2" stroke-linejoin="round" stroke-miterlimit="10" x1="379.068" y1="68.938" x2="390.457" y2="80.327"/>
			
				<line fill="#CCCCCC" stroke="#CCCCCC" stroke-width="3.2" stroke-linejoin="round" stroke-miterlimit="10" x1="379.068" y1="80.327" x2="390.457" y2="68.938"/>
		</g>
		<g>
			<path fill="#CCCCCC" stroke="#CCCCCC" stroke-width="3.2" stroke-linejoin="round" stroke-miterlimit="10" d="M27.265,190.255"/>
			<path fill="#CCCCCC" stroke="#CCCCCC" stroke-width="3.2" stroke-linejoin="round" stroke-miterlimit="10" d="M27.265,178.866"/>
		</g>
		<g>
			<path fill="#CCCCCC" stroke="#CCCCCC" stroke-width="3.2" stroke-linejoin="round" stroke-miterlimit="10" d="M153.359,52.306"/>
			<path fill="#CCCCCC" stroke="#CCCCCC" stroke-width="3.2" stroke-linejoin="round" stroke-miterlimit="10" d="M141.97,52.306"/>
		</g>
		<g>
			<path fill="#CCCCCC" stroke="#CCCCCC" stroke-width="3.2" stroke-linejoin="round" stroke-miterlimit="10" d="M673.898,66.316"/>
			<path fill="#CCCCCC" stroke="#CCCCCC" stroke-width="3.2" stroke-linejoin="round" stroke-miterlimit="10" d="M662.511,66.316"/>
		</g>
	</g>
</g>
<g id="Layer_2">
</g>
</svg>
