<?xml version="1.0" encoding="utf-8"?>
<!-- Generator: Adobe Illustrator 16.0.0, SVG Export Plug-In . SVG Version: 6.00 Build 0)  -->
<!DOCTYPE svg PUBLIC "-//W3C//DTD SVG 1.1//EN" "http://www.w3.org/Graphics/SVG/1.1/DTD/svg11.dtd">
<svg version="1.1" id="Layer_1" xmlns="http://www.w3.org/2000/svg" xmlns:xlink="http://www.w3.org/1999/xlink" x="0px" y="0px"
	 width="302px" height="264.667px" viewBox="0 0 302 264.667" enable-background="new 0 0 302 264.667" xml:space="preserve">
<g id="BACKGROUND_2">
	<g opacity="0.3">
		<g>
			<rect id="XMLID_70_" x="-14.472" y="20.056" display="none" fill="#CCCCCC" width="329.833" height="219.889"/>
			<g>
				<g>
					<path fill="#CCCCCC" d="M150.445,167.069c-16.41,0-29.761-13.351-29.761-29.761s13.351-29.761,29.761-29.761
						c16.411,0,29.761,13.351,29.761,29.761S166.855,167.069,150.445,167.069z M150.445,107.987
						c-16.168,0-29.321,13.154-29.321,29.322c0,16.167,13.153,29.321,29.321,29.321c16.168,0,29.321-13.154,29.321-29.321
						C179.766,121.141,166.613,107.987,150.445,107.987z"/>
				</g>
				<g>
					<path fill="#CCCCCC" d="M150.445,164.024H150.3c-0.122-0.002-0.22-0.101-0.219-0.224c0.002-0.119,0.101-0.217,0.22-0.217
						c0.001,0,0.002,0,0.002,0h0.142c2.737,0,5.433-0.418,8.013-1.244c0.117-0.036,0.239,0.027,0.276,0.144
						c0.037,0.115-0.026,0.239-0.143,0.276C155.968,163.599,153.227,164.024,150.445,164.024z M142.091,162.681
						c-0.023,0-0.047-0.004-0.069-0.012c-2.67-0.887-5.175-2.188-7.445-3.866c-0.099-0.071-0.118-0.21-0.046-0.308
						c0.071-0.098,0.21-0.117,0.308-0.047c2.233,1.651,4.697,2.932,7.322,3.803c0.115,0.039,0.177,0.164,0.139,0.277
						C142.269,162.623,142.183,162.681,142.091,162.681z M165.95,159.017c-0.068,0-0.136-0.031-0.179-0.092
						c-0.07-0.098-0.049-0.234,0.049-0.307c2.246-1.623,4.216-3.58,5.851-5.818c0.072-0.098,0.21-0.119,0.308-0.047
						c0.1,0.07,0.121,0.209,0.049,0.308c-1.662,2.274-3.664,4.265-5.947,5.915C166.04,159.003,165.995,159.017,165.95,159.017z
						 M128.873,152.916c-0.068,0-0.137-0.031-0.179-0.092c-1.642-2.298-2.902-4.822-3.743-7.508
						c-0.036-0.115,0.027-0.238,0.144-0.275c0.117-0.037,0.239,0.028,0.276,0.146c0.827,2.64,2.065,5.123,3.681,7.383
						c0.071,0.099,0.048,0.236-0.051,0.308C128.962,152.903,128.917,152.916,128.873,152.916z M175.643,145.746
						c-0.022,0-0.047-0.004-0.067-0.012c-0.115-0.037-0.179-0.161-0.142-0.277c0.854-2.621,1.287-5.363,1.287-8.147
						c0-0.122,0.1-0.222,0.221-0.222s0.221,0.1,0.221,0.222c0,2.831-0.439,5.618-1.311,8.285
						C175.822,145.687,175.734,145.746,175.643,145.746z M123.951,137.242c-0.001,0-0.001,0-0.003,0
						c-0.121-0.002-0.219-0.103-0.217-0.223c0.03-2.83,0.5-5.613,1.399-8.271c0.038-0.115,0.163-0.178,0.278-0.138
						c0.115,0.039,0.177,0.163,0.138,0.278c-0.883,2.614-1.347,5.352-1.376,8.135C124.168,137.144,124.071,137.242,123.951,137.242z
						 M175.814,129.859c-0.094,0-0.182-0.061-0.211-0.156c-0.799-2.648-2.012-5.146-3.602-7.422c-0.068-0.1-0.045-0.237,0.055-0.307
						c0.101-0.068,0.236-0.045,0.307,0.055c1.617,2.314,2.85,4.854,3.662,7.547c0.035,0.116-0.03,0.238-0.147,0.273
						C175.857,129.856,175.836,129.859,175.814,129.859z M129.212,121.676c-0.046,0-0.092-0.015-0.132-0.045
						c-0.098-0.072-0.117-0.21-0.044-0.307c1.688-2.258,3.71-4.227,6.011-5.852c0.1-0.07,0.236-0.046,0.307,0.053
						c0.07,0.1,0.047,0.236-0.053,0.307c-2.263,1.599-4.252,3.535-5.913,5.756C129.345,121.645,129.28,121.676,129.212,121.676z
						 M166.413,116.382c-0.046,0-0.095-0.015-0.134-0.044c-2.215-1.676-4.664-2.982-7.279-3.883
						c-0.115-0.039-0.176-0.164-0.137-0.279c0.039-0.114,0.164-0.176,0.279-0.136c2.658,0.915,5.149,2.243,7.402,3.946
						c0.098,0.073,0.116,0.211,0.042,0.309C166.544,116.352,166.479,116.382,166.413,116.382z M142.639,112.201
						c-0.094,0-0.181-0.062-0.21-0.156c-0.036-0.115,0.029-0.238,0.146-0.274c2.677-0.824,5.485-1.22,8.304-1.175
						c0.122,0.002,0.219,0.102,0.217,0.224c-0.001,0.121-0.092,0.202-0.224,0.216c-2.773-0.047-5.535,0.346-8.168,1.156
						C142.682,112.197,142.661,112.201,142.639,112.201z"/>
				</g>
				<g>
					<g>
						<path fill="#CCCCCC" d="M150.445,93.798c-9.571,0-17.358-7.788-17.358-17.359c0-9.571,7.787-17.358,17.358-17.358
							s17.358,7.787,17.358,17.358C167.803,86.01,160.016,93.798,150.445,93.798z M150.445,59.52
							c-9.328,0-16.919,7.59-16.919,16.918c0,9.329,7.591,16.919,16.919,16.919c9.329,0,16.918-7.59,16.918-16.919
							C167.363,67.11,159.773,59.52,150.445,59.52z"/>
					</g>
					<g>
						<path fill="#CCCCCC" d="M150.466,96.69h-0.021c-2.676,0-5.275-0.514-7.728-1.527c-0.112-0.046-0.165-0.175-0.119-0.287
							c0.047-0.112,0.176-0.165,0.287-0.119c2.398,0.991,4.941,1.493,7.56,1.493c0.122,0,0.23,0.099,0.23,0.22
							C150.675,96.592,150.587,96.69,150.466,96.69z M158.127,95.165c-0.087,0-0.169-0.051-0.204-0.135
							c-0.046-0.112,0.007-0.241,0.119-0.288c2.407-1,4.567-2.447,6.419-4.301c0.086-0.086,0.225-0.086,0.311,0
							c0.086,0.085,0.086,0.225,0,0.311c-1.892,1.894-4.1,3.373-6.561,4.396C158.184,95.159,158.154,95.165,158.127,95.165z
							 M136.302,90.845c-0.056,0-0.112-0.021-0.155-0.064c-1.896-1.891-3.377-4.097-4.402-6.557
							c-0.048-0.112,0.006-0.241,0.117-0.288c0.112-0.046,0.241,0.006,0.288,0.119c1.003,2.406,2.452,4.564,4.307,6.414
							c0.087,0.086,0.087,0.225,0.001,0.311C136.415,90.823,136.358,90.845,136.302,90.845z M168.959,84.321
							c-0.027,0-0.057-0.005-0.084-0.017c-0.111-0.046-0.166-0.175-0.119-0.287c0.995-2.404,1.501-4.954,1.501-7.579v-0.081
							c-0.002-0.122,0.097-0.221,0.218-0.221c0.133,0.007,0.221,0.097,0.223,0.218v0.084c0,2.683-0.518,5.29-1.535,7.747
							C169.127,84.27,169.045,84.321,168.959,84.321z M130.414,76.679c-0.121,0-0.22-0.078-0.22-0.199v-0.042
							c0-2.668,0.51-5.261,1.519-7.708c0.047-0.112,0.176-0.165,0.287-0.119c0.112,0.046,0.165,0.175,0.119,0.287
							c-0.985,2.394-1.484,4.931-1.484,7.541C130.634,76.56,130.536,76.679,130.414,76.679z M168.928,68.92
							c-0.087,0-0.168-0.051-0.203-0.135c-1.008-2.405-2.461-4.56-4.32-6.405c-0.086-0.086-0.088-0.225-0.002-0.311
							c0.088-0.086,0.227-0.087,0.313-0.001c1.9,1.887,3.387,4.09,4.415,6.548c0.048,0.112-0.005,0.241-0.116,0.288
							C168.984,68.915,168.956,68.92,168.928,68.92z M136.245,62.53c-0.057,0-0.112-0.021-0.154-0.064
							c-0.088-0.085-0.088-0.225-0.001-0.311c1.888-1.898,4.092-3.382,6.551-4.409c0.112-0.047,0.241,0.006,0.288,0.118
							c0.047,0.112-0.006,0.241-0.118,0.288c-2.405,1.005-4.563,2.457-6.41,4.314C136.358,62.508,136.301,62.53,136.245,62.53z
							 M158.051,58.122c-0.027,0-0.057-0.005-0.083-0.017c-2.389-0.981-4.919-1.478-7.523-1.478h-0.062
							c-0.121,0-0.22-0.099-0.22-0.22c0-0.122,0.099-0.22,0.22-0.22h0.062c2.661,0,5.249,0.508,7.69,1.511
							c0.111,0.046,0.165,0.175,0.119,0.287C158.219,58.07,158.139,58.122,158.051,58.122z"/>
					</g>
					<g>
						<path fill="#CCCCCC" d="M150.445,105.81c-0.121,0-0.22-0.099-0.22-0.22v-8.554c0-0.122,0.099-0.22,0.22-0.22
							c0.122,0,0.221,0.098,0.221,0.22v8.554C150.666,105.711,150.567,105.81,150.445,105.81z"/>
					</g>
				</g>
				<g>
					<g>
						<path fill="#CCCCCC" d="M107.404,111.617c-4.445,0-8.891-1.691-12.274-5.076c-6.769-6.768-6.769-17.781,0-24.549
							c6.768-6.768,17.78-6.768,24.549,0c6.769,6.768,6.769,17.781,0,24.549C116.294,109.926,111.849,111.617,107.404,111.617z
							 M107.404,77.356c-4.333,0-8.665,1.649-11.963,4.947c-6.598,6.597-6.598,17.331,0,23.927c6.596,6.596,17.329,6.597,23.927,0
							c6.596-6.597,6.596-17.331,0-23.927l0,0C116.069,79.005,111.736,77.356,107.404,77.356z"/>
					</g>
					<g>
						<path fill="#CCCCCC" d="M107.425,114.519h-0.021c-2.671,0-5.271-0.514-7.729-1.526c-0.111-0.047-0.165-0.176-0.119-0.287
							c0.046-0.113,0.176-0.166,0.287-0.12c2.404,0.991,4.948,1.493,7.561,1.493c0.121,0,0.23,0.1,0.23,0.221
							C107.634,114.421,107.547,114.519,107.425,114.519z M115.089,112.991c-0.087,0-0.168-0.051-0.203-0.136
							c-0.047-0.111,0.006-0.24,0.118-0.287c2.399-0.995,4.556-2.439,6.408-4.292c0.086-0.086,0.23-0.091,0.317-0.005
							c0.085,0.085,0.091,0.219,0.004,0.306l-0.011,0.01c-1.893,1.894-4.098,3.37-6.55,4.388
							C115.145,112.986,115.117,112.991,115.089,112.991z M93.246,108.667c-0.051,0-0.101-0.019-0.141-0.06l-0.021-0.021
							c-1.89-1.89-3.364-4.09-4.383-6.537c-0.046-0.112,0.008-0.241,0.119-0.288c0.112-0.046,0.241,0.006,0.288,0.119
							c0.995,2.394,2.438,4.545,4.287,6.396c0.085,0.085,0.096,0.235,0.011,0.321C93.36,108.643,93.302,108.667,93.246,108.667z
							 M125.92,102.145c-0.029,0-0.058-0.005-0.085-0.017c-0.112-0.046-0.165-0.175-0.119-0.287c0.995-2.408,1.5-4.956,1.5-7.574
							c0-0.122,0.099-0.224,0.22-0.224s0.22,0.095,0.22,0.216v0.007c0,2.675-0.516,5.28-1.532,7.742
							C126.088,102.094,126.006,102.145,125.92,102.145z M87.373,94.505c-0.122,0-0.22-0.08-0.22-0.202v-0.036
							c0-2.665,0.512-5.261,1.521-7.714c0.047-0.113,0.175-0.165,0.287-0.12c0.112,0.046,0.166,0.175,0.12,0.288
							c-0.987,2.4-1.488,4.939-1.488,7.547C87.592,94.389,87.494,94.505,87.373,94.505z M125.915,86.815
							c-0.087,0-0.168-0.051-0.203-0.136c-0.996-2.405-2.441-4.565-4.299-6.422l-0.041-0.041c-0.086-0.086-0.086-0.225,0-0.311
							c0.086-0.086,0.226-0.086,0.311,0l0.041,0.04c1.898,1.899,3.376,4.107,4.394,6.565c0.047,0.113-0.007,0.241-0.119,0.288
							C125.97,86.81,125.942,86.815,125.915,86.815z M93.208,80.354c-0.056,0-0.112-0.021-0.155-0.064
							c-0.086-0.086-0.086-0.225,0-0.311l0.03-0.031c1.888-1.887,4.082-3.359,6.524-4.376c0.111-0.046,0.24,0.006,0.287,0.119
							c0.047,0.113-0.006,0.241-0.119,0.288c-2.388,0.995-4.535,2.436-6.381,4.281l-0.031,0.031
							C93.321,80.332,93.264,80.354,93.208,80.354z M115.021,75.955c-0.027,0-0.056-0.005-0.083-0.017
							c-2.396-0.984-4.931-1.482-7.534-1.482h-0.051c-0.122,0-0.22-0.099-0.22-0.22s0.098-0.22,0.22-0.22h0.051
							c2.66,0,5.252,0.51,7.701,1.516c0.112,0.046,0.166,0.175,0.12,0.287C115.19,75.903,115.108,75.955,115.021,75.955z"/>
					</g>
					<g>
						<path fill="#CCCCCC" d="M128.016,115.1c-0.057,0-0.112-0.021-0.155-0.064l-6.048-6.048c-0.086-0.086-0.086-0.225,0-0.311
							c0.086-0.086,0.225-0.086,0.311,0l6.048,6.049c0.087,0.086,0.087,0.225,0,0.311C128.129,115.078,128.073,115.1,128.016,115.1z
							"/>
					</g>
				</g>
				<g>
					<g>
						<path fill="#CCCCCC" d="M89.575,154.667c-9.57,0-17.357-7.787-17.357-17.358c0-9.572,7.787-17.359,17.357-17.359
							c9.572,0,17.359,7.787,17.359,17.359C106.934,146.88,99.147,154.667,89.575,154.667z M89.575,120.389
							c-9.328,0-16.917,7.591-16.917,16.92c0,9.328,7.589,16.919,16.917,16.919c9.33,0,16.92-7.591,16.92-16.919
							C106.495,127.979,98.905,120.389,89.575,120.389z"/>
					</g>
					<g>
						<path fill="#CCCCCC" d="M89.617,157.56h-0.042c-2.668,0-5.262-0.512-7.708-1.52c-0.112-0.045-0.165-0.174-0.119-0.287
							c0.046-0.11,0.174-0.166,0.287-0.117c2.393,0.984,4.93,1.484,7.54,1.484c0.122,0,0.241,0.099,0.241,0.219
							C89.816,157.46,89.739,157.56,89.617,157.56z M97.276,156.026c-0.086,0-0.168-0.05-0.203-0.135
							c-0.046-0.112,0.006-0.241,0.118-0.288c2.407-1.003,4.565-2.452,6.415-4.309c0.086-0.084,0.225-0.084,0.311,0
							c0.087,0.086,0.087,0.227,0.001,0.313c-1.892,1.896-4.097,3.377-6.557,4.402C97.333,156.021,97.304,156.026,97.276,156.026z
							 M75.448,151.729c-0.057,0-0.113-0.021-0.156-0.063c-1.897-1.889-3.381-4.094-4.408-6.553
							c-0.048-0.111,0.006-0.24,0.117-0.287c0.112-0.046,0.241,0.006,0.288,0.118c1.006,2.405,2.456,4.562,4.313,6.409
							c0.086,0.086,0.086,0.227,0.001,0.313C75.56,151.707,75.504,151.729,75.448,151.729z M108.097,145.171
							c-0.027,0-0.056-0.004-0.084-0.017c-0.112-0.047-0.166-0.175-0.119-0.288c0.991-2.396,1.493-4.939,1.493-7.559
							c0-0.122,0.099-0.23,0.22-0.23s0.22,0.088,0.22,0.209v0.021c0,2.676-0.513,5.275-1.526,7.729
							C108.265,145.121,108.183,145.171,108.097,145.171z M69.543,137.589c-0.121,0-0.22-0.098-0.22-0.219v-0.061
							c0-2.664,0.509-5.251,1.512-7.691c0.046-0.113,0.175-0.167,0.286-0.12c0.112,0.046,0.166,0.175,0.12,0.287
							c-0.981,2.388-1.479,4.918-1.479,7.522v0.063C69.763,137.492,69.666,137.589,69.543,137.589z M108.082,129.847
							c-0.086,0-0.168-0.052-0.203-0.136c-1-2.407-2.447-4.566-4.301-6.418c-0.085-0.086-0.085-0.226,0-0.313
							c0.086-0.085,0.225-0.085,0.312,0c1.894,1.894,3.373,4.102,4.396,6.563c0.047,0.111-0.007,0.24-0.119,0.287
							C108.138,129.842,108.11,129.847,108.082,129.847z M75.361,123.414c-0.057,0-0.112-0.021-0.155-0.063
							c-0.086-0.085-0.086-0.225-0.001-0.312c1.887-1.9,4.09-3.386,6.548-4.416c0.112-0.047,0.241,0.006,0.287,0.118
							c0.047,0.112-0.006,0.241-0.117,0.288c-2.405,1.008-4.56,2.461-6.405,4.32C75.473,123.393,75.417,123.414,75.361,123.414z
							 M97.239,119.015c-0.028,0-0.058-0.005-0.085-0.017c-2.404-0.996-4.954-1.502-7.579-1.502c-0.12,0-0.261-0.098-0.261-0.219
							s0.056-0.219,0.177-0.221h0.042c0.001,0,0.002,0,0.003,0c2.724,0,5.33,0.517,7.787,1.535c0.111,0.046,0.165,0.174,0.118,0.287
							C97.407,118.963,97.325,119.015,97.239,119.015z"/>
					</g>
					<g>
						<path fill="#CCCCCC" d="M118.726,137.528h-8.554c-0.121,0-0.22-0.099-0.22-0.22c0-0.122,0.099-0.221,0.22-0.221h8.554
							c0.122,0,0.22,0.099,0.22,0.221S118.848,137.528,118.726,137.528z"/>
					</g>
				</g>
				<g>
					<g>
						<path fill="#CCCCCC" d="M107.404,197.708c-4.637,0-8.996-1.807-12.274-5.084c-3.278-3.278-5.084-7.639-5.084-12.274
							s1.806-8.996,5.084-12.274l0,0c6.768-6.768,17.78-6.768,24.549,0c3.278,3.278,5.085,7.639,5.085,12.274
							s-1.807,8.996-5.085,12.274C116.401,195.902,112.041,197.708,107.404,197.708z M95.441,168.386
							c-3.196,3.195-4.956,7.445-4.956,11.964c0,4.521,1.76,8.769,4.956,11.963c3.195,3.196,7.444,4.956,11.963,4.956
							c4.52,0,8.768-1.76,11.964-4.956c3.195-3.194,4.955-7.442,4.955-11.963c0-4.519-1.76-8.769-4.955-11.964
							C112.77,161.789,102.037,161.789,95.441,168.386L95.441,168.386z"/>
					</g>
					<g>
						<path fill="#CCCCCC" d="M107.44,200.601h-0.036c-2.665,0-5.261-0.512-7.715-1.521c-0.111-0.045-0.165-0.174-0.119-0.287
							c0.046-0.11,0.175-0.166,0.287-0.117c2.399,0.986,4.939,1.486,7.547,1.486c0.121,0,0.237,0.1,0.237,0.221
							S107.562,200.601,107.44,200.601z M115.102,199.068c-0.086,0-0.168-0.051-0.203-0.136c-0.046-0.112,0.007-0.241,0.119-0.287
							c2.394-0.995,4.545-2.438,6.395-4.287l0.177,0.136l0.138,0.174c-1.894,1.893-4.094,3.367-6.54,4.385
							C115.16,199.063,115.13,199.068,115.102,199.068z M93.249,194.757c-0.047,0-0.093-0.018-0.131-0.055l-0.037-0.035
							c-1.884-1.885-3.355-4.08-4.373-6.521c-0.047-0.111,0.007-0.241,0.118-0.288c0.111-0.045,0.24,0.006,0.287,0.118
							c0.995,2.389,2.437,4.536,4.282,6.382c0.085,0.086,0.102,0.239,0.017,0.326C93.365,194.731,93.306,194.757,93.249,194.757z
							 M125.925,188.214c-0.028,0-0.057-0.006-0.084-0.018c-0.112-0.046-0.165-0.175-0.119-0.287
							c0.991-2.404,1.494-4.947,1.494-7.561c0-0.122,0.099-0.23,0.22-0.23s0.22,0.088,0.22,0.209v0.021
							c0,2.67-0.514,5.271-1.526,7.729C126.094,188.164,126.011,188.214,125.925,188.214z M87.373,180.621
							c-0.122,0-0.22-0.099-0.22-0.22v-0.049c0-2.662,0.51-5.253,1.516-7.703c0.046-0.112,0.175-0.167,0.287-0.121
							c0.111,0.048,0.165,0.175,0.119,0.287c-0.984,2.397-1.482,4.933-1.482,7.534v0.052
							C87.592,180.522,87.494,180.621,87.373,180.621z M125.909,172.884c-0.086,0-0.168-0.051-0.204-0.137
							c-0.995-2.397-2.438-4.555-4.292-6.406c-0.086-0.088-0.091-0.23-0.005-0.317c0.086-0.086,0.22-0.09,0.306-0.005
							c0.002,0.002,0.014,0.014,0.015,0.016c1.89,1.889,3.366,4.094,4.384,6.547c0.046,0.111-0.006,0.239-0.119,0.287
							C125.965,172.878,125.937,172.884,125.909,172.884z M93.198,166.446c-0.056,0-0.112-0.021-0.155-0.063
							c-0.085-0.086-0.085-0.226,0-0.312l0.04-0.04c1.898-1.898,4.107-3.377,6.565-4.396c0.112-0.048,0.241,0.007,0.288,0.118
							c0.046,0.113-0.008,0.242-0.119,0.287c-2.405,0.996-4.565,2.442-6.422,4.299l-0.041,0.043
							C93.31,166.425,93.254,166.446,93.198,166.446z M115.062,162.054c-0.028,0-0.057-0.006-0.084-0.018
							c-2.409-0.994-4.957-1.5-7.574-1.5c-0.121,0-0.224-0.098-0.224-0.22s0.096-0.22,0.217-0.22h0.007
							c2.675,0,5.279,0.516,7.741,1.533c0.113,0.046,0.166,0.174,0.12,0.285C115.229,162.003,115.149,162.054,115.062,162.054z"/>
					</g>
					<g>
						<path fill="#CCCCCC" d="M121.968,166.005c-0.057,0-0.112-0.021-0.155-0.064c-0.086-0.086-0.086-0.225,0-0.311l6.048-6.049
							c0.086-0.086,0.226-0.086,0.311,0c0.087,0.086,0.087,0.226,0,0.312l-6.048,6.048
							C122.081,165.983,122.024,166.005,121.968,166.005z"/>
					</g>
				</g>
				<g>
					<g>
						<path fill="#CCCCCC" d="M150.445,215.537c-9.571,0-17.358-7.787-17.358-17.358s7.787-17.358,17.358-17.358
							s17.358,7.787,17.358,17.358S160.016,215.537,150.445,215.537z M150.445,181.259c-9.328,0-16.919,7.591-16.919,16.919
							c0,9.329,7.591,16.919,16.919,16.919c9.329,0,16.918-7.59,16.918-16.919C167.363,188.85,159.773,181.259,150.445,181.259z"/>
					</g>
					<g>
						<path fill="#CCCCCC" d="M150.507,218.43h-0.063c-2.66,0-5.248-0.509-7.689-1.511c-0.112-0.047-0.165-0.176-0.119-0.287
							c0.046-0.112,0.176-0.166,0.286-0.12c2.389,0.981,4.92,1.479,7.522,1.479h0.063c0.121,0,0.22,0.098,0.22,0.219
							S150.628,218.43,150.507,218.43z M158.165,216.889c-0.085,0-0.168-0.052-0.203-0.136c-0.046-0.111,0.007-0.24,0.118-0.287
							c2.406-1.006,4.563-2.457,6.41-4.314c0.086-0.086,0.225-0.086,0.311-0.001c0.088,0.086,0.088,0.226,0.002,0.312
							c-1.889,1.897-4.093,3.382-6.552,4.41C158.223,216.884,158.193,216.889,158.165,216.889z M136.332,212.612
							c-0.057,0-0.112-0.021-0.154-0.063c-1.901-1.887-3.387-4.088-4.417-6.547c-0.047-0.112,0.006-0.241,0.118-0.287
							c0.111-0.047,0.24,0.006,0.287,0.117c1.009,2.404,2.462,4.56,4.321,6.404c0.086,0.087,0.087,0.227,0,0.313
							C136.445,212.591,136.388,212.612,136.332,212.612z M168.975,206.022c-0.027,0-0.057-0.005-0.084-0.017
							c-0.111-0.047-0.166-0.176-0.119-0.289c0.984-2.393,1.485-4.928,1.485-7.539c0-0.121,0.099-0.24,0.22-0.24
							s0.221,0.078,0.221,0.199v0.041c0,2.669-0.512,5.262-1.52,7.708C169.143,205.972,169.061,206.022,168.975,206.022z
							 M130.414,198.439c-0.121,0-0.218-0.057-0.219-0.177c0-0.001-0.001-0.042-0.001-0.042c0-2.727,0.517-5.332,1.534-7.789
							c0.047-0.112,0.176-0.166,0.288-0.119c0.111,0.046,0.165,0.175,0.118,0.287c-0.995,2.404-1.5,4.954-1.5,7.578
							C130.634,198.298,130.536,198.438,130.414,198.439L130.414,198.439z M168.943,190.697c-0.086,0-0.168-0.05-0.202-0.135
							c-1.005-2.407-2.453-4.566-4.308-6.415c-0.086-0.086-0.086-0.226-0.002-0.312c0.086-0.086,0.226-0.086,0.313,0
							c1.896,1.891,3.377,4.097,4.402,6.557c0.047,0.111-0.006,0.24-0.119,0.288C169,190.692,168.971,190.697,168.943,190.697z
							 M136.274,184.24c-0.057,0-0.112-0.021-0.156-0.063c-0.085-0.087-0.085-0.226,0-0.313c1.893-1.894,4.101-3.372,6.562-4.396
							c0.113-0.045,0.241,0.007,0.288,0.119c0.046,0.111-0.008,0.24-0.119,0.287c-2.407,1-4.567,2.446-6.419,4.301
							C136.386,184.219,136.331,184.24,136.274,184.24z M158.088,179.876c-0.027,0-0.056-0.004-0.083-0.018
							c-2.397-0.99-4.942-1.492-7.561-1.492c-0.121,0-0.229-0.1-0.229-0.221c0-0.122,0.088-0.22,0.209-0.22h0.021
							c2.677,0,5.276,0.514,7.729,1.526c0.112,0.047,0.165,0.174,0.118,0.286C158.257,179.826,158.175,179.876,158.088,179.876z"/>
					</g>
					<g>
						<path fill="#CCCCCC" d="M150.445,177.8c-0.121,0-0.22-0.098-0.22-0.219v-8.555c0-0.122,0.099-0.22,0.22-0.22
							c0.122,0,0.221,0.098,0.221,0.22v8.555C150.666,177.703,150.567,177.8,150.445,177.8z"/>
					</g>
				</g>
				<g>
					<g>
						<path fill="#CCCCCC" d="M193.486,197.708c-4.637,0-8.995-1.807-12.274-5.084l0,0l0,0c-3.276-3.278-5.084-7.639-5.084-12.274
							s1.808-8.996,5.084-12.274c6.771-6.768,17.781-6.768,24.55,0c3.278,3.278,5.084,7.639,5.084,12.274s-1.806,8.996-5.084,12.274
							C202.482,195.902,198.123,197.708,193.486,197.708z M193.486,163.438c-4.332,0-8.664,1.647-11.963,4.947
							c-3.196,3.196-4.955,7.444-4.955,11.964s1.759,8.77,4.955,11.963l0,0c3.194,3.195,7.443,4.956,11.963,4.956
							c4.521,0,8.769-1.761,11.964-4.956c3.196-3.193,4.956-7.443,4.956-11.963s-1.76-8.768-4.956-11.964
							C202.152,165.087,197.818,163.438,193.486,163.438z"/>
					</g>
					<g>
						<path fill="#CCCCCC" d="M193.493,200.601c-2.666,0-5.257-0.51-7.707-1.516c-0.112-0.047-0.166-0.174-0.12-0.287
							c0.047-0.112,0.176-0.166,0.288-0.12c2.396,0.983,4.931,1.483,7.532,1.483h0.052c0.121,0,0.22,0.098,0.22,0.219
							c0,0.123-0.099,0.221-0.22,0.221H193.493z M201.197,199.063c-0.084,0-0.165-0.051-0.2-0.135
							c-0.048-0.112,0.006-0.241,0.116-0.288c2.39-0.994,4.537-2.436,6.383-4.281c0.086-0.086,0.24-0.102,0.326-0.015
							c0.086,0.085,0.102,0.209,0.017,0.295c-0.001,0.001-0.032,0.032-0.032,0.032c-1.887,1.886-4.082,3.357-6.522,4.375
							C201.255,199.057,201.227,199.063,201.197,199.063z M179.363,194.775c-0.057,0-0.112-0.021-0.154-0.064l-0.042-0.041
							c-1.897-1.896-3.376-4.105-4.394-6.564c-0.047-0.111,0.008-0.24,0.119-0.286c0.111-0.048,0.24,0.007,0.287,0.118
							c0.994,2.404,2.44,4.564,4.297,6.422l0.041,0.041c0.088,0.087,0.088,0.227,0,0.313
							C179.477,194.753,179.419,194.775,179.363,194.775z M212.014,188.201c-0.027,0-0.058-0.006-0.084-0.017
							c-0.111-0.047-0.166-0.175-0.119-0.288c0.986-2.4,1.487-4.939,1.487-7.547c0-0.122,0.099-0.238,0.22-0.238
							s0.221,0.08,0.221,0.201v0.037c0,2.665-0.512,5.26-1.521,7.715C212.182,188.149,212.1,188.201,212.014,188.201z
							 M173.455,180.573c-0.121,0-0.221-0.095-0.221-0.217v-0.007c0-2.676,0.517-5.279,1.533-7.741
							c0.047-0.112,0.176-0.167,0.287-0.12c0.112,0.047,0.166,0.176,0.119,0.287c-0.994,2.408-1.5,4.957-1.5,7.574
							C173.674,180.472,173.576,180.573,173.455,180.573z M211.986,172.871c-0.086,0-0.168-0.052-0.204-0.136
							c-0.994-2.396-2.438-4.546-4.286-6.396l0.135-0.176l0.155-0.156l-0.155,0.156l0.174-0.138
							c1.893,1.892,3.367,4.093,4.385,6.539c0.047,0.112-0.006,0.24-0.119,0.287C212.042,172.865,212.014,172.871,211.986,172.871z
							 M179.314,166.407c-0.057,0-0.111-0.021-0.152-0.062c-0.086-0.086-0.092-0.221-0.005-0.307l0.01-0.011
							c1.896-1.894,4.099-3.37,6.551-4.388c0.112-0.047,0.241,0.007,0.288,0.119c0.046,0.111-0.007,0.24-0.119,0.287
							c-2.398,0.994-4.556,2.438-6.408,4.293C179.434,166.385,179.374,166.407,179.314,166.407z M201.131,162.048
							c-0.027,0-0.057-0.006-0.084-0.018c-2.404-0.99-4.947-1.494-7.561-1.494c-0.123,0-0.231-0.098-0.231-0.22
							s0.087-0.22,0.209-0.22h0.022c2.67,0,5.271,0.514,7.729,1.527c0.111,0.045,0.165,0.174,0.119,0.287
							C201.299,161.998,201.217,162.048,201.131,162.048z"/>
					</g>
					<g>
						<path fill="#CCCCCC" d="M178.922,166.005c-0.057,0-0.113-0.021-0.156-0.064l-6.047-6.048c-0.087-0.086-0.087-0.226,0-0.312
							c0.086-0.086,0.225-0.086,0.311,0l6.049,6.049c0.085,0.086,0.085,0.225,0,0.311
							C179.034,165.983,178.979,166.005,178.922,166.005z"/>
					</g>
				</g>
				<g>
					<g>
						<path fill="#CCCCCC" d="M211.314,154.667c-9.571,0-17.358-7.787-17.358-17.358c0-9.572,7.787-17.359,17.358-17.359
							c9.572,0,17.358,7.787,17.358,17.359C228.673,146.88,220.887,154.667,211.314,154.667z M211.314,120.389
							c-9.33,0-16.918,7.591-16.918,16.92c0,9.328,7.588,16.919,16.918,16.919s16.92-7.591,16.92-16.919
							C228.234,127.979,220.645,120.389,211.314,120.389z"/>
					</g>
					<g>
						<path fill="#CCCCCC" d="M211.398,157.56h-0.084c-2.683,0-5.289-0.516-7.746-1.534c-0.112-0.047-0.166-0.176-0.119-0.288
							c0.047-0.111,0.176-0.166,0.287-0.119c2.404,0.998,4.953,1.502,7.578,1.502h0.084c0.121,0,0.22,0.1,0.22,0.221
							S211.52,157.56,211.398,157.56z M219.053,156.011c-0.086,0-0.168-0.053-0.203-0.135c-0.047-0.112,0.006-0.241,0.118-0.289
							c2.405-1.008,4.562-2.461,6.405-4.32c0.086-0.086,0.225-0.086,0.313,0c0.086,0.085,0.086,0.225,0,0.311
							c-1.887,1.899-4.09,3.387-6.547,4.416C219.111,156.005,219.082,156.011,219.053,156.011z M197.157,151.699
							c-0.056,0-0.111-0.021-0.155-0.063c-1.895-1.893-3.374-4.102-4.396-6.563c-0.047-0.112,0.008-0.239,0.119-0.286
							c0.111-0.045,0.24,0.006,0.287,0.118c1,2.407,2.447,4.567,4.301,6.419c0.086,0.086,0.086,0.225,0,0.313
							C197.27,151.678,197.213,151.699,197.157,151.699z M229.852,145.135c-0.026,0-0.056-0.007-0.084-0.017
							c-0.111-0.048-0.166-0.176-0.119-0.289c0.98-2.388,1.479-4.918,1.479-7.521v-0.063c0-0.121,0.1-0.22,0.221-0.22
							s0.221,0.099,0.221,0.22v0.062c0,2.662-0.51,5.25-1.512,7.69C230.02,145.083,229.939,145.135,229.852,145.135z
							 M191.284,137.539c-0.122,0-0.22-0.088-0.22-0.211v-0.02c0-2.678,0.513-5.276,1.525-7.729
							c0.047-0.112,0.176-0.165,0.287-0.119c0.111,0.047,0.166,0.176,0.119,0.287c-0.991,2.398-1.494,4.942-1.494,7.561
							C191.502,137.43,191.404,137.539,191.284,137.539z M229.805,129.809c-0.086,0-0.168-0.051-0.203-0.135
							c-1.006-2.406-2.457-4.563-4.313-6.41c-0.087-0.086-0.087-0.225-0.002-0.311c0.086-0.086,0.227-0.087,0.313-0.002
							c1.897,1.89,3.381,4.094,4.409,6.553c0.048,0.112-0.006,0.24-0.118,0.287C229.861,129.803,229.833,129.809,229.805,129.809z
							 M197.129,123.385c-0.057,0-0.113-0.021-0.156-0.064c-0.086-0.085-0.086-0.225,0-0.311c1.891-1.896,4.096-3.377,6.557-4.402
							c0.111-0.047,0.24,0.006,0.287,0.118c0.047,0.112-0.006,0.241-0.116,0.288c-2.408,1.003-4.565,2.452-6.415,4.307
							C197.241,123.363,197.186,123.385,197.129,123.385z M218.939,118.999c-0.027,0-0.057-0.005-0.084-0.017
							c-2.393-0.986-4.931-1.486-7.541-1.486c-0.121,0-0.239-0.098-0.239-0.22c0-0.121,0.077-0.22,0.198-0.22h0.041
							c2.668,0,5.263,0.511,7.709,1.52c0.113,0.045,0.166,0.174,0.119,0.287C219.107,118.947,219.025,118.999,218.939,118.999z"/>
					</g>
					<g>
						<path fill="#CCCCCC" d="M190.718,137.528h-8.554c-0.122,0-0.221-0.099-0.221-0.22c0-0.122,0.099-0.221,0.221-0.221h8.554
							c0.121,0,0.22,0.099,0.22,0.221S190.839,137.528,190.718,137.528z"/>
					</g>
				</g>
				<g>
					<g>
						<path fill="#CCCCCC" d="M193.486,111.617c-4.444,0-8.891-1.691-12.274-5.076c-6.769-6.768-6.769-17.781,0-24.549
							c6.771-6.769,17.781-6.768,24.55,0c6.768,6.768,6.768,17.781,0,24.549C202.376,109.926,197.932,111.617,193.486,111.617z
							 M193.486,77.356c-4.332,0-8.666,1.649-11.963,4.947c-6.598,6.597-6.598,17.331,0,23.927c6.597,6.596,17.33,6.598,23.927,0
							c6.598-6.597,6.598-17.331,0-23.927C202.152,79.005,197.818,77.356,193.486,77.356z"/>
					</g>
					<g>
						<path fill="#CCCCCC" d="M193.494,114.519h-0.008c-2.676,0-5.28-0.516-7.741-1.532c-0.112-0.047-0.166-0.176-0.119-0.287
							c0.046-0.113,0.175-0.166,0.286-0.119c2.408,0.994,4.957,1.498,7.574,1.498c0.121,0,0.224,0.1,0.224,0.221
							C193.71,114.421,193.615,114.519,193.494,114.519z M201.158,112.997c-0.086,0-0.17-0.051-0.203-0.136
							c-0.046-0.112,0.007-0.24,0.119-0.287c2.404-0.996,4.564-2.441,6.422-4.298l0.041-0.042c0.086-0.086,0.227-0.086,0.313,0
							c0.084,0.086,0.084,0.225,0,0.311l-0.041,0.04c-1.898,1.898-4.107,3.377-6.565,4.395
							C201.214,112.992,201.186,112.997,201.158,112.997z M179.325,108.659c-0.054,0-0.106-0.021-0.147-0.062l-0.011-0.01
							c-1.894-1.894-3.37-4.098-4.388-6.551c-0.047-0.112,0.006-0.241,0.119-0.287c0.111-0.046,0.24,0.007,0.287,0.119
							c0.996,2.399,2.438,4.555,4.291,6.409c0.088,0.085,0.092,0.23,0.006,0.316C179.438,108.636,179.381,108.659,179.325,108.659z
							 M212.02,102.104c-0.028,0-0.057-0.005-0.084-0.016c-0.111-0.046-0.166-0.175-0.119-0.287
							c0.982-2.397,1.481-4.932,1.481-7.535v-0.05c0-0.122,0.099-0.22,0.22-0.22s0.221,0.098,0.221,0.22v0.05
							c0,2.66-0.51,5.251-1.516,7.702C212.188,102.054,212.105,102.104,212.02,102.104z M173.455,94.498
							c-0.121,0-0.221-0.088-0.221-0.209v-0.021c0-2.67,0.516-5.271,1.527-7.729c0.047-0.112,0.176-0.165,0.287-0.12
							c0.112,0.046,0.165,0.175,0.119,0.287c-0.99,2.405-1.494,4.949-1.494,7.561C173.674,94.389,173.576,94.498,173.455,94.498z
							 M211.98,86.776c-0.086,0-0.168-0.051-0.203-0.136c-0.995-2.389-2.437-4.536-4.281-6.382
							c-0.085-0.085-0.102-0.239-0.018-0.326c0.086-0.085,0.209-0.102,0.295-0.018c0.002,0.001,0.033,0.033,0.035,0.034
							c1.885,1.885,3.356,4.08,4.375,6.522c0.047,0.112-0.006,0.241-0.119,0.288C212.037,86.771,212.008,86.776,211.98,86.776z
							 M179.307,80.328c-0.057,0-0.109-0.019-0.149-0.059c-0.087-0.086-0.097-0.215-0.011-0.301l0.021-0.021
							c1.892-1.89,4.09-3.364,6.538-4.382c0.111-0.046,0.24,0.006,0.287,0.119c0.047,0.113-0.008,0.241-0.118,0.288
							c-2.396,0.995-4.547,2.437-6.396,4.287C179.432,80.303,179.369,80.328,179.307,80.328z M201.118,75.96
							c-0.027,0-0.056-0.005-0.084-0.017c-2.4-0.988-4.938-1.488-7.548-1.488c-0.121,0-0.237-0.099-0.237-0.22
							c0-0.122,0.08-0.22,0.201-0.22v0.22l0.032-0.22c2.67,0,5.266,0.512,7.72,1.521c0.112,0.046,0.166,0.175,0.118,0.287
							C201.286,75.909,201.205,75.96,201.118,75.96z"/>
					</g>
					<g>
						<path fill="#CCCCCC" d="M172.875,115.1c-0.057,0-0.113-0.021-0.154-0.064c-0.088-0.086-0.088-0.225,0-0.311l6.047-6.049
							c0.086-0.086,0.226-0.086,0.312,0c0.085,0.086,0.085,0.225,0,0.311l-6.048,6.048C172.986,115.078,172.93,115.1,172.875,115.1z
							"/>
					</g>
				</g>
				<path fill="#CCCCCC" d="M121.693,72.848c-1.365,0-2.475-1.11-2.475-2.475c0-1.365,1.109-2.476,2.475-2.476
					c1.366,0,2.476,1.11,2.476,2.476C124.168,71.737,123.058,72.848,121.693,72.848z M121.693,68.336
					c-1.122,0-2.035,0.914-2.035,2.036s0.913,2.036,2.035,2.036c1.123,0,2.036-0.914,2.036-2.036S122.816,68.336,121.693,68.336z"/>
				<path fill="#CCCCCC" d="M121.693,71.619c-0.687,0-1.246-0.559-1.246-1.246c0-0.688,0.56-1.247,1.246-1.247
					c0.688,0,1.246,0.559,1.246,1.247C122.939,71.06,122.38,71.619,121.693,71.619z M121.693,69.566
					c-0.444,0-0.806,0.362-0.806,0.807c0,0.444,0.361,0.807,0.806,0.807c0.445,0,0.807-0.362,0.807-0.807
					S122.137,69.566,121.693,69.566z"/>
				<path fill="#CCCCCC" d="M115.389,121.734c-0.862,0-1.564-0.702-1.564-1.564c0-0.863,0.702-1.565,1.564-1.565
					c0.864,0,1.565,0.702,1.565,1.565C116.955,121.032,116.253,121.734,115.389,121.734z M115.389,119.045
					c-0.62,0-1.125,0.504-1.125,1.125c0,0.62,0.505,1.125,1.125,1.125c0.621,0,1.126-0.505,1.126-1.125
					C116.515,119.549,116.01,119.045,115.389,119.045z"/>
				<path fill="#CCCCCC" d="M226.414,158.416c-0.863,0-1.564-0.701-1.564-1.563c0-0.863,0.701-1.563,1.564-1.563
					s1.564,0.7,1.564,1.563C227.979,157.714,227.277,158.416,226.414,158.416z M226.414,155.726c-0.62,0-1.125,0.506-1.125,1.126
					s0.505,1.125,1.125,1.125s1.125-0.505,1.125-1.125S227.034,155.726,226.414,155.726z"/>
				<path fill="#CCCCCC" d="M133.358,172.583c-0.863,0-1.565-0.703-1.565-1.564c0-0.862,0.702-1.564,1.565-1.564
					c0.862,0,1.564,0.702,1.564,1.564C134.922,171.88,134.22,172.583,133.358,172.583z M133.358,169.894
					c-0.621,0-1.125,0.505-1.125,1.125s0.504,1.125,1.125,1.125c0.62,0,1.125-0.505,1.125-1.125S133.978,169.894,133.358,169.894z"
					/>
				<path fill="#CCCCCC" d="M140.745,172.583c-0.863,0-1.564-0.703-1.564-1.564c0-0.862,0.701-1.564,1.564-1.564
					c0.863,0,1.564,0.702,1.564,1.564C142.309,171.88,141.608,172.583,140.745,172.583z M140.745,169.894
					c-0.62,0-1.125,0.505-1.125,1.125s0.505,1.125,1.125,1.125c0.62,0,1.125-0.505,1.125-1.125S141.365,169.894,140.745,169.894z"/>
				<path fill="#CCCCCC" d="M120.61,157.357c-0.862,0-1.564-0.702-1.564-1.564s0.702-1.564,1.564-1.564
					c0.863,0,1.565,0.702,1.565,1.564S121.473,157.357,120.61,157.357z M120.61,154.667c-0.62,0-1.124,0.504-1.124,1.125
					c0,0.619,0.504,1.125,1.124,1.125c0.621,0,1.126-0.506,1.126-1.125C121.736,155.171,121.231,154.667,120.61,154.667z"/>
				<path fill="#CCCCCC" d="M133.358,174.309c-1.814,0-3.291-1.476-3.291-3.29s1.477-3.291,3.291-3.291
					c1.813,0,3.289,1.477,3.289,3.291S135.171,174.309,133.358,174.309z M133.358,168.167c-1.572,0-2.852,1.278-2.852,2.852
					c0,1.572,1.279,2.852,2.852,2.852c1.571,0,2.851-1.279,2.851-2.852C136.209,169.446,134.929,168.167,133.358,168.167z"/>
				<path fill="#CCCCCC" d="M112.401,129.443c-0.863,0-1.564-0.701-1.564-1.564c0-0.863,0.701-1.564,1.564-1.564
					c0.863,0,1.565,0.701,1.565,1.564C113.966,128.742,113.264,129.443,112.401,129.443z M112.401,126.754
					c-0.621,0-1.125,0.505-1.125,1.125c0,0.621,0.504,1.125,1.125,1.125c0.62,0,1.125-0.504,1.125-1.125
					C113.526,127.259,113.021,126.754,112.401,126.754z"/>
				<g>
					<path fill="#CCCCCC" d="M86.659,106.193H72.437c-0.121,0-0.22-0.098-0.22-0.22s0.099-0.22,0.22-0.22h14.222
						c0.121,0,0.22,0.098,0.22,0.22S86.78,106.193,86.659,106.193z"/>
				</g>
				<g>
					<path fill="#CCCCCC" d="M86.659,108.154H72.437c-0.121,0-0.22-0.099-0.22-0.22c0-0.122,0.099-0.22,0.22-0.22h14.222
						c0.121,0,0.22,0.098,0.22,0.22C86.878,108.056,86.78,108.154,86.659,108.154z"/>
				</g>
				<g>
					<path fill="#CCCCCC" d="M86.659,110.115H72.437c-0.121,0-0.22-0.1-0.22-0.221s0.099-0.22,0.22-0.22h14.222
						c0.121,0,0.22,0.099,0.22,0.22S86.78,110.115,86.659,110.115z"/>
				</g>
				<g>
					<path fill="#CCCCCC" d="M86.659,112.075h-9.044c-0.122,0-0.22-0.099-0.22-0.22s0.098-0.22,0.22-0.22h9.044
						c0.121,0,0.22,0.099,0.22,0.22S86.78,112.075,86.659,112.075z"/>
				</g>
				<path fill="#CCCCCC" d="M161.725,102.472h-1.677c-0.077,0-0.149-0.042-0.188-0.11l-0.84-1.451c-0.037-0.068-0.037-0.152,0-0.22
					l0.84-1.451c0.039-0.068,0.111-0.11,0.188-0.11h1.677c0.078,0,0.15,0.042,0.19,0.11l0.837,1.451c0.039,0.068,0.039,0.152,0,0.22
					l-0.837,1.451C161.875,102.43,161.803,102.472,161.725,102.472z M160.176,102.032h1.422l0.711-1.231l-0.711-1.231h-1.422
					l-0.711,1.231L160.176,102.032z"/>
				<path fill="#CCCCCC" d="M165.075,102.472h-1.677c-0.078,0-0.149-0.042-0.188-0.11l-0.838-1.451c-0.039-0.068-0.039-0.152,0-0.22
					l0.838-1.451c0.039-0.068,0.11-0.11,0.188-0.11h1.677c0.079,0,0.151,0.042,0.19,0.11l0.838,1.451
					c0.039,0.068,0.039,0.152,0,0.22l-0.838,1.451C165.227,102.43,165.154,102.472,165.075,102.472z M163.527,102.032h1.42
					l0.712-1.231l-0.712-1.231h-1.42l-0.711,1.231L163.527,102.032z"/>
				<path fill="#CCCCCC" d="M135.863,102.256h-2.505c-0.079,0-0.151-0.042-0.19-0.11s-0.039-0.152,0-0.22l1.252-2.169
					c0.079-0.136,0.302-0.136,0.381,0l1.252,2.169c0.04,0.068,0.04,0.152,0,0.22C136.013,102.214,135.941,102.256,135.863,102.256z
					 M133.739,101.815h1.742l-0.871-1.509L133.739,101.815z"/>
				<path fill="#CCCCCC" d="M135.863,106.894h-2.505c-0.079,0-0.151-0.042-0.19-0.11c-0.039-0.068-0.039-0.152,0-0.22l1.252-2.169
					c0.079-0.136,0.302-0.136,0.381,0l1.252,2.169c0.04,0.068,0.04,0.152,0,0.22C136.013,106.852,135.941,106.894,135.863,106.894z
					 M133.739,106.454h1.742l-0.871-1.51L133.739,106.454z"/>
				<path fill="#CCCCCC" d="M138.367,102.256h-2.504c-0.079,0-0.152-0.042-0.19-0.11c-0.039-0.068-0.039-0.152,0-0.22l1.252-2.169
					c0.039-0.068,0.112-0.11,0.19-0.11l0,0c0.079,0,0.151,0.042,0.191,0.11l1.251,2.169c0.04,0.068,0.04,0.152,0,0.22
					C138.518,102.214,138.446,102.256,138.367,102.256z M136.244,101.815h1.742l-0.871-1.509L136.244,101.815z"/>
				<path fill="#CCCCCC" d="M186.879,155.339h-3.677c-0.121,0-0.22-0.098-0.22-0.221v-3.676c0-0.122,0.099-0.221,0.22-0.221h3.677
					c0.122,0,0.221,0.099,0.221,0.221v3.676C187.1,155.242,187.001,155.339,186.879,155.339z M183.422,154.899h3.237v-3.235h-3.237
					V154.899z"/>
				<path fill="#CCCCCC" d="M186.105,150.376h-2.127c-0.123,0-0.221-0.099-0.221-0.221v-2.126c0-0.122,0.098-0.22,0.221-0.22h2.127
					c0.121,0,0.22,0.098,0.22,0.22v2.126C186.325,150.278,186.227,150.376,186.105,150.376z M184.197,149.937h1.688v-1.688h-1.688
					V149.937z"/>
				<path fill="#CCCCCC" d="M186.105,146.964h-2.127c-0.123,0-0.221-0.1-0.221-0.221v-2.127c0-0.121,0.098-0.221,0.221-0.221h2.127
					c0.121,0,0.22,0.1,0.22,0.221v2.127C186.325,146.865,186.227,146.964,186.105,146.964z M184.197,146.523h1.688v-1.688h-1.688
					V146.523z"/>
				<path fill="#CCCCCC" d="M211.503,164.007h-2.126c-0.122,0-0.221-0.1-0.221-0.221v-2.127c0-0.121,0.099-0.22,0.221-0.22h2.126
					c0.122,0,0.22,0.099,0.22,0.22v2.127C211.723,163.908,211.625,164.007,211.503,164.007z M209.598,163.567h1.687v-1.688h-1.687
					V163.567z"/>
				<path fill="#CCCCCC" d="M218.424,169.298h-2.127c-0.122,0-0.221-0.098-0.221-0.219v-2.127c0-0.123,0.099-0.221,0.221-0.221
					h2.127c0.121,0,0.221,0.098,0.221,0.221v2.127C218.645,169.201,218.545,169.298,218.424,169.298z M216.518,168.859h1.688v-1.688
					h-1.688V168.859z"/>
				<path fill="#CCCCCC" d="M114.528,152.333h-2.127c-0.121,0-0.22-0.099-0.22-0.22v-2.126c0-0.121,0.099-0.221,0.22-0.221h2.127
					c0.122,0,0.221,0.1,0.221,0.221v2.126C114.749,152.235,114.65,152.333,114.528,152.333z M112.621,151.894h1.688v-1.686h-1.688
					V151.894z"/>
				<path fill="#CCCCCC" d="M188.117,209.102H177.93c-0.121,0-0.222-0.099-0.222-0.22v-1.539c0-0.121,0.101-0.221,0.222-0.221
					h10.188c0.121,0,0.22,0.1,0.22,0.221v1.539C188.336,209.003,188.238,209.102,188.117,209.102z M178.148,208.662h9.748v-1.1
					h-9.748V208.662z"/>
				<path fill="#CCCCCC" d="M191.284,206.354H177.93c-0.121,0-0.222-0.099-0.222-0.222v-1.538c0-0.121,0.101-0.22,0.222-0.22h13.354
					c0.12,0,0.219,0.099,0.219,0.22v1.538C191.502,206.255,191.404,206.354,191.284,206.354z M178.148,205.914h12.914v-1.1h-12.914
					V205.914z"/>
				<path fill="#CCCCCC" d="M191.284,211.851H177.93c-0.121,0-0.222-0.1-0.222-0.221v-1.539c0-0.121,0.101-0.221,0.222-0.221h13.354
					c0.12,0,0.219,0.1,0.219,0.221v1.539C191.502,211.751,191.404,211.851,191.284,211.851z M178.148,211.41h12.914v-1.099h-12.914
					V211.41z"/>
				<path fill="#CCCCCC" d="M218.568,111.031h-4.139c-0.121,0-0.221-0.098-0.221-0.219v-4.139c0-0.122,0.1-0.22,0.221-0.22
					s0.219,0.098,0.219,0.22v3.918h3.699v-3.918c0-0.122,0.098-0.22,0.221-0.22c0.121,0,0.22,0.098,0.22,0.22v4.139
					C218.788,110.934,218.689,111.031,218.568,111.031z"/>
				<path fill="#CCCCCC" d="M224.508,111.142h-4.139c-0.122,0-0.221-0.098-0.221-0.22c0-0.121,0.099-0.22,0.221-0.22h3.918v-3.698
					h-3.918c-0.122,0-0.221-0.099-0.221-0.22c0-0.121,0.099-0.22,0.221-0.22h4.139c0.121,0,0.219,0.099,0.219,0.22v4.138
					C224.727,111.044,224.629,111.142,224.508,111.142z"/>
				<path fill="#CCCCCC" d="M123.12,209.632h-4.138c-0.122,0-0.22-0.1-0.22-0.221s0.098-0.221,0.22-0.221h3.919v-3.697h-3.919
					c-0.122,0-0.22-0.1-0.22-0.221s0.098-0.22,0.22-0.22h4.138c0.122,0,0.22,0.099,0.22,0.22v4.139
					C123.339,209.533,123.242,209.632,123.12,209.632z"/>
				<path fill="#CCCCCC" d="M115.389,126.754c-0.121,0-0.219-0.099-0.219-0.221v-5.167c0-0.122,0.098-0.22,0.219-0.22
					c0.122,0,0.221,0.098,0.221,0.22v5.167C115.61,126.655,115.511,126.754,115.389,126.754z"/>
				<path fill="#CCCCCC" d="M112.401,126.754c-0.121,0-0.22-0.099-0.22-0.221v-5.167c0-0.122,0.099-0.22,0.22-0.22
					c0.122,0,0.22,0.098,0.22,0.22v5.167C112.621,126.655,112.523,126.754,112.401,126.754z"/>
				<path fill="#CCCCCC" d="M141.353,106.894h-5.49c-0.122,0-0.221-0.099-0.221-0.22c0-0.121,0.099-0.22,0.221-0.22h5.271v-4.198
					h-2.767c-0.121,0-0.22-0.099-0.22-0.22c0-0.121,0.099-0.22,0.22-0.22h2.986c0.122,0,0.221,0.099,0.221,0.22v4.638
					C141.574,106.795,141.475,106.894,141.353,106.894z"/>
				<path fill="#CCCCCC" d="M181.997,127.084c-0.122,0-0.222-0.099-0.222-0.221v-8.039c0-0.121,0.1-0.22,0.222-0.22h3.739
					c0.121,0,0.22,0.099,0.22,0.22c0,0.122-0.099,0.221-0.22,0.221h-3.521v7.818C182.215,126.985,182.118,127.084,181.997,127.084z"
					/>
				<path fill="#CCCCCC" d="M121.693,68.336c-0.121,0-0.22-0.098-0.22-0.219v-2.064c0-0.122,0.099-0.22,0.22-0.22h8.08
					c0.121,0,0.22,0.098,0.22,0.22c0,0.122-0.099,0.22-0.22,0.22h-7.859v1.845C121.914,68.238,121.815,68.336,121.693,68.336z"/>
				<path fill="#CCCCCC" d="M226.414,161.88h-17.036c-0.122,0-0.221-0.1-0.221-0.221s0.099-0.22,0.221-0.22h16.815v-3.244
					c0-0.122,0.099-0.22,0.221-0.22s0.22,0.098,0.22,0.22v3.464C226.633,161.781,226.536,161.88,226.414,161.88z"/>
				<path fill="#CCCCCC" d="M178.352,72.859c-0.076,0-0.149-0.039-0.19-0.11l-1.813-3.141l-1.813,3.141
					c-0.061,0.105-0.196,0.141-0.301,0.081c-0.105-0.06-0.142-0.195-0.082-0.3l2.005-3.471c0.079-0.136,0.303-0.136,0.382,0
					l2.003,3.471c0.062,0.105,0.024,0.239-0.08,0.3C178.426,72.85,178.389,72.859,178.352,72.859z"/>
				<path fill="#CCCCCC" d="M178.352,68.336c-0.076,0-0.149-0.039-0.19-0.11l-1.813-3.141l-1.813,3.141
					c-0.061,0.105-0.196,0.141-0.301,0.081c-0.105-0.06-0.142-0.195-0.082-0.3l2.005-3.471c0.079-0.136,0.303-0.136,0.382,0
					l2.003,3.471c0.062,0.105,0.024,0.24-0.08,0.3C178.426,68.327,178.389,68.336,178.352,68.336z"/>
				<path fill="#CCCCCC" d="M109.892,209.566c-0.077,0-0.15-0.039-0.191-0.109c-0.061-0.104-0.024-0.24,0.081-0.301l3.141-1.813
					l-3.141-1.813c-0.105-0.062-0.142-0.194-0.081-0.301c0.062-0.104,0.195-0.142,0.301-0.08l3.471,2.003
					c0.067,0.039,0.109,0.112,0.109,0.189c0,0.08-0.042,0.152-0.109,0.19l-3.471,2.005
					C109.966,209.557,109.929,209.566,109.892,209.566z"/>
				<path fill="#CCCCCC" d="M114.415,209.566c-0.077,0-0.15-0.039-0.191-0.109c-0.061-0.104-0.025-0.24,0.08-0.301l3.142-1.813
					l-3.142-1.813c-0.105-0.062-0.141-0.194-0.08-0.301s0.195-0.142,0.301-0.08l3.47,2.003c0.068,0.039,0.109,0.112,0.109,0.189
					c0,0.08-0.041,0.152-0.109,0.19l-3.47,2.005C114.489,209.557,114.452,209.566,114.415,209.566z"/>
				<path fill="#CCCCCC" d="M120.61,154.667c-0.121,0-0.22-0.099-0.22-0.221v-2.113h-7.989c-0.121,0-0.22-0.099-0.22-0.22
					c0-0.122,0.099-0.221,0.22-0.221h8.209c0.122,0,0.221,0.099,0.221,0.221v2.333C120.831,154.569,120.732,154.667,120.61,154.667z
					"/>
				<path fill="#CCCCCC" d="M216.297,169.298h-2.988c-0.123,0-0.221-0.098-0.221-0.219v-5.865c0-0.12,0.098-0.219,0.221-0.219h7.183
					c0.122,0,0.221,0.099,0.221,0.219c0,0.121-0.099,0.221-0.221,0.221h-6.964v5.425h2.771c0.121,0,0.22,0.099,0.22,0.22
					S216.418,169.298,216.297,169.298z"/>
			</g>
		</g>
		<g>
			<path fill="#CCCCCC" d="M96.97,151.357H82.181c-0.816,0-1.479-0.662-1.479-1.479v-25.142c0-0.817,0.663-1.48,1.479-1.48H96.97
				c0.816,0,1.479,0.663,1.479,1.48v25.142C98.449,150.695,97.787,151.357,96.97,151.357z"/>
			<g>
				<path fill="#CCCCCC" d="M96.97,152.237H82.181c-1.301,0-2.358-1.058-2.358-2.358v-25.141c0-1.301,1.058-2.359,2.358-2.359H96.97
					c1.3,0,2.359,1.059,2.359,2.359v25.141C99.33,151.18,98.27,152.237,96.97,152.237z M82.181,124.139c-0.33,0-0.6,0.269-0.6,0.6
					v25.142c0,0.33,0.27,0.6,0.6,0.6H96.97c0.33,0,0.6-0.27,0.6-0.6v-25.142c0-0.331-0.27-0.6-0.6-0.6H82.181z"/>
			</g>
			<rect x="82.181" y="124.738" fill="#CCCCCC" width="14.789" height="21.443"/>
			<circle fill="#CCCCCC" cx="89.576" cy="148.4" r="1.479"/>
		</g>
		<g>
			<path fill="#CCCCCC" d="M164.253,147.229l-21.21-6.749v-10.25l21.21-6.748c0.661-0.211,1.336,0.283,1.336,0.977v21.792
				C165.589,146.945,164.915,147.438,164.253,147.229z"/>
			<polygon fill="#CCCCCC" points="144.068,152.777 139.968,152.777 136.895,140.479 140.994,140.479 			"/>
			<path fill="#CCCCCC" d="M165.589,140.479c2.828,0,5.124-2.296,5.124-5.124c0-2.829-2.296-5.125-5.124-5.125V140.479z"/>
			<path fill="#CCCCCC" d="M143.043,130.23h-6.148c-2.831,0-5.125,2.294-5.125,5.125l0,0c0,2.83,2.294,5.124,5.125,5.124h6.148
				V130.23z"/>
			<path fill="#CCCCCC" d="M136.895,130.23c-2.831,0-5.125,2.294-5.125,5.125c0,0.535,0.083,1.052,0.235,1.537
				c0.653-2.079,2.594-3.588,4.89-3.588h6.148v-3.074H136.895z"/>
			<g>
				<path fill="#CCCCCC" d="M164.57,148.157c-0.193,0-0.391-0.028-0.582-0.091l0,0l-21.824-6.943v-11.535l21.824-6.944
					c0.585-0.187,1.205-0.085,1.699,0.278c0.498,0.362,0.78,0.922,0.78,1.537v21.792c0,0.615-0.282,1.174-0.778,1.537
					C165.355,148.032,164.967,148.157,164.57,148.157z M164.521,146.39c0.045,0.016,0.09,0.007,0.129-0.021
					c0.039-0.027,0.06-0.066,0.06-0.115V124.46c0-0.05-0.021-0.089-0.06-0.117c-0.039-0.029-0.084-0.036-0.129-0.021l-20.6,6.554
					v8.961L164.521,146.39z"/>
			</g>
			<g>
				<path fill="#CCCCCC" d="M143.922,141.359h-7.027c-3.312,0-6.005-2.693-6.005-6.004c0-3.311,2.693-6.004,6.005-6.004h7.027
					V141.359z M136.895,131.11c-2.342,0-4.246,1.904-4.246,4.245c0,2.34,1.904,4.244,4.246,4.244h5.269v-8.489H136.895z"/>
			</g>
			<g>
				<path fill="#CCCCCC" d="M165.589,141.359h-0.88v-12.008h0.88c3.312,0,6.003,2.693,6.003,6.004
					C171.592,138.666,168.9,141.359,165.589,141.359z M166.468,131.202v8.305c1.921-0.405,3.366-2.112,3.366-4.151
					C169.834,133.315,168.389,131.607,166.468,131.202z"/>
			</g>
			<g>
				<path fill="#CCCCCC" d="M144.068,153.656h-4.1c-0.403,0-0.755-0.275-0.854-0.666l-3.073-12.298
					c-0.066-0.263-0.008-0.541,0.16-0.755c0.166-0.213,0.422-0.338,0.693-0.338h4.099c0.403,0,0.755,0.275,0.854,0.666l3.074,12.298
					c0.065,0.263,0.007,0.541-0.16,0.755C144.594,153.531,144.339,153.656,144.068,153.656z M140.655,151.897h2.287l-2.635-10.538
					h-2.286L140.655,151.897z"/>
			</g>
		</g>
		<g>
			<path fill="#CCCCCC" d="M189.956,95.737c0-3.729,4.535-6.752,10.129-6.752c5.595,0,10.129,3.023,10.129,6.752
				c0,3.285-3.521,6.021-8.183,6.626c0.349,1.3,1.171,3.243,3.117,5.19c0,0-5.279-1.322-6.5-5.133
				C193.736,101.956,189.956,99.141,189.956,95.737z"/>
			<path fill="#CCCCCC" d="M198.391,89.08c0-0.032,0.006-0.063,0.006-0.096c0-3.729-4.535-6.753-10.129-6.753
				c-5.595,0-10.129,3.023-10.129,6.753c0,3.285,3.521,6.021,8.182,6.626c-0.35,1.299-1.17,3.243-3.116,5.19
				c0,0,5.28-1.323,6.5-5.133c0.086-0.008,0.17-0.022,0.256-0.032C190.033,92.337,193.652,89.612,198.391,89.08z"/>
			<circle fill="#CCCCCC" cx="183.203" cy="88.984" r="0.844"/>
			<circle fill="#CCCCCC" cx="186.58" cy="88.984" r="0.844"/>
			<circle fill="#CCCCCC" cx="189.956" cy="88.984" r="0.844"/>
			<circle fill="#CCCCCC" cx="193.333" cy="88.984" r="0.844"/>
			<g>
				<path fill="#CCCCCC" d="M205.148,108.433c-0.069,0-0.143-0.008-0.213-0.026c-0.226-0.056-5.291-1.366-6.922-5.172
					c-5.211-0.674-8.938-3.768-8.938-7.498c0-4.208,4.938-7.632,11.008-7.632s11.009,3.424,11.009,7.632
					c0,3.421-3.268,6.393-7.907,7.327c0.428,1.104,1.199,2.482,2.586,3.868c0.279,0.28,0.338,0.712,0.144,1.056
					C205.755,108.268,205.46,108.433,205.148,108.433z M200.084,89.864c-5.102,0-9.249,2.635-9.249,5.873
					c0,2.885,3.396,5.382,7.896,5.808c0.353,0.034,0.648,0.272,0.756,0.607c0.475,1.479,1.691,2.542,2.895,3.268
					c-0.631-1.076-0.992-2.06-1.199-2.829c-0.064-0.245-0.021-0.506,0.119-0.717c0.143-0.211,0.366-0.351,0.618-0.383
					c4.297-0.558,7.415-2.978,7.415-5.754C209.333,92.499,205.186,89.864,200.084,89.864z"/>
			</g>
			<g>
				<path fill="#CCCCCC" d="M183.203,101.681c-0.313,0-0.605-0.166-0.766-0.446c-0.194-0.344-0.137-0.776,0.144-1.055
					c1.387-1.386,2.157-2.765,2.586-3.869c-4.642-0.934-7.907-3.905-7.907-7.327c0-4.208,4.938-7.633,11.008-7.633
					c6.07,0,11.01,3.424,11.01,7.633c0,0.046-0.004,0.092-0.008,0.138c-0.013,0.439-0.346,0.783-0.781,0.832
					c-4.299,0.483-7.588,2.934-7.648,5.701c-0.007,0.33-0.195,0.618-0.474,0.762c-1.601,3.856-6.722,5.181-6.948,5.237
					C183.346,101.672,183.273,101.681,183.203,101.681z M188.268,83.111c-5.101,0-9.25,2.634-9.25,5.873
					c0,2.776,3.119,5.196,7.416,5.754c0.252,0.033,0.478,0.173,0.617,0.383c0.143,0.211,0.186,0.472,0.119,0.717
					c-0.206,0.767-0.566,1.747-1.193,2.821c1.203-0.727,2.418-1.789,2.89-3.26c0.05-0.158,0.143-0.294,0.264-0.398
					c0.443-3.235,3.79-5.919,8.334-6.68C196.962,85.409,193.029,83.111,188.268,83.111z"/>
			</g>
			<circle fill="#CCCCCC" cx="195.02" cy="95.737" r="0.844"/>
			<circle fill="#CCCCCC" cx="198.396" cy="95.737" r="0.844"/>
			<circle fill="#CCCCCC" cx="201.771" cy="95.737" r="0.843"/>
			<circle fill="#CCCCCC" cx="205.148" cy="95.737" r="0.844"/>
		</g>
		<g>
			<circle fill="#CCCCCC" cx="107.404" cy="170.846" r="8.554"/>
			<g>
				<path fill="#CCCCCC" d="M107.404,180.279c-5.201,0-9.433-4.232-9.433-9.434c0-5.202,4.231-9.434,9.433-9.434
					c5.202,0,9.433,4.231,9.433,9.434C116.837,176.046,112.606,180.279,107.404,180.279z M107.404,163.171
					c-4.231,0-7.674,3.442-7.674,7.675c0,4.231,3.442,7.675,7.674,7.675c4.232,0,7.674-3.443,7.674-7.675
					C115.078,166.614,111.635,163.171,107.404,163.171z"/>
			</g>
			<path fill="#CCCCCC" d="M107.404,177.5c-3.668,0-6.653-2.985-6.653-6.653c0-3.669,2.985-6.652,6.653-6.652
				c3.669,0,6.652,2.983,6.652,6.652C114.056,174.514,111.073,177.5,107.404,177.5z"/>
			<g>
				<path fill="#CCCCCC" d="M109.304,199.287h-3.802c-0.484,0-0.879-0.395-0.879-0.881v-11.402c0-0.486,0.395-0.881,0.879-0.881
					h3.802c0.486,0,0.881,0.395,0.881,0.881v11.402C110.185,198.893,109.791,199.287,109.304,199.287z M106.383,197.527h2.042
					v-9.646h-2.042V197.527z"/>
			</g>
			<g>
				<rect x="106.524" y="179.399" fill="#CCCCCC" width="1.76" height="7.604"/>
			</g>
			<rect x="106.454" y="187.953" fill="#CCCCCC" width="0.95" height="9.504"/>
			<rect x="107.404" y="187.953" fill="#CCCCCC" width="0.95" height="9.504"/>
		</g>
		<g>
			<g id="XMLID_67_">
				<g>
					<polygon fill="#CCCCCC" points="115.389,92.126 120.048,88.921 120.048,103.563 109.383,96.266 109.401,96.242 					"/>
					<polygon fill="#CCCCCC" points="120.048,88.921 115.389,92.126 115.389,86.223 					"/>
					<polygon fill="#CCCCCC" points="120.048,103.563 94.758,103.563 105.423,96.266 107.404,94.911 109.383,96.266 					"/>
					<polygon fill="#CCCCCC" points="115.389,86.223 115.389,92.126 109.401,96.242 109.383,96.266 107.404,94.911 105.423,96.266 
						105.408,96.242 99.417,92.126 99.417,86.223 99.417,78.273 115.389,78.273 					"/>
					<polygon fill="#CCCCCC" points="99.417,92.126 105.408,96.242 105.423,96.266 94.758,103.563 94.758,88.921 					"/>
					<polygon fill="#CCCCCC" points="99.417,86.223 99.417,92.126 94.758,88.921 					"/>
				</g>
			</g>
			<g>
				<g>
					<path fill="#CCCCCC" d="M120.048,104.442c-0.174,0-0.348-0.052-0.496-0.154l-12.148-8.312l-12.147,8.312
						c-0.271,0.184-0.619,0.204-0.908,0.052c-0.288-0.152-0.468-0.452-0.468-0.778V88.921c0-0.313,0.166-0.604,0.438-0.761
						l4.659-2.699l0.882,1.522l-4.22,2.445v12.466l11.268-7.71c0.3-0.205,0.693-0.205,0.993,0l11.27,7.71V89.429l-4.22-2.445
						l0.882-1.522l4.658,2.699c0.271,0.157,0.438,0.447,0.438,0.761v14.641c0,0.326-0.181,0.626-0.47,0.778
						C120.33,104.409,120.19,104.442,120.048,104.442z"/>
				</g>
				<g>
					<path fill="#CCCCCC" d="M116.27,92.249h-1.76V79.153h-14.213v13.096h-1.759V78.273c0-0.485,0.394-0.879,0.879-0.879h15.972
						c0.486,0,0.881,0.394,0.881,0.879V92.249z"/>
				</g>
				<g>
					<rect x="94.758" y="102.683" fill="#CCCCCC" width="25.29" height="1.759"/>
				</g>
				<g>
					
						<rect x="93.62" y="91.696" transform="matrix(-0.824 -0.5665 0.5665 -0.824 130.1051 225.5597)" fill="#CCCCCC" width="12.922" height="1.759"/>
				</g>
				<g>
					
						<rect x="113.847" y="86.125" transform="matrix(-0.5662 -0.8243 0.8243 -0.5662 103.3646 239.5726)" fill="#CCCCCC" width="1.759" height="12.921"/>
				</g>
				<g>
					<rect x="102.08" y="80.721" fill="#CCCCCC" width="10.648" height="1.759"/>
				</g>
				<g>
					<rect x="102.08" y="83.383" fill="#CCCCCC" width="10.648" height="1.759"/>
				</g>
				<g>
					<rect x="102.08" y="86.045" fill="#CCCCCC" width="10.648" height="1.759"/>
				</g>
				<g>
					<rect x="102.08" y="88.708" fill="#CCCCCC" width="7.986" height="1.759"/>
				</g>
				<g>
					<rect x="102.08" y="91.369" fill="#CCCCCC" width="7.986" height="1.76"/>
				</g>
			</g>
		</g>
		<g>
			<rect x="207.161" y="123.815" fill="#CCCCCC" width="8.726" height="3.636"/>
			<path fill="#CCCCCC" d="M215.885,130.359v-2.908h-8.725v2.908c0,1.898,1.215,3.51,2.908,4.107v6.324
				c-1.693,0.6-2.908,2.209-2.908,4.107v6.544h8.725v-6.544c0-1.898-1.215-3.509-2.908-4.107v-6.324
				C214.67,133.869,215.885,132.258,215.885,130.359z"/>
			<g>
				<path fill="#CCCCCC" d="M216.764,152.322h-10.482v-7.423c0-2,1.146-3.813,2.908-4.688v-5.162
					c-1.762-0.877-2.908-2.689-2.908-4.688v-7.424h10.482v7.424c0,1.999-1.146,3.812-2.908,4.688v5.162
					c1.764,0.877,2.908,2.688,2.908,4.688V152.322z M208.04,150.563h6.966v-5.664c0-1.47-0.934-2.788-2.322-3.278l-0.586-0.209
					v-7.564l0.586-0.208c1.391-0.491,2.322-1.81,2.322-3.279v-5.664h-6.966v5.664c0,1.47,0.935,2.788,2.321,3.279l0.588,0.208v7.564
					l-0.588,0.209c-1.389,0.49-2.321,1.81-2.321,3.278V150.563z"/>
			</g>
		</g>
		<g>
			<g>
				<path fill="#CCCCCC" d="M212.363,180.522h-1.76c0-0.146-0.002-0.292-0.006-0.438l1.76-0.045
					C212.361,180.199,212.363,180.361,212.363,180.522z M176.249,180.522h-1.761c0-0.612,0.031-1.231,0.09-1.839l1.75,0.168
					C176.275,179.403,176.249,179.966,176.249,180.522z M210.475,178.416c-0.065-0.552-0.162-1.105-0.281-1.647l1.717-0.382
					c0.133,0.597,0.236,1.208,0.313,1.816L210.475,178.416z M176.57,177.196l-1.727-0.338c0.117-0.601,0.268-1.202,0.442-1.79
					l1.687,0.505C176.811,176.106,176.676,176.653,176.57,177.196z M209.75,175.156c-0.173-0.527-0.374-1.053-0.6-1.561l1.609-0.71
					c0.247,0.561,0.471,1.141,0.66,1.723L209.75,175.156z M177.529,173.998l-1.627-0.668c0.232-0.564,0.498-1.127,0.783-1.668
					l1.556,0.823C177.98,172.977,177.742,173.486,177.529,173.998z M208.402,172.101c-0.273-0.482-0.573-0.959-0.893-1.415
					l1.441-1.009c0.351,0.503,0.682,1.027,0.982,1.56L208.402,172.101z M179.096,171.048l-1.468-0.973
					c0.34-0.513,0.707-1.012,1.093-1.486l1.364,1.111C179.736,170.13,179.402,170.583,179.096,171.048z M206.486,169.363
					c-0.361-0.423-0.748-0.832-1.147-1.218l1.22-1.267c0.44,0.424,0.866,0.875,1.266,1.34L206.486,169.363z M181.203,168.453
					l-1.252-1.234c0.432-0.438,0.888-0.857,1.357-1.248l1.125,1.353C182.008,167.675,181.594,168.057,181.203,168.453z
					 M204.079,167.044c-0.437-0.344-0.894-0.672-1.361-0.973l0.953-1.479c0.515,0.332,1.019,0.691,1.5,1.07L204.079,167.044z
					 M183.77,166.313l-0.99-1.453c0.509-0.348,1.037-0.672,1.574-0.963l0.842,1.545C184.71,165.707,184.232,166,183.77,166.313z
					 M201.27,165.235c-0.496-0.254-1.008-0.485-1.522-0.69l0.647-1.635c0.567,0.225,1.133,0.48,1.679,0.762L201.27,165.235z
					 M186.7,164.71l-0.688-1.617c0.563-0.241,1.146-0.455,1.729-0.641l0.528,1.68C187.74,164.298,187.211,164.494,186.7,164.71z
					 M198.165,164.007c-0.533-0.153-1.08-0.282-1.627-0.383l0.315-1.729c0.604,0.11,1.207,0.252,1.795,0.42L198.165,164.007z
					 M189.887,163.71l-0.363-1.723c0.599-0.125,1.211-0.223,1.822-0.29l0.191,1.749C190.982,163.507,190.426,163.596,189.887,163.71
					z M194.879,163.405c-0.48-0.04-0.969-0.061-1.453-0.061l-0.221,0.001l-0.02-1.76h0.234c0.538,0,1.076,0.021,1.604,0.065
					L194.879,163.405z"/>
			</g>
			<polygon fill="#CCCCCC" points="211.482,183.21 208.795,180.522 214.172,180.522 			"/>
			<g id="XMLID_66_">
				<g>
					<path fill="#CCCCCC" d="M202.835,171.113c2.403,2.409,3.896,5.735,3.896,9.409c0,3.673-1.492,7-3.896,9.408l-9.409-9.408
						L202.835,171.113z"/>
					<path fill="#CCCCCC" d="M202.835,171.113l-9.409,9.409v-13.306C197.1,167.216,200.425,168.708,202.835,171.113z"/>
					<path fill="#CCCCCC" d="M193.426,180.522l9.409,9.408c-2.41,2.405-5.735,3.897-9.409,3.897s-7-1.492-9.408-3.897
						L193.426,180.522z"/>
					<path fill="#CCCCCC" d="M193.426,167.216v13.307l-9.408,9.408c-2.406-2.408-3.896-5.735-3.896-9.408
						C180.121,173.175,186.08,167.216,193.426,167.216z"/>
				</g>
			</g>
			<g>
				<g>
					<path fill="#CCCCCC" d="M193.426,194.707c-3.783,0-7.347-1.475-10.029-4.153c-2.681-2.685-4.155-6.246-4.155-10.03
						c0-7.82,6.362-14.186,14.187-14.186c3.783,0,7.346,1.476,10.028,4.152l0.001,0.002c2.68,2.684,4.154,6.245,4.154,10.03
						c0,3.784-1.477,7.347-4.154,10.03C200.773,193.232,197.21,194.707,193.426,194.707z M193.426,168.097
						c-6.852,0-12.427,5.574-12.427,12.426c0,3.314,1.293,6.436,3.64,8.787c2.352,2.346,5.473,3.639,8.787,3.639
						s6.436-1.293,8.787-3.64c2.346-2.351,3.639-5.472,3.639-8.786s-1.291-6.436-3.639-8.786l0,0
						C199.861,169.39,196.741,168.097,193.426,168.097z"/>
				</g>
				<g>
					<polygon fill="#CCCCCC" points="202.307,190.647 192.546,180.887 192.546,167.216 194.305,167.216 194.305,180.158 
						203.553,189.404 					"/>
				</g>
				<g>
					
						<rect x="192.534" y="167.079" transform="matrix(-0.7079 -0.7063 0.7063 -0.7079 202.8439 444.92)" fill="#CCCCCC" width="1.76" height="26.88"/>
				</g>
			</g>
		</g>
		<g>
			<rect x="140.671" y="62.588" fill="#CCCCCC" width="19.404" height="26.333"/>
			<g>
				<path fill="#CCCCCC" d="M160.955,89.801h-21.162V61.708h21.162V89.801z M141.552,88.042h17.643V63.467h-17.643V88.042z"/>
			</g>
			<rect x="144.137" y="71.597" fill="#CCCCCC" width="1.386" height="4.157"/>
			<rect x="146.909" y="67.438" fill="#CCCCCC" width="1.386" height="8.316"/>
			<rect x="149.68" y="68.825" fill="#CCCCCC" width="1.387" height="6.93"/>
			<rect x="152.454" y="71.597" fill="#CCCCCC" width="1.385" height="4.157"/>
			<rect x="155.225" y="66.053" fill="#CCCCCC" width="1.385" height="9.702"/>
			<g>
				<rect x="142.75" y="76.261" fill="#CCCCCC" width="15.246" height="1.759"/>
			</g>
			<g>
				<rect x="142.75" y="80.419" fill="#CCCCCC" width="15.246" height="1.759"/>
			</g>
			<g>
				<rect x="142.75" y="83.191" fill="#CCCCCC" width="10.396" height="1.759"/>
			</g>
		</g>
		<g>
			<rect x="135.086" y="190.617" fill="#CCCCCC" width="30.719" height="17.784"/>
			<polygon fill="#CCCCCC" points="135.086,190.617 139.127,194.66 161.762,194.66 165.805,190.617 			"/>
			<g>
				<path fill="#CCCCCC" d="M165.805,209.281h-30.719c-0.486,0-0.88-0.394-0.88-0.88v-17.784c0-0.484,0.394-0.879,0.88-0.879h30.719
					c0.485,0,0.879,0.395,0.879,0.879v17.784C166.684,208.888,166.291,209.281,165.805,209.281z M135.965,207.522h28.96v-16.024
					h-28.96V207.522z"/>
			</g>
			<g>
				<path fill="#CCCCCC" d="M161.762,195.539h-22.635c-0.232,0-0.456-0.093-0.621-0.258l-4.042-4.042
					c-0.252-0.252-0.326-0.63-0.19-0.959c0.136-0.327,0.456-0.542,0.813-0.542h30.718c0.355,0,0.678,0.215,0.813,0.542
					c0.137,0.329,0.062,0.707-0.19,0.959l-4.041,4.042C162.219,195.446,161.996,195.539,161.762,195.539z M139.493,193.779h21.905
					l2.283-2.281h-26.473L139.493,193.779z"/>
			</g>
			<g>
				<path fill="#CCCCCC" d="M156.175,190.617h-1.76v-3.162h-7.94v3.162h-1.76v-4.041c0-0.486,0.395-0.88,0.88-0.88h9.7
					c0.484,0,0.88,0.394,0.88,0.88V190.617L156.175,190.617z"/>
			</g>
			<g>
				<path fill="#CCCCCC" d="M142.361,198.772c-1.376,0-2.496-1.12-2.496-2.496v-1.616c0-0.486,0.395-0.881,0.88-0.881h3.233
					c0.486,0,0.88,0.395,0.88,0.881v1.616C144.858,197.652,143.738,198.772,142.361,198.772z M141.625,195.539v0.737
					c0,0.406,0.33,0.736,0.736,0.736c0.407,0,0.738-0.33,0.738-0.736v-0.737H141.625z"/>
			</g>
			<g>
				<path fill="#CCCCCC" d="M158.529,198.772c-1.377,0-2.496-1.12-2.496-2.496v-1.616c0-0.486,0.395-0.881,0.88-0.881h3.231
					c0.486,0,0.881,0.395,0.881,0.881v1.616C161.025,197.652,159.904,198.772,158.529,198.772z M157.792,195.539v0.737
					c0,0.406,0.33,0.736,0.737,0.736c0.406,0,0.736-0.33,0.736-0.736v-0.737H157.792z"/>
			</g>
		</g>
		<g display="none">
			
				<text transform="matrix(1 0 0 1 124.5034 38.5493)" display="inline" fill="#CCCCCC" font-family="'CooperBlack'" font-size="5.2773">MARKETING ELEMENTS</text>
			
				<text transform="matrix(1 0 0 1 134.8872 45.9331)" display="inline" fill="#CCCCCC" font-family="'CooperBlack'" font-size="5.2773">background</text>
			<g display="inline">
				<path fill="#CCCCCC" d="M176.348,40.505h-51.807c-0.061,0-0.109-0.049-0.109-0.11s0.049-0.11,0.109-0.11h51.807
					c0.062,0,0.11,0.049,0.11,0.11S176.409,40.505,176.348,40.505z"/>
			</g>
		</g>
	</g>
</g>
</svg>
