<?xml version="1.0" encoding="utf-8"?>
<!-- Generator: Adobe Illustrator 16.0.0, SVG Export Plug-In . SVG Version: 6.00 Build 0)  -->
<!DOCTYPE svg PUBLIC "-//W3C//DTD SVG 1.1//EN" "http://www.w3.org/Graphics/SVG/1.1/DTD/svg11.dtd">
<svg version="1.1" id="Layer_1" xmlns="http://www.w3.org/2000/svg" xmlns:xlink="http://www.w3.org/1999/xlink" x="0px" y="0px"
	 width="436.24px" height="232.215px" viewBox="0 0 436.24 232.215" enable-background="new 0 0 436.24 232.215"
	 xml:space="preserve">
<g>
	<g>
		<g>
			<g>
				
					<rect x="298.132" y="101.432" fill="#CCCCCC" stroke="#CCCCCC" stroke-width="3.125" stroke-linecap="round" stroke-linejoin="round" stroke-miterlimit="10" width="134.902" height="12.03"/>
				
					<rect x="298.132" y="113.461" fill="#CCCCCC" stroke="#CCCCCC" stroke-width="3.125" stroke-linecap="round" stroke-linejoin="round" stroke-miterlimit="10" width="134.902" height="91.887"/>
			</g>
			
				<line fill="#CCCCCC" stroke="#CCCCCC" stroke-width="3.125" stroke-linecap="round" stroke-linejoin="round" stroke-miterlimit="10" x1="304.129" y1="107.45" x2="308.68" y2="107.45"/>
			
				<line fill="#CCCCCC" stroke="#CCCCCC" stroke-width="3.125" stroke-linecap="round" stroke-linejoin="round" stroke-miterlimit="10" x1="313.52" y1="107.45" x2="318.07" y2="107.45"/>
			
				<line fill="#CCCCCC" stroke="#CCCCCC" stroke-width="3.125" stroke-linecap="round" stroke-linejoin="round" stroke-miterlimit="10" x1="322.906" y1="107.45" x2="327.46" y2="107.45"/>
		</g>
		<g>
			
				<rect x="308.091" y="122.951" fill="#CCCCCC" stroke="#CCCCCC" stroke-width="3.125" stroke-linecap="round" stroke-linejoin="round" stroke-miterlimit="10" width="71.8" height="31.39"/>
			
				<line fill="#CCCCCC" stroke="#CCCCCC" stroke-width="3.125" stroke-linecap="round" stroke-linejoin="round" stroke-miterlimit="10" x1="311.601" y1="162.805" x2="327.758" y2="162.805"/>
			
				<line fill="#CCCCCC" stroke="#CCCCCC" stroke-width="3.125" stroke-linecap="round" stroke-linejoin="round" stroke-miterlimit="10" x1="336.313" y1="162.805" x2="375.635" y2="162.805"/>
			
				<line fill="#CCCCCC" stroke="#CCCCCC" stroke-width="3.125" stroke-linecap="round" stroke-linejoin="round" stroke-miterlimit="10" x1="311.601" y1="171.271" x2="375.635" y2="171.271"/>
			
				<rect x="392.302" y="122.951" fill="#CCCCCC" stroke="#CCCCCC" stroke-width="3.125" stroke-linecap="round" stroke-linejoin="round" stroke-miterlimit="10" width="30.578" height="12.17"/>
			
				<rect x="392.302" y="143.229" fill="#CCCCCC" stroke="#CCCCCC" stroke-width="3.125" stroke-linecap="round" stroke-linejoin="round" stroke-miterlimit="10" width="30.578" height="12.17"/>
			
				<rect x="392.302" y="163.509" fill="#CCCCCC" stroke="#CCCCCC" stroke-width="3.125" stroke-linecap="round" stroke-linejoin="round" stroke-miterlimit="10" width="30.578" height="12.166"/>
			
				<rect x="392.302" y="183.79" fill="#CCCCCC" stroke="#CCCCCC" stroke-width="3.125" stroke-linecap="round" stroke-linejoin="round" stroke-miterlimit="10" width="30.578" height="12.166"/>
			
				<rect x="308.091" y="179.203" fill="#CCCCCC" stroke="#CCCCCC" stroke-width="3.125" stroke-linecap="round" stroke-linejoin="round" stroke-miterlimit="10" width="71.8" height="16.753"/>
		</g>
	</g>
	<g>
		
			<rect x="3.202" y="133.807" fill="#CCCCCC" stroke="#CCCCCC" stroke-width="3.125" stroke-linecap="round" stroke-linejoin="round" stroke-miterlimit="10" width="121.552" height="71.866"/>
		<g>
			
				<polygon fill="#CCCCCC" stroke="#CCCCCC" stroke-width="3.125" stroke-linecap="round" stroke-linejoin="round" stroke-miterlimit="10" points="
				18.729,118.723 33.813,133.807 60.43,133.807 45.346,118.723 			"/>
			
				<polygon fill="#CCCCCC" stroke="#CCCCCC" stroke-width="3.125" stroke-linecap="round" stroke-linejoin="round" stroke-miterlimit="10" points="
				3.202,118.723 3.202,133.807 33.813,133.807 18.729,118.723 			"/>
			
				<polygon fill="#CCCCCC" stroke="#CCCCCC" stroke-width="3.125" stroke-linecap="round" stroke-linejoin="round" stroke-miterlimit="10" points="
				45.346,118.723 60.43,133.807 87.048,133.807 71.965,118.723 			"/>
			
				<polygon fill="#CCCCCC" stroke="#CCCCCC" stroke-width="3.125" stroke-linecap="round" stroke-linejoin="round" stroke-miterlimit="10" points="
				124.754,118.723 98.581,118.723 113.663,133.807 124.754,133.807 			"/>
			
				<polygon fill="#CCCCCC" stroke="#CCCCCC" stroke-width="3.125" stroke-linecap="round" stroke-linejoin="round" stroke-miterlimit="10" points="
				71.965,118.723 87.048,133.807 113.663,133.807 98.581,118.723 			"/>
		</g>
		<g>
			
				<polygon fill="#CCCCCC" stroke="#CCCCCC" stroke-width="3.125" stroke-linecap="round" stroke-linejoin="round" stroke-miterlimit="10" points="
				109.227,103.639 94.146,118.723 67.528,118.723 82.611,103.639 			"/>
			
				<polygon fill="#CCCCCC" stroke="#CCCCCC" stroke-width="3.125" stroke-linecap="round" stroke-linejoin="round" stroke-miterlimit="10" points="
				124.754,103.639 124.754,118.723 94.146,118.723 109.227,103.639 			"/>
			
				<polygon fill="#CCCCCC" stroke="#CCCCCC" stroke-width="3.125" stroke-linecap="round" stroke-linejoin="round" stroke-miterlimit="10" points="
				82.611,103.639 67.528,118.723 40.911,118.723 55.994,103.639 			"/>
			
				<polygon fill="#CCCCCC" stroke="#CCCCCC" stroke-width="3.125" stroke-linecap="round" stroke-linejoin="round" stroke-miterlimit="10" points="
				3.202,103.639 29.376,103.639 14.293,118.723 3.202,118.723 			"/>
			
				<polygon fill="#CCCCCC" stroke="#CCCCCC" stroke-width="3.125" stroke-linecap="round" stroke-linejoin="round" stroke-miterlimit="10" points="
				55.994,103.639 40.911,118.723 14.293,118.723 29.376,103.639 			"/>
		</g>
		
			<line fill="#CCCCCC" stroke="#CCCCCC" stroke-width="3.125" stroke-linecap="round" stroke-linejoin="round" stroke-miterlimit="10" x1="15.292" y1="155.691" x2="112.665" y2="155.691"/>
		
			<line fill="#CCCCCC" stroke="#CCCCCC" stroke-width="3.125" stroke-linecap="round" stroke-linejoin="round" stroke-miterlimit="10" x1="38.396" y1="146.227" x2="38.396" y2="195.322"/>
		
			<line fill="#CCCCCC" stroke="#CCCCCC" stroke-width="3.125" stroke-linecap="round" stroke-linejoin="round" stroke-miterlimit="10" x1="29.376" y1="180.828" x2="113.663" y2="180.828"/>
	</g>
	<g>
		<g>
			
				<path fill="#CCCCCC" stroke="#CCCCCC" stroke-width="3.125" stroke-linecap="round" stroke-linejoin="round" stroke-miterlimit="10" d="
				M335.674,53.803c0-2.891-2.339-5.23-5.229-5.23H100.412c-2.889,0-5.229,2.339-5.229,5.23v141.853h240.489L335.674,53.803
				L335.674,53.803z"/>
			
				<path fill="#CCCCCC" stroke="#CCCCCC" stroke-width="3.125" stroke-linecap="round" stroke-linejoin="round" stroke-miterlimit="10" d="
				M95.185,195.656v26.14c0,2.886,2.34,5.228,5.229,5.228h230.032c2.891,0,5.229-2.342,5.229-5.228v-26.14H95.185z"/>
		</g>
		
			<line fill="#CCCCCC" stroke="#CCCCCC" stroke-width="3.125" stroke-linecap="round" stroke-linejoin="round" stroke-miterlimit="10" x1="110.519" y1="210.992" x2="320.339" y2="210.992"/>
		
			<rect x="141.323" y="201.58" fill="#CCCCCC" stroke="#CCCCCC" stroke-width="3.125" stroke-linecap="round" stroke-linejoin="round" stroke-miterlimit="10" width="7.319" height="18.82"/>
	</g>
	<g>
		
			<path fill="#CCCCCC" stroke="#CCCCCC" stroke-width="3.125" stroke-linecap="round" stroke-linejoin="round" stroke-miterlimit="10" d="
			M253.332,122.117c0,20.929-16.969,37.898-37.903,37.898c-20.933,0-37.901-16.971-37.901-37.898
			c0-20.934,16.969-37.904,37.901-37.904C236.364,84.212,253.332,101.183,253.332,122.117z"/>
		<g>
			
				<line fill="#CCCCCC" stroke="#CCCCCC" stroke-width="3.125" stroke-linecap="round" stroke-linejoin="round" stroke-miterlimit="10" x1="225.441" y1="118.085" x2="213.998" y2="110.399"/>
			
				<line fill="#CCCCCC" stroke="#CCCCCC" stroke-width="3.125" stroke-linecap="round" stroke-linejoin="round" stroke-miterlimit="10" x1="213.998" y1="132.747" x2="225.441" y2="125.063"/>
			
				<path fill="#CCCCCC" stroke="#CCCCCC" stroke-width="3.125" stroke-linecap="round" stroke-linejoin="round" stroke-miterlimit="10" d="
				M230.755,127.932c-3.511,0-6.357-2.847-6.357-6.361c0-3.508,2.848-6.357,6.357-6.357s6.358,2.85,6.358,6.357
				C237.114,125.085,234.266,127.932,230.755,127.932z"/>
			
				<circle fill="#CCCCCC" stroke="#CCCCCC" stroke-width="3.125" stroke-linecap="round" stroke-linejoin="round" stroke-miterlimit="10" cx="208.203" cy="135.354" r="6.359"/>
			
				<circle fill="#CCCCCC" stroke="#CCCCCC" stroke-width="3.125" stroke-linecap="round" stroke-linejoin="round" stroke-miterlimit="10" cx="208.203" cy="107.792" r="6.36"/>
		</g>
	</g>
	<g>
		
			<path fill="#CCCCCC" stroke="#CCCCCC" stroke-width="3.125" stroke-linecap="round" stroke-linejoin="round" stroke-miterlimit="10" d="
			M279.85,6.282h76.438c4.688,0,8.485,3.8,8.485,8.486V48.08c0,4.686-3.798,8.485-8.485,8.485H315.36L299.43,71.02V56.565h-19.58
			c-4.687,0-8.483-3.799-8.483-8.485V14.769C271.365,10.083,275.163,6.282,279.85,6.282z"/>
		
			<line fill="#CCCCCC" stroke="#CCCCCC" stroke-width="3.125" stroke-linecap="round" stroke-linejoin="round" stroke-miterlimit="10" x1="349.931" y1="19.798" x2="311.061" y2="19.798"/>
		
			<line fill="#CCCCCC" stroke="#CCCCCC" stroke-width="3.125" stroke-linecap="round" stroke-linejoin="round" stroke-miterlimit="10" x1="349.931" y1="30.798" x2="286.488" y2="30.798"/>
		
			<line fill="#CCCCCC" stroke="#CCCCCC" stroke-width="3.125" stroke-linecap="round" stroke-linejoin="round" stroke-miterlimit="10" x1="349.931" y1="41.8" x2="340.765" y2="41.8"/>
		
			<line fill="#CCCCCC" stroke="#CCCCCC" stroke-width="3.125" stroke-linecap="round" stroke-linejoin="round" stroke-miterlimit="10" x1="298.958" y1="19.798" x2="286.488" y2="19.798"/>
		
			<line fill="#CCCCCC" stroke="#CCCCCC" stroke-width="3.125" stroke-linecap="round" stroke-linejoin="round" stroke-miterlimit="10" x1="332.328" y1="41.8" x2="294.191" y2="41.8"/>
	</g>
	<g>
		
			<path fill="#CCCCCC" stroke="#CCCCCC" stroke-width="3.125" stroke-linecap="round" stroke-linejoin="round" stroke-miterlimit="10" d="
			M152.781,30.018H72.199c-4.942,0-8.945,4.005-8.945,8.944v35.117c0,4.939,4.003,8.946,8.945,8.946h43.146l16.792,15.237V83.024
			h20.643c4.939,0,8.943-4.006,8.943-8.946V38.962C161.725,34.022,157.721,30.018,152.781,30.018z"/>
		
			<line fill="#CCCCCC" stroke="#CCCCCC" stroke-width="3.125" stroke-linecap="round" stroke-linejoin="round" stroke-miterlimit="10" x1="78.901" y1="44.263" x2="119.879" y2="44.263"/>
		
			<line fill="#CCCCCC" stroke="#CCCCCC" stroke-width="3.125" stroke-linecap="round" stroke-linejoin="round" stroke-miterlimit="10" x1="78.901" y1="55.859" x2="145.781" y2="55.859"/>
		
			<line fill="#CCCCCC" stroke="#CCCCCC" stroke-width="3.125" stroke-linecap="round" stroke-linejoin="round" stroke-miterlimit="10" x1="78.901" y1="67.457" x2="88.565" y2="67.457"/>
		
			<line fill="#CCCCCC" stroke="#CCCCCC" stroke-width="3.125" stroke-linecap="round" stroke-linejoin="round" stroke-miterlimit="10" x1="132.637" y1="44.263" x2="145.781" y2="44.263"/>
		
			<line fill="#CCCCCC" stroke="#CCCCCC" stroke-width="3.125" stroke-linecap="round" stroke-linejoin="round" stroke-miterlimit="10" x1="97.458" y1="67.457" x2="137.663" y2="67.457"/>
	</g>
</g>
</svg>
